<?xml version="1.0" encoding="UTF-8"?>
<svg xmlns="http://www.w3.org/2000/svg" xmlns:xlink="http://www.w3.org/1999/xlink" width="217px" height="46px" viewBox="0 0 217 46" version="1.1">
<g id="surface1">
<path style=" stroke:none;fill-rule:nonzero;fill:rgb(89.411765%,85.09804%,81.568629%);fill-opacity:1;" d="M 49.910156 2.390625 C 50.777344 2.988281 50.777344 2.988281 50.878906 3.636719 C 50.835938 5.453125 50.519531 7.136719 50.019531 8.921875 C 49.964844 9.550781 49.964844 9.550781 50.34375 10.15625 C 51.480469 10.847656 52.652344 11.390625 53.945312 11.933594 C 55.339844 12.664062 55.816406 13.210938 56.421875 14.335938 C 57.523438 20.042969 52.757812 24.5625 48.175781 28.972656 C 48.617188 29.023438 49.0625 29.074219 49.523438 29.128906 C 50.113281 29.199219 50.703125 29.273438 51.292969 29.347656 C 51.585938 29.378906 51.878906 29.414062 52.179688 29.445312 C 54.167969 29.699219 55.421875 30.078125 56.855469 31.066406 C 57.738281 32.894531 57.945312 35.546875 56.691406 37.320312 C 53.199219 40.640625 46.003906 42.210938 40.421875 42.871094 C 30.925781 43.710938 14.574219 43.71875 6.511719 39.726562 C 5.332031 38.976562 5.117188 38.367188 5.019531 37.300781 C 5.011719 36.828125 5.011719 36.355469 5.019531 35.882812 C 5.007812 35.644531 5 35.410156 4.992188 35.167969 C 4.996094 33.21875 5.851562 32.136719 7.839844 30.730469 C 9.722656 29.902344 11.773438 29.453125 13.886719 28.972656 C 13.171875 27.925781 12.292969 26.964844 11.390625 25.988281 C 8.101562 22.351562 5.523438 19.035156 6.074219 14.636719 C 6.902344 12.832031 8.984375 11.574219 11.382812 10.699219 C 12.324219 10.152344 12.324219 10.152344 12.230469 9.074219 C 12.175781 8.4375 12.097656 7.800781 12.007812 7.164062 C 11.957031 6.535156 11.957031 6.535156 12.152344 5.375 C 18.015625 0.929688 42.4375 0 49.910156 2.390625 Z M 49.910156 2.390625 "/>
<path style=" stroke:none;fill-rule:nonzero;fill:rgb(58.039218%,40.392157%,23.529412%);fill-opacity:1;" d="M 15.191406 29.273438 C 16.269531 29.929688 16.269531 29.929688 17.25 30.804688 C 19.910156 32.972656 23.546875 34.6875 27.761719 35.015625 C 33.535156 35.230469 38.308594 34.769531 42.964844 32.257812 C 43.253906 32.257812 43.539062 32.257812 43.835938 32.257812 C 43.933594 32.097656 44.03125 31.9375 44.132812 31.773438 C 45.652344 29.878906 45.652344 29.878906 46.871094 29.273438 C 49.730469 28.835938 52.914062 29.359375 55.550781 30.167969 C 56.605469 30.765625 56.84375 31.042969 57.289062 31.960938 C 57.769531 36.292969 57.769531 36.292969 56.203125 37.785156 C 50.527344 41.710938 42.195312 43.074219 34.394531 43.125 C 11.6875 43.023438 11.6875 43.023438 5.757812 39.246094 C 4.914062 38.148438 5.003906 37.105469 5.019531 35.882812 C 5.007812 35.644531 5 35.410156 4.992188 35.167969 C 4.992188 33.554688 5.40625 32.644531 6.945312 31.363281 C 9.316406 29.820312 11.910156 29.019531 15.191406 29.273438 Z M 15.191406 29.273438 "/>
<path style=" stroke:none;fill-rule:nonzero;fill:rgb(60.784316%,44.313726%,29.411766%);fill-opacity:1;" d="M 61.574219 12.210938 C 62.109375 12.210938 62.109375 12.210938 62.65625 12.210938 C 63.066406 12.210938 63.476562 12.210938 63.898438 12.210938 C 64.351562 12.210938 64.804688 12.210938 65.269531 12.210938 C 65.746094 12.210938 66.21875 12.210938 66.707031 12.210938 C 68.285156 12.214844 69.859375 12.214844 71.433594 12.21875 C 72.523438 12.21875 73.613281 12.21875 74.703125 12.21875 C 77.28125 12.21875 79.859375 12.222656 82.441406 12.226562 C 85.664062 12.230469 88.886719 12.230469 92.109375 12.230469 C 97.863281 12.234375 103.617188 12.242188 109.367188 12.246094 C 109.800781 13.144531 109.800781 13.144531 109.367188 14.039062 C 108.507812 14.039062 107.648438 14.039062 106.765625 14.039062 C 106.769531 14.351562 106.773438 14.667969 106.777344 14.988281 C 106.792969 16.148438 106.804688 17.3125 106.8125 18.472656 C 106.816406 18.976562 106.820312 19.480469 106.828125 19.980469 C 106.839844 20.703125 106.84375 21.425781 106.847656 22.148438 C 106.851562 22.375 106.859375 22.597656 106.863281 22.832031 C 106.863281 23.386719 106.816406 23.941406 106.765625 24.492188 C 106.335938 24.789062 106.335938 24.789062 105.894531 25.089844 C 105.179688 24.992188 104.464844 24.894531 103.726562 24.792969 C 103.726562 21.242188 103.726562 17.695312 103.726562 14.039062 C 102.292969 14.136719 100.863281 14.234375 99.386719 14.335938 C 99.242188 17.789062 99.097656 21.238281 98.953125 24.792969 C 98.234375 24.890625 97.519531 24.988281 96.78125 25.089844 C 96.347656 24.792969 96.347656 24.792969 96.296875 24.15625 C 96.300781 23.746094 96.300781 23.746094 96.304688 23.324219 C 96.308594 22.882812 96.308594 22.882812 96.308594 22.429688 C 96.316406 21.964844 96.316406 21.964844 96.320312 21.488281 C 96.324219 21.175781 96.324219 20.863281 96.328125 20.542969 C 96.332031 19.769531 96.339844 18.996094 96.347656 18.222656 C 94.746094 18.628906 93.953125 18.832031 93.175781 19.902344 C 92.933594 20.234375 92.691406 20.566406 92.441406 20.910156 C 91.582031 20.710938 90.722656 20.515625 89.839844 20.3125 C 89.839844 19.71875 89.839844 19.128906 89.839844 18.519531 C 88.824219 18.507812 87.8125 18.507812 86.800781 18.519531 C 86.585938 18.667969 86.585938 18.667969 86.367188 18.816406 C 86.4375 20.09375 86.625 20.757812 87.792969 21.765625 C 88.191406 22.019531 88.585938 22.273438 88.996094 22.535156 C 89.394531 22.792969 89.792969 23.050781 90.207031 23.316406 C 90.515625 23.507812 90.824219 23.699219 91.140625 23.894531 C 90.710938 24.289062 90.28125 24.683594 89.839844 25.089844 C 87.136719 24.585938 85.496094 23.132812 83.789062 21.691406 C 83.105469 20.53125 83.027344 19.457031 83.328125 18.222656 C 84.105469 17.363281 84.621094 16.878906 85.933594 16.429688 C 89.660156 16.234375 89.660156 16.234375 91.382812 16.785156 C 93.144531 17.1875 94.683594 16.59375 96.347656 16.128906 C 96.347656 15.441406 96.347656 14.75 96.347656 14.039062 C 88.902344 14.039062 81.453125 14.039062 73.78125 14.039062 C 73.921875 15.023438 74.066406 16.011719 74.214844 17.027344 C 74.5 16.925781 74.785156 16.828125 75.082031 16.726562 C 78.148438 16.554688 78.148438 16.554688 79.828125 17.269531 C 81.289062 18.332031 81.296875 19.367188 81.289062 20.761719 C 81.066406 22.019531 80.277344 23.085938 79.421875 24.195312 C 78.707031 23.996094 77.988281 23.800781 77.253906 23.597656 C 77.253906 22.410156 77.546875 21.484375 77.972656 20.347656 C 78.207031 19.660156 78.207031 19.660156 77.6875 18.816406 C 76.421875 18.769531 76.421875 18.769531 75.082031 18.816406 C 74.0625 19.519531 74.097656 19.683594 74.050781 20.640625 C 74.035156 20.878906 74.019531 21.117188 74.003906 21.363281 C 73.992188 21.613281 73.980469 21.863281 73.96875 22.121094 C 73.832031 24.757812 73.832031 24.757812 73.347656 25.089844 C 72.261719 25.128906 72.261719 25.128906 71.175781 25.089844 C 70.488281 24.617188 70.589844 24.082031 70.496094 23.429688 C 70.460938 23.183594 70.425781 22.9375 70.386719 22.679688 C 70.363281 22.492188 70.335938 22.300781 70.308594 22.105469 C 69.878906 22.25 69.878906 22.25 69.441406 22.402344 C 65.53125 22.710938 65.53125 22.710938 63.789062 22.089844 C 62.867188 21.5625 62.164062 21.050781 61.628906 20.3125 C 61.476562 18.714844 61.425781 17.722656 62.929688 16.429688 C 64.40625 15.375 66.097656 15.269531 68.136719 15.234375 C 69.441406 15.363281 69.441406 15.363281 70.308594 15.53125 C 70.308594 16.125 70.308594 16.714844 70.308594 17.324219 C 68.734375 17.421875 67.15625 17.523438 65.535156 17.625 C 65.015625 18.472656 65.015625 18.472656 64.664062 19.414062 C 64.953125 19.710938 65.238281 20.007812 65.535156 20.3125 C 68.089844 20.476562 68.089844 20.476562 70.308594 19.714844 C 70.527344 19.109375 70.527344 19.109375 70.53125 18.414062 C 70.542969 18.183594 70.558594 17.957031 70.574219 17.71875 C 70.585938 17.429688 70.59375 17.140625 70.605469 16.839844 C 70.652344 15.914062 70.695312 14.992188 70.742188 14.039062 C 67.304688 14.039062 63.867188 14.039062 60.324219 14.039062 C 60.324219 12.265625 60.324219 12.265625 61.574219 12.210938 Z M 61.574219 12.210938 "/>
<path style=" stroke:none;fill-rule:nonzero;fill:rgb(60.392159%,44.313726%,29.019609%);fill-opacity:1;" d="M 56.855469 31.960938 C 56.996094 31.960938 57.140625 31.960938 57.289062 31.960938 C 57.613281 36.441406 57.613281 36.441406 56.203125 37.785156 C 50.527344 41.710938 42.195312 43.074219 34.394531 43.125 C 11.8125 43.027344 11.8125 43.027344 5.75 39.253906 C 4.902344 38.125 5.070312 37.019531 5.125 35.769531 C 5.132812 35.519531 5.136719 35.265625 5.144531 35.007812 C 5.160156 34.390625 5.183594 33.773438 5.207031 33.15625 C 5.351562 33.15625 5.496094 33.15625 5.640625 33.15625 C 5.730469 33.46875 5.820312 33.785156 5.914062 34.109375 C 6.449219 35.371094 7.496094 36.070312 9.113281 36.742188 C 12.039062 37.628906 14.941406 37.957031 18.09375 38.269531 C 18.566406 38.320312 19.042969 38.371094 19.53125 38.425781 C 24.667969 38.953125 29.773438 39.1875 34.964844 39.203125 C 35.414062 39.210938 35.859375 39.21875 36.324219 39.222656 C 40.867188 39.238281 45.011719 38.53125 49.152344 37.261719 C 49.445312 37.175781 49.738281 37.085938 50.042969 36.992188 C 52.125 36.335938 53.796875 35.558594 55.429688 34.4375 C 55.703125 34.246094 55.703125 34.246094 55.984375 34.050781 C 56.128906 34.050781 56.273438 34.050781 56.421875 34.050781 C 56.5625 33.363281 56.707031 32.671875 56.855469 31.960938 Z M 56.855469 31.960938 "/>
<path style=" stroke:none;fill-rule:nonzero;fill:rgb(72.941178%,65.098041%,58.039218%);fill-opacity:1;" d="M 41.582031 2.59375 C 41.921875 2.59375 42.257812 2.589844 42.609375 2.589844 C 44.863281 2.609375 46.546875 2.765625 48.175781 3.882812 C 48.175781 4.574219 48.175781 4.574219 47.738281 5.375 C 45.386719 6.960938 43.898438 7.203125 40.707031 7.210938 C 40.164062 7.214844 39.617188 7.214844 39.058594 7.21875 C 38.464844 7.21875 37.871094 7.21875 37.28125 7.21875 C 36.671875 7.21875 36.0625 7.222656 35.453125 7.222656 C 34.179688 7.222656 32.90625 7.222656 31.636719 7.222656 C 30 7.222656 28.367188 7.226562 26.734375 7.234375 C 25.480469 7.238281 24.222656 7.238281 22.96875 7.238281 C 22.367188 7.238281 21.761719 7.238281 21.160156 7.242188 C 20.320312 7.242188 19.480469 7.242188 18.640625 7.242188 C 17.921875 7.242188 17.921875 7.242188 17.1875 7.242188 C 16.058594 7.167969 16.058594 7.167969 15.191406 6.570312 C 15.191406 6.175781 15.191406 5.78125 15.191406 5.375 C 15.703125 5.1875 16.21875 5 16.734375 4.816406 C 17.023438 4.710938 17.308594 4.609375 17.605469 4.5 C 19.980469 3.785156 22.351562 3.492188 24.917969 3.328125 C 25.21875 3.3125 25.519531 3.292969 25.828125 3.273438 C 26.792969 3.210938 27.757812 3.15625 28.726562 3.097656 C 29.054688 3.078125 29.382812 3.058594 29.722656 3.039062 C 33.671875 2.808594 37.613281 2.605469 41.582031 2.59375 Z M 41.582031 2.59375 "/>
<path style=" stroke:none;fill-rule:nonzero;fill:rgb(63.137257%,50.196081%,37.254903%);fill-opacity:1;" d="M 60.761719 12.246094 C 76.800781 12.246094 92.839844 12.246094 109.367188 12.246094 C 109.800781 13.144531 109.800781 13.144531 109.367188 14.039062 C 108.507812 14.039062 107.648438 14.039062 106.765625 14.039062 C 106.769531 14.351562 106.773438 14.667969 106.777344 14.988281 C 106.792969 16.148438 106.804688 17.3125 106.8125 18.472656 C 106.816406 18.976562 106.820312 19.480469 106.828125 19.980469 C 106.839844 20.703125 106.84375 21.425781 106.847656 22.148438 C 106.851562 22.375 106.859375 22.597656 106.863281 22.832031 C 106.863281 23.386719 106.816406 23.941406 106.765625 24.492188 C 106.335938 24.789062 106.335938 24.789062 105.894531 25.089844 C 105.179688 24.992188 104.464844 24.894531 103.726562 24.792969 C 103.726562 21.242188 103.726562 17.695312 103.726562 14.039062 C 102.292969 14.136719 100.863281 14.234375 99.386719 14.335938 C 99.242188 17.789062 99.097656 21.238281 98.953125 24.792969 C 98.234375 24.890625 97.519531 24.988281 96.78125 25.089844 C 96.347656 24.792969 96.347656 24.792969 96.296875 24.15625 C 96.300781 23.746094 96.300781 23.746094 96.304688 23.324219 C 96.308594 22.882812 96.308594 22.882812 96.308594 22.429688 C 96.316406 21.964844 96.316406 21.964844 96.320312 21.488281 C 96.324219 21.175781 96.324219 20.863281 96.328125 20.542969 C 96.332031 19.769531 96.339844 18.996094 96.347656 18.222656 C 94.746094 18.628906 93.953125 18.832031 93.175781 19.902344 C 92.933594 20.234375 92.691406 20.566406 92.441406 20.910156 C 91.582031 20.710938 90.722656 20.515625 89.839844 20.3125 C 89.839844 19.71875 89.839844 19.128906 89.839844 18.519531 C 88.824219 18.507812 87.8125 18.507812 86.800781 18.519531 C 86.585938 18.667969 86.585938 18.667969 86.367188 18.816406 C 86.4375 20.09375 86.625 20.757812 87.792969 21.765625 C 88.386719 22.144531 88.386719 22.144531 88.996094 22.535156 C 89.394531 22.792969 89.792969 23.050781 90.207031 23.316406 C 90.515625 23.507812 90.824219 23.699219 91.140625 23.894531 C 90.710938 24.289062 90.28125 24.683594 89.839844 25.089844 C 87.136719 24.585938 85.496094 23.132812 83.789062 21.691406 C 83.105469 20.53125 83.027344 19.457031 83.328125 18.222656 C 84.105469 17.363281 84.621094 16.878906 85.933594 16.429688 C 88.230469 16.308594 90.363281 16.265625 92.441406 17.027344 C 92.726562 17.125 93.015625 17.222656 93.308594 17.324219 C 93.453125 17.421875 93.597656 17.523438 93.742188 17.625 C 94.746094 17.722656 95.75 17.820312 96.78125 17.921875 C 96.78125 20.089844 96.78125 22.257812 96.78125 24.492188 C 97.210938 24.394531 97.640625 24.296875 98.085938 24.195312 C 98.101562 23.734375 98.101562 23.734375 98.117188 23.265625 C 98.15625 22.136719 98.203125 21.003906 98.246094 19.871094 C 98.265625 19.382812 98.28125 18.890625 98.300781 18.402344 C 98.324219 17.695312 98.351562 16.992188 98.378906 16.289062 C 98.386719 16.070312 98.394531 15.847656 98.402344 15.621094 C 98.46875 14.074219 98.46875 14.074219 98.953125 13.742188 C 100.6875 13.699219 102.421875 13.726562 104.160156 13.742188 C 104.375 15.957031 104.375 15.957031 104.59375 18.222656 C 104.738281 16.742188 104.878906 15.261719 105.027344 13.742188 C 106.691406 13.453125 107.339844 13.464844 108.933594 13.742188 C 108.933594 13.347656 108.933594 12.953125 108.933594 12.546875 C 93.035156 12.546875 77.140625 12.546875 60.761719 12.546875 C 60.761719 12.445312 60.761719 12.347656 60.761719 12.246094 Z M 60.761719 12.246094 "/>
<path style=" stroke:none;fill-rule:nonzero;fill:rgb(68.627453%,57.254905%,46.27451%);fill-opacity:1;" d="M 110.234375 10.753906 C 111.429688 10.648438 111.429688 10.648438 112.839844 10.753906 C 113.757812 11.457031 113.757812 11.457031 114.582031 12.429688 C 114.730469 12.601562 114.878906 12.773438 115.03125 12.949219 C 115.503906 13.496094 115.960938 14.046875 116.421875 14.597656 C 116.886719 15.148438 117.355469 15.695312 117.828125 16.242188 C 118.253906 16.738281 118.671875 17.238281 119.089844 17.738281 C 119.734375 18.53125 119.734375 18.53125 120.652344 19.117188 C 120.78125 18.96875 120.910156 18.824219 121.042969 18.671875 C 122.488281 17.019531 123.949219 15.378906 125.425781 13.742188 C 125.667969 13.46875 125.667969 13.46875 125.914062 13.191406 C 126.304688 12.761719 126.707031 12.335938 127.109375 11.910156 C 127.320312 11.683594 127.535156 11.453125 127.753906 11.21875 C 128.464844 10.753906 128.464844 10.753906 129.632812 10.679688 C 129.964844 10.703125 130.292969 10.730469 130.632812 10.753906 C 130.632812 11.648438 130.632812 11.648438 129.765625 12.546875 C 129.679688 13.402344 129.644531 14.226562 129.652344 15.085938 C 129.648438 15.332031 129.648438 15.582031 129.648438 15.835938 C 129.648438 16.363281 129.648438 16.886719 129.652344 17.414062 C 129.65625 18.21875 129.652344 19.023438 129.648438 19.828125 C 129.648438 20.335938 129.648438 20.847656 129.652344 21.355469 C 129.648438 21.597656 129.648438 21.839844 129.644531 22.085938 C 129.660156 23.242188 129.679688 23.808594 130.632812 24.792969 C 129.300781 25.0625 128.117188 25.117188 126.726562 25.089844 C 126.726562 24.023438 126.777344 22.953125 126.824219 21.886719 C 126.832031 21.660156 126.84375 21.4375 126.851562 21.207031 C 126.882812 20.492188 126.914062 19.777344 126.945312 19.0625 C 126.964844 18.574219 126.988281 18.089844 127.007812 17.605469 C 127.058594 16.417969 127.109375 15.226562 127.160156 14.039062 C 126.078125 14.945312 125.117188 15.835938 124.273438 16.855469 C 124.070312 17.09375 123.871094 17.328125 123.660156 17.574219 C 123.242188 18.070312 122.828125 18.570312 122.417969 19.070312 C 122.113281 19.425781 122.113281 19.425781 121.804688 19.785156 C 121.625 20 121.445312 20.21875 121.261719 20.4375 C 121.058594 20.59375 120.859375 20.75 120.652344 20.910156 C 120.078125 20.910156 119.507812 20.910156 118.914062 20.910156 C 118.160156 20.277344 118.160156 20.277344 117.417969 19.40625 C 117.054688 18.988281 117.054688 18.988281 116.683594 18.5625 C 116.382812 18.203125 116.078125 17.84375 115.769531 17.472656 C 114.804688 16.339844 113.835938 15.207031 112.839844 14.039062 C 112.839844 17.390625 112.839844 20.742188 112.839844 24.195312 C 113.269531 24.195312 113.699219 24.195312 114.140625 24.195312 C 114.140625 24.390625 114.140625 24.589844 114.140625 24.792969 C 112.632812 25.136719 111.773438 25.003906 110.234375 24.792969 C 110.445312 24.566406 110.445312 24.566406 110.664062 24.332031 C 111.265625 23.332031 111.214844 22.480469 111.21875 21.398438 C 111.21875 21.1875 111.222656 20.972656 111.222656 20.753906 C 111.222656 20.308594 111.222656 19.859375 111.21875 19.410156 C 111.210938 18.730469 111.21875 18.050781 111.222656 17.371094 C 111.222656 16.933594 111.222656 16.496094 111.21875 16.058594 C 111.222656 15.757812 111.222656 15.757812 111.222656 15.449219 C 111.207031 14.089844 110.8125 12.941406 110.234375 11.648438 C 110.234375 11.355469 110.234375 11.058594 110.234375 10.753906 Z M 110.234375 10.753906 "/>
<path style=" stroke:none;fill-rule:nonzero;fill:rgb(58.823532%,41.960785%,26.274511%);fill-opacity:1;" d="M 56.855469 31.960938 C 56.996094 31.960938 57.140625 31.960938 57.289062 31.960938 C 57.613281 36.425781 57.613281 36.425781 56.214844 37.78125 C 54.136719 39.199219 51.359375 40.53125 48.609375 41.222656 C 47.144531 41.128906 47.144531 41.128906 46.003906 40.921875 C 46.003906 41.121094 46.003906 41.316406 46.003906 41.519531 C 45.429688 41.421875 44.859375 41.324219 44.269531 41.222656 C 44.554688 41.222656 44.839844 41.222656 45.136719 41.222656 C 44.707031 40.628906 44.707031 40.628906 44.269531 40.027344 C 44.484375 39.878906 44.484375 39.878906 44.703125 39.726562 C 44.15625 39.773438 43.613281 39.820312 43.050781 39.871094 C 35.597656 40.429688 28.234375 40.011719 20.832031 39.355469 C 20.476562 39.324219 20.121094 39.292969 19.753906 39.261719 C 14.636719 38.816406 9.957031 38.375 6.074219 35.84375 C 5.933594 36.730469 5.789062 37.617188 5.640625 38.53125 C 5.5 38.53125 5.355469 38.53125 5.207031 38.53125 C 5.207031 36.757812 5.207031 34.984375 5.207031 33.15625 C 5.351562 33.15625 5.496094 33.15625 5.640625 33.15625 C 5.730469 33.46875 5.820312 33.785156 5.914062 34.109375 C 6.449219 35.371094 7.496094 36.070312 9.113281 36.742188 C 12.039062 37.628906 14.941406 37.957031 18.09375 38.269531 C 18.566406 38.320312 19.042969 38.371094 19.53125 38.425781 C 24.667969 38.953125 29.773438 39.1875 34.964844 39.203125 C 35.414062 39.210938 35.859375 39.21875 36.324219 39.222656 C 40.867188 39.238281 45.011719 38.53125 49.152344 37.261719 C 49.445312 37.175781 49.738281 37.085938 50.042969 36.992188 C 52.125 36.335938 53.796875 35.558594 55.429688 34.4375 C 55.703125 34.246094 55.703125 34.246094 55.984375 34.050781 C 56.128906 34.050781 56.273438 34.050781 56.421875 34.050781 C 56.5625 33.363281 56.707031 32.671875 56.855469 31.960938 Z M 56.855469 31.960938 "/>
<path style=" stroke:none;fill-rule:nonzero;fill:rgb(72.941178%,63.137257%,53.725493%);fill-opacity:1;" d="M 167.957031 14.804688 C 168.324219 14.839844 168.691406 14.878906 169.070312 14.917969 C 170.6875 15.402344 171.101562 15.933594 171.863281 17.027344 C 172.105469 18.132812 172.125 19.230469 172.136719 20.347656 C 172.144531 20.933594 172.160156 21.519531 172.179688 22.105469 C 172.183594 22.492188 172.183594 22.492188 172.1875 22.886719 C 172.304688 23.648438 172.609375 24.136719 173.164062 24.792969 C 171.105469 25.128906 171.105469 25.128906 170.128906 24.792969 C 169.855469 23.878906 169.855469 23.878906 169.695312 23 C 169.453125 23.125 169.210938 23.25 168.964844 23.382812 C 168.652344 23.546875 168.335938 23.707031 168.011719 23.878906 C 167.699219 24.039062 167.386719 24.203125 167.066406 24.371094 C 165.445312 25.179688 164.316406 25.183594 162.316406 25.089844 C 161.089844 24.714844 160.375 24.394531 159.550781 23.671875 C 159.128906 22.632812 159.289062 21.945312 159.710938 20.910156 C 161.863281 19.089844 165.175781 18.714844 168.390625 18.222656 C 168.820312 18.222656 169.25 18.222656 169.695312 18.222656 C 169.40625 17.53125 169.121094 16.839844 168.824219 16.128906 C 166.640625 15.828125 165.230469 15.800781 163.183594 16.429688 C 162.597656 16.71875 162.015625 17.015625 161.449219 17.324219 C 161.160156 17.324219 160.875 17.324219 160.578125 17.324219 C 161.234375 16.0625 162.410156 15.589844 164.050781 14.933594 C 165.441406 14.605469 166.515625 14.636719 167.957031 14.804688 Z M 162.179688 20.722656 C 161.324219 21.484375 161.324219 21.484375 161.449219 22.457031 C 161.789062 23.386719 161.789062 23.386719 163.183594 23.894531 C 164.558594 24.066406 165.410156 24.0625 166.601562 23.535156 C 167.984375 22.75 169.023438 22.074219 169.695312 20.910156 C 169.726562 20.210938 169.734375 19.515625 169.695312 18.816406 C 167.242188 18.816406 164.03125 19.605469 162.179688 20.722656 Z M 162.179688 20.722656 "/>
<path style=" stroke:none;fill-rule:nonzero;fill:rgb(91.764706%,88.235295%,85.490197%);fill-opacity:1;" d="M 49.910156 2.390625 C 50.777344 2.988281 50.777344 2.988281 50.863281 3.699219 C 50.851562 3.96875 50.84375 4.238281 50.832031 4.519531 C 50.824219 4.789062 50.816406 5.0625 50.808594 5.339844 C 50.796875 5.550781 50.789062 5.757812 50.777344 5.972656 C 50.636719 5.972656 50.492188 5.972656 50.34375 5.972656 C 50.210938 5.648438 50.074219 5.320312 49.9375 4.984375 C 49.65625 4.316406 49.363281 3.648438 49.042969 2.988281 C 42.175781 2.882812 35.402344 2.972656 28.5625 3.378906 C 28.25 3.398438 27.9375 3.414062 27.617188 3.433594 C 23.242188 3.683594 19.238281 4.167969 15.191406 5.375 C 15.046875 6.066406 14.902344 6.757812 14.757812 7.46875 C 14.328125 7.566406 13.898438 7.664062 13.453125 7.765625 C 13.3125 8.554688 13.167969 9.34375 13.019531 10.15625 C 12.875 10.15625 12.734375 10.15625 12.585938 10.15625 C 12.441406 9.390625 12.320312 8.628906 12.207031 7.859375 C 12.164062 7.644531 12.121094 7.429688 12.078125 7.207031 C 11.992188 6.554688 11.96875 6.019531 12.152344 5.375 C 17.96875 0.921875 42.46875 0.0117188 49.910156 2.390625 Z M 49.910156 2.390625 "/>
<path style=" stroke:none;fill-rule:nonzero;fill:rgb(66.666669%,55.29412%,43.529412%);fill-opacity:1;" d="M 68.464844 15.363281 C 68.984375 15.410156 68.984375 15.410156 69.515625 15.457031 C 69.777344 15.480469 70.039062 15.507812 70.308594 15.53125 C 70.308594 16.125 70.308594 16.714844 70.308594 17.324219 C 68.734375 17.421875 67.15625 17.523438 65.535156 17.625 C 65.015625 18.472656 65.015625 18.472656 64.664062 19.414062 C 65.09375 19.859375 65.09375 19.859375 65.535156 20.3125 C 67.515625 20.421875 69.039062 20.496094 70.742188 19.714844 C 71.199219 20.660156 71.3125 21.46875 71.421875 22.457031 C 71.476562 22.945312 71.476562 22.945312 71.53125 23.441406 C 71.554688 23.691406 71.582031 23.9375 71.609375 24.195312 C 72.039062 24.195312 72.46875 24.195312 72.910156 24.195312 C 73.054688 22.714844 73.199219 21.238281 73.347656 19.714844 C 73.488281 19.714844 73.632812 19.714844 73.78125 19.714844 C 73.792969 20.554688 73.800781 21.394531 73.808594 22.234375 C 73.8125 22.472656 73.8125 22.714844 73.816406 22.960938 C 73.820312 23.570312 73.800781 24.183594 73.78125 24.792969 C 73.347656 25.089844 73.347656 25.089844 72.261719 25.128906 C 71.175781 25.089844 71.175781 25.089844 70.742188 24.792969 C 70.640625 24.339844 70.5625 23.886719 70.496094 23.429688 C 70.441406 23.058594 70.441406 23.058594 70.386719 22.679688 C 70.363281 22.492188 70.335938 22.300781 70.308594 22.105469 C 70.023438 22.203125 69.734375 22.300781 69.441406 22.402344 C 65.53125 22.710938 65.53125 22.710938 63.789062 22.089844 C 62.867188 21.5625 62.164062 21.050781 61.628906 20.3125 C 61.476562 18.714844 61.425781 17.722656 62.929688 16.429688 C 64.6875 15.335938 66.15625 15.152344 68.464844 15.363281 Z M 68.464844 15.363281 "/>
<path style=" stroke:none;fill-rule:nonzero;fill:rgb(63.921571%,51.372552%,37.64706%);fill-opacity:1;" d="M 129.574219 10.734375 C 130.101562 10.742188 130.101562 10.742188 130.632812 10.753906 C 130.632812 11.648438 130.632812 11.648438 129.765625 12.546875 C 129.679688 13.402344 129.644531 14.226562 129.652344 15.085938 C 129.648438 15.332031 129.648438 15.582031 129.648438 15.835938 C 129.648438 16.363281 129.648438 16.886719 129.652344 17.414062 C 129.65625 18.21875 129.652344 19.023438 129.648438 19.828125 C 129.648438 20.335938 129.648438 20.847656 129.652344 21.355469 C 129.648438 21.597656 129.648438 21.839844 129.644531 22.085938 C 129.660156 23.242188 129.679688 23.808594 130.632812 24.792969 C 129.300781 25.0625 128.117188 25.117188 126.726562 25.089844 C 126.726562 24.023438 126.777344 22.953125 126.824219 21.886719 C 126.832031 21.660156 126.84375 21.4375 126.851562 21.207031 C 126.882812 20.492188 126.914062 19.777344 126.945312 19.0625 C 126.964844 18.574219 126.988281 18.089844 127.007812 17.605469 C 127.058594 16.417969 127.109375 15.226562 127.160156 14.039062 C 126.15625 14.886719 125.210938 15.71875 124.402344 16.660156 C 124.144531 16.953125 124.144531 16.953125 123.886719 17.257812 C 123.714844 17.457031 123.542969 17.660156 123.363281 17.867188 C 123.1875 18.074219 123.007812 18.28125 122.824219 18.492188 C 122.386719 19 121.953125 19.507812 121.519531 20.011719 C 121.089844 19.816406 120.660156 19.617188 120.21875 19.414062 C 122.066406 17.40625 123.929688 15.402344 125.804688 13.402344 C 126.019531 13.175781 126.230469 12.949219 126.449219 12.71875 C 126.746094 12.398438 126.746094 12.398438 127.050781 12.078125 C 127.316406 11.789062 127.316406 11.789062 127.589844 11.5 C 128.320312 10.753906 128.320312 10.753906 129.574219 10.734375 Z M 129.574219 10.734375 "/>
<path style=" stroke:none;fill-rule:nonzero;fill:rgb(76.862746%,67.843139%,59.215689%);fill-opacity:1;" d="M 60.761719 12.246094 C 76.800781 12.246094 92.839844 12.246094 109.367188 12.246094 C 109.800781 13.144531 109.800781 13.144531 109.367188 14.039062 C 108.507812 14.039062 107.648438 14.039062 106.765625 14.039062 C 106.769531 14.351562 106.773438 14.667969 106.777344 14.988281 C 106.792969 16.148438 106.804688 17.3125 106.8125 18.472656 C 106.816406 18.976562 106.820312 19.480469 106.828125 19.980469 C 106.839844 20.703125 106.84375 21.425781 106.847656 22.148438 C 106.851562 22.375 106.859375 22.597656 106.863281 22.832031 C 106.863281 23.386719 106.816406 23.941406 106.765625 24.492188 C 106.335938 24.789062 106.335938 24.789062 105.894531 25.089844 C 105.324219 25.089844 104.75 25.089844 104.160156 25.089844 C 104.097656 22.511719 104.28125 19.96875 104.59375 17.398438 C 104.636719 17.046875 104.675781 16.691406 104.71875 16.324219 C 104.820312 15.464844 104.921875 14.601562 105.027344 13.742188 C 106.496094 13.449219 107.445312 13.484375 108.933594 13.742188 C 108.933594 13.347656 108.933594 12.953125 108.933594 12.546875 C 93.035156 12.546875 77.140625 12.546875 60.761719 12.546875 C 60.761719 12.445312 60.761719 12.347656 60.761719 12.246094 Z M 60.761719 12.246094 "/>
<path style=" stroke:none;fill-rule:nonzero;fill:rgb(87.843138%,77.254903%,67.843139%);fill-opacity:1;" d="M 5.207031 33.15625 C 5.351562 33.15625 5.496094 33.15625 5.640625 33.15625 C 5.730469 33.46875 5.820312 33.785156 5.914062 34.109375 C 6.449219 35.371094 7.496094 36.070312 9.113281 36.742188 C 12.039062 37.628906 14.941406 37.957031 18.09375 38.269531 C 18.566406 38.320312 19.042969 38.371094 19.53125 38.425781 C 24.667969 38.953125 29.773438 39.1875 34.964844 39.203125 C 35.414062 39.210938 35.859375 39.21875 36.324219 39.222656 C 40.863281 39.238281 45.011719 38.53125 49.152344 37.261719 C 49.445312 37.175781 49.738281 37.085938 50.039062 36.992188 C 52.363281 36.261719 54.242188 35.351562 55.984375 34.050781 C 55.984375 34.949219 55.984375 34.949219 55.144531 35.65625 C 52.707031 37.214844 49.613281 38.054688 46.574219 38.90625 C 46.164062 39.023438 46.164062 39.023438 45.746094 39.140625 C 38.140625 41.207031 28.742188 40.058594 20.832031 39.355469 C 20.476562 39.324219 20.121094 39.292969 19.753906 39.261719 C 14.640625 38.816406 9.957031 38.375 6.074219 35.84375 C 5.933594 36.730469 5.789062 37.617188 5.640625 38.53125 C 5.5 38.53125 5.355469 38.53125 5.207031 38.53125 C 5.207031 36.757812 5.207031 34.984375 5.207031 33.15625 Z M 5.207031 33.15625 "/>
<path style=" stroke:none;fill-rule:nonzero;fill:rgb(58.039218%,41.568628%,26.274511%);fill-opacity:1;" d="M 141.917969 12.546875 C 142.203125 12.644531 142.492188 12.742188 142.785156 12.84375 C 142.785156 13.4375 142.785156 14.027344 142.785156 14.636719 C 143.933594 14.636719 145.078125 14.636719 146.257812 14.636719 C 146.402344 14.832031 146.542969 15.03125 146.691406 15.234375 C 145.402344 15.429688 144.113281 15.628906 142.785156 15.832031 C 142.773438 16.957031 142.765625 18.082031 142.757812 19.210938 C 142.753906 19.53125 142.75 19.851562 142.746094 20.179688 C 142.746094 20.488281 142.746094 20.792969 142.742188 21.109375 C 142.742188 21.394531 142.738281 21.675781 142.738281 21.96875 C 142.742188 22.742188 142.742188 22.742188 143.21875 23.597656 C 145.050781 23.65625 146.332031 23.539062 147.992188 23 C 147.941406 23.542969 147.941406 23.542969 147.558594 24.195312 C 145.816406 24.976562 144.425781 25.28125 142.351562 25.089844 C 141.46875 24.628906 141.109375 24.277344 140.617188 23.597656 C 140.578125 22.96875 140.570312 22.339844 140.574219 21.710938 C 140.574219 21.335938 140.578125 20.957031 140.578125 20.570312 C 140.582031 20.179688 140.585938 19.785156 140.589844 19.378906 C 140.589844 18.976562 140.59375 18.578125 140.59375 18.175781 C 140.601562 17.195312 140.605469 16.214844 140.617188 15.234375 C 140.042969 15.234375 139.46875 15.234375 138.878906 15.234375 C 139.554688 14.09375 140.632812 13.382812 141.917969 12.546875 Z M 141.917969 12.546875 "/>
<path style=" stroke:none;fill-rule:nonzero;fill:rgb(56.078434%,40.784314%,25.882354%);fill-opacity:1;" d="M 158.410156 15.234375 C 158.125 15.628906 157.835938 16.023438 157.542969 16.429688 C 157.09375 16.402344 157.09375 16.402344 156.636719 16.375 C 156.246094 16.363281 155.855469 16.347656 155.453125 16.335938 C 154.871094 16.308594 154.871094 16.308594 154.277344 16.28125 C 153.144531 16.363281 153.144531 16.363281 152.417969 16.992188 C 151.679688 18.320312 151.726562 19.535156 151.765625 20.945312 C 151.761719 21.351562 151.761719 21.351562 151.761719 21.765625 C 151.738281 23.371094 151.738281 23.371094 152.769531 24.792969 C 152.335938 25.089844 152.335938 25.089844 151.53125 25.121094 C 150.640625 25.109375 149.753906 25.101562 148.863281 25.089844 C 148.863281 24.195312 148.863281 24.195312 149.078125 23.644531 C 149.339844 22.871094 149.34375 22.171875 149.339844 21.378906 C 149.335938 21.074219 149.335938 20.769531 149.335938 20.453125 C 149.332031 20.136719 149.328125 19.816406 149.324219 19.492188 C 149.320312 19.007812 149.320312 19.007812 149.316406 18.511719 C 149.3125 17.71875 149.304688 16.925781 149.296875 16.128906 C 149.007812 16.128906 148.722656 16.128906 148.429688 16.128906 C 148.570312 15.835938 148.714844 15.539062 148.863281 15.234375 C 149.722656 15.136719 150.582031 15.035156 151.464844 14.933594 C 151.609375 15.328125 151.753906 15.722656 151.898438 16.128906 C 152.140625 15.9375 152.382812 15.746094 152.632812 15.550781 C 154.597656 14.34375 156.070312 14.597656 158.410156 15.234375 Z M 158.410156 15.234375 "/>
<path style=" stroke:none;fill-rule:nonzero;fill:rgb(89.803922%,85.09804%,81.568629%);fill-opacity:1;" d="M 41.882812 31.941406 C 42.253906 31.945312 42.625 31.949219 43.007812 31.949219 C 43.28125 31.953125 43.550781 31.957031 43.835938 31.960938 C 39.546875 34.390625 36.140625 35.320312 30.625 35.339844 C 30.28125 35.339844 29.933594 35.34375 29.582031 35.34375 C 27.894531 35.332031 27.039062 35.304688 25.605469 34.648438 C 26.976562 34.371094 28.195312 34.320312 29.621094 34.332031 C 30.007812 34.335938 30.394531 34.335938 30.792969 34.339844 C 31.085938 34.34375 31.378906 34.347656 31.683594 34.351562 C 31.539062 34.054688 31.394531 33.757812 31.246094 33.453125 C 30.769531 33.425781 30.769531 33.425781 30.28125 33.398438 C 29.855469 33.375 29.433594 33.351562 28.996094 33.324219 C 28.371094 33.289062 28.371094 33.289062 27.730469 33.25 C 26.566406 33.164062 25.445312 33.027344 24.304688 32.855469 C 24.304688 32.757812 24.304688 32.660156 24.304688 32.558594 C 24.640625 32.550781 24.976562 32.542969 25.324219 32.535156 C 26.863281 32.5 28.40625 32.464844 29.945312 32.429688 C 30.742188 32.410156 30.742188 32.410156 31.550781 32.390625 C 34.996094 32.308594 38.445312 31.910156 41.882812 31.941406 Z M 41.882812 31.941406 "/>
<path style=" stroke:none;fill-rule:nonzero;fill:rgb(73.333335%,67.058825%,60.784316%);fill-opacity:1;" d="M 52.949219 17.324219 C 48.984375 20.050781 38.371094 20.109375 33.058594 20.109375 C 32.375 20.109375 31.6875 20.101562 31.003906 20.097656 C 29.960938 20.085938 28.921875 20.085938 27.878906 20.082031 C 17.847656 20.050781 17.847656 20.050781 16.492188 19.117188 C 16.90625 19.125 17.324219 19.132812 17.75 19.140625 C 28.484375 19.324219 39.539062 19.261719 50.03125 17.453125 C 51.011719 17.285156 51.941406 17.304688 52.949219 17.324219 Z M 52.949219 17.324219 "/>
<path style=" stroke:none;fill-rule:nonzero;fill:rgb(69.411767%,56.862748%,46.27451%);fill-opacity:1;" d="M 136.277344 14.933594 C 136.285156 15.199219 136.296875 15.464844 136.308594 15.738281 C 136.351562 16.726562 136.394531 17.710938 136.4375 18.699219 C 136.457031 19.125 136.472656 19.550781 136.492188 19.976562 C 136.515625 20.589844 136.542969 21.207031 136.574219 21.820312 C 136.589844 22.1875 136.605469 22.558594 136.621094 22.9375 C 136.691406 23.707031 136.816406 24.355469 137.144531 25.089844 C 136 25.089844 134.851562 25.089844 133.671875 25.089844 C 133.671875 24.125 133.679688 23.15625 133.6875 22.1875 C 133.691406 21.511719 133.695312 20.835938 133.699219 20.164062 C 133.703125 19.820312 133.707031 19.480469 133.710938 19.128906 C 133.710938 18.800781 133.714844 18.472656 133.714844 18.136719 C 133.714844 17.835938 133.71875 17.539062 133.722656 17.230469 C 133.675781 16.515625 133.535156 15.917969 133.238281 15.234375 C 134.539062 14.933594 134.539062 14.933594 136.277344 14.933594 Z M 136.277344 14.933594 "/>
<path style=" stroke:none;fill-rule:nonzero;fill:rgb(69.803923%,58.823532%,48.627451%);fill-opacity:1;" d="M 75.082031 16.726562 C 78.210938 16.582031 78.210938 16.582031 79.828125 17.269531 C 81.289062 18.332031 81.296875 19.367188 81.289062 20.761719 C 81.066406 22.019531 80.277344 23.085938 79.421875 24.195312 C 78.347656 23.898438 78.347656 23.898438 77.253906 23.597656 C 77.253906 22.410156 77.546875 21.484375 77.972656 20.347656 C 78.207031 19.660156 78.207031 19.660156 77.6875 18.816406 C 76.398438 18.671875 76.398438 18.671875 75.082031 18.519531 C 75.082031 18.324219 75.082031 18.125 75.082031 17.921875 C 76.226562 17.921875 77.375 17.921875 78.554688 17.921875 C 77.441406 17.15625 76.609375 17.164062 75.082031 17.027344 C 75.082031 16.925781 75.082031 16.828125 75.082031 16.726562 Z M 75.082031 16.726562 "/>
<path style=" stroke:none;fill-rule:nonzero;fill:rgb(68.235296%,56.470591%,45.490196%);fill-opacity:1;" d="M 64.230469 19.414062 C 64.375 19.5625 64.519531 19.710938 64.664062 19.863281 C 66 20.554688 67.417969 20.445312 69.007812 20.3125 C 70.050781 20.054688 70.050781 20.054688 70.742188 19.714844 C 71.199219 20.660156 71.3125 21.46875 71.421875 22.457031 C 71.476562 22.945312 71.476562 22.945312 71.53125 23.441406 C 71.554688 23.691406 71.582031 23.9375 71.609375 24.195312 C 72.039062 24.195312 72.46875 24.195312 72.910156 24.195312 C 73.054688 22.714844 73.199219 21.238281 73.347656 19.714844 C 73.488281 19.714844 73.632812 19.714844 73.78125 19.714844 C 73.792969 20.554688 73.800781 21.394531 73.808594 22.234375 C 73.8125 22.472656 73.8125 22.714844 73.816406 22.960938 C 73.820312 23.570312 73.800781 24.183594 73.78125 24.792969 C 73.347656 25.089844 73.347656 25.089844 72.261719 25.128906 C 71.175781 25.089844 71.175781 25.089844 70.742188 24.792969 C 70.640625 24.339844 70.5625 23.886719 70.496094 23.429688 C 70.441406 23.058594 70.441406 23.058594 70.386719 22.679688 C 70.363281 22.492188 70.335938 22.300781 70.308594 22.105469 C 69.878906 22.25 69.878906 22.25 69.441406 22.402344 C 65.496094 22.714844 65.496094 22.714844 63.773438 22.070312 C 63.066406 21.65625 63.066406 21.65625 62.0625 20.910156 C 62.207031 20.710938 62.347656 20.515625 62.496094 20.3125 C 62.78125 20.410156 63.070312 20.507812 63.363281 20.609375 C 63.652344 20.214844 63.9375 19.820312 64.230469 19.414062 Z M 64.230469 19.414062 "/>
<path style=" stroke:none;fill-rule:nonzero;fill:rgb(81.176472%,74.901962%,69.411767%);fill-opacity:1;" d="M 110.234375 10.753906 C 111.09375 10.753906 111.953125 10.753906 112.839844 10.753906 C 112.195312 11.195312 112.195312 11.195312 111.539062 11.648438 C 111.671875 11.828125 111.804688 12.007812 111.945312 12.191406 C 112.878906 13.515625 112.898438 14.675781 112.882812 16.113281 C 112.882812 16.34375 112.882812 16.578125 112.878906 16.8125 C 112.878906 17.550781 112.871094 18.285156 112.867188 19.023438 C 112.863281 19.523438 112.863281 20.023438 112.859375 20.523438 C 112.855469 21.746094 112.847656 22.96875 112.839844 24.195312 C 113.269531 24.195312 113.699219 24.195312 114.140625 24.195312 C 114.140625 24.390625 114.140625 24.589844 114.140625 24.792969 C 112.632812 25.136719 111.773438 25.003906 110.234375 24.792969 C 110.445312 24.566406 110.445312 24.566406 110.664062 24.332031 C 111.265625 23.332031 111.214844 22.480469 111.21875 21.398438 C 111.21875 21.1875 111.222656 20.972656 111.222656 20.753906 C 111.222656 20.308594 111.222656 19.859375 111.21875 19.410156 C 111.210938 18.730469 111.21875 18.050781 111.222656 17.371094 C 111.222656 16.933594 111.222656 16.496094 111.21875 16.058594 C 111.222656 15.757812 111.222656 15.757812 111.222656 15.449219 C 111.207031 14.089844 110.8125 12.941406 110.234375 11.648438 C 110.234375 11.355469 110.234375 11.058594 110.234375 10.753906 Z M 110.234375 10.753906 "/>
<path style=" stroke:none;fill-rule:nonzero;fill:rgb(76.078433%,69.803923%,63.921571%);fill-opacity:1;" d="M 7.378906 20.609375 C 8.15625 20.703125 8.933594 20.796875 9.710938 20.890625 C 10.359375 20.96875 10.359375 20.96875 11.023438 21.046875 C 12.152344 21.207031 12.152344 21.207031 13.019531 21.507812 C 21.335938 22.328125 29.804688 22.289062 38.191406 22.402344 C 38.191406 22.5 38.191406 22.601562 38.191406 22.703125 C 31.082031 23.453125 23.53125 23.21875 16.410156 22.625 C 16 22.59375 15.589844 22.5625 15.164062 22.527344 C 12.371094 22.265625 9.945312 21.703125 7.378906 20.910156 C 7.378906 20.808594 7.378906 20.710938 7.378906 20.609375 Z M 7.378906 20.609375 "/>
<path style=" stroke:none;fill-rule:nonzero;fill:rgb(57.647061%,39.215687%,22.745098%);fill-opacity:1;" d="M 97.214844 12.546875 C 101.082031 12.546875 104.949219 12.546875 108.933594 12.546875 C 108.933594 12.941406 108.933594 13.335938 108.933594 13.742188 C 107.789062 13.742188 106.640625 13.742188 105.460938 13.742188 C 105.175781 16.304688 104.890625 18.867188 104.59375 21.507812 C 104.449219 21.507812 104.308594 21.507812 104.160156 21.507812 C 104.015625 18.945312 103.875 16.378906 103.726562 13.742188 C 101.578125 13.640625 99.429688 13.542969 97.214844 13.441406 C 97.214844 13.144531 97.214844 12.851562 97.214844 12.546875 Z M 97.214844 12.546875 "/>
<path style=" stroke:none;fill-rule:nonzero;fill:rgb(73.333335%,65.490198%,58.431375%);fill-opacity:1;" d="M 98.953125 13.742188 C 100.671875 13.742188 102.390625 13.742188 104.160156 13.742188 C 104.160156 17.386719 104.160156 21.035156 104.160156 24.792969 C 104.015625 24.792969 103.875 24.792969 103.726562 24.792969 C 103.726562 21.242188 103.726562 17.695312 103.726562 14.039062 C 102.292969 14.136719 100.863281 14.234375 99.386719 14.335938 C 99.242188 17.789062 99.097656 21.238281 98.953125 24.792969 C 97.878906 24.941406 97.878906 24.941406 96.78125 25.089844 C 96.347656 24.792969 96.347656 24.792969 96.296875 24.15625 C 96.300781 23.882812 96.304688 23.609375 96.304688 23.324219 C 96.308594 23.03125 96.308594 22.734375 96.308594 22.429688 C 96.3125 22.117188 96.316406 21.808594 96.320312 21.488281 C 96.324219 21.175781 96.324219 20.863281 96.328125 20.542969 C 96.332031 19.769531 96.339844 18.996094 96.347656 18.222656 C 95.488281 18.417969 94.628906 18.613281 93.742188 18.816406 C 93.742188 18.523438 93.742188 18.226562 93.742188 17.921875 C 94.746094 17.921875 95.75 17.921875 96.78125 17.921875 C 96.78125 20.089844 96.78125 22.257812 96.78125 24.492188 C 97.425781 24.34375 97.425781 24.34375 98.085938 24.195312 C 98.09375 23.890625 98.105469 23.582031 98.117188 23.265625 C 98.15625 22.136719 98.203125 21.003906 98.246094 19.871094 C 98.265625 19.382812 98.28125 18.890625 98.300781 18.402344 C 98.324219 17.695312 98.351562 16.992188 98.378906 16.289062 C 98.390625 15.957031 98.390625 15.957031 98.402344 15.621094 C 98.46875 14.074219 98.46875 14.074219 98.953125 13.742188 Z M 98.953125 13.742188 "/>
<path style=" stroke:none;fill-rule:nonzero;fill:rgb(65.882355%,53.725493%,43.137255%);fill-opacity:1;" d="M 85.933594 16.429688 C 90.507812 16.320312 90.507812 16.320312 92.441406 17.027344 C 92.726562 17.125 93.015625 17.222656 93.308594 17.324219 C 93.453125 17.421875 93.597656 17.523438 93.742188 17.625 C 93.578125 18.839844 93.363281 19.851562 92.441406 20.910156 C 91.582031 20.710938 90.722656 20.515625 89.839844 20.3125 C 89.839844 19.71875 89.839844 19.128906 89.839844 18.519531 C 88.835938 18.421875 87.832031 18.324219 86.800781 18.222656 C 87.667969 17.625 87.667969 17.625 88.96875 17.027344 C 88.828125 17.125 88.683594 17.222656 88.535156 17.324219 C 87.675781 17.128906 86.816406 16.929688 85.933594 16.726562 C 85.933594 16.628906 85.933594 16.53125 85.933594 16.429688 Z M 85.933594 16.429688 "/>
<path style=" stroke:none;fill-rule:nonzero;fill:rgb(74.901962%,69.01961%,64.313728%);fill-opacity:1;" d="M 49.476562 24.792969 C 49.476562 24.988281 49.476562 25.1875 49.476562 25.390625 C 47.445312 25.746094 45.417969 26.097656 43.382812 26.441406 C 42.71875 26.550781 42.054688 26.667969 41.394531 26.785156 C 35.152344 27.789062 27.09375 28.003906 20.832031 27.183594 C 20.832031 27.082031 20.832031 26.984375 20.832031 26.882812 C 21.148438 26.878906 21.464844 26.875 21.789062 26.871094 C 30.5 26.738281 39.164062 26.460938 47.640625 24.957031 C 48.609375 24.792969 48.609375 24.792969 49.476562 24.792969 Z M 49.476562 24.792969 "/>
<path style=" stroke:none;fill-rule:nonzero;fill:rgb(73.333335%,68.235296%,63.529414%);fill-opacity:1;" d="M 13.886719 10.453125 C 16.769531 10.730469 16.769531 10.730469 18.074219 10.90625 C 19.945312 11.09375 21.789062 11.121094 23.675781 11.144531 C 24.261719 11.15625 24.261719 11.15625 24.863281 11.164062 C 26.105469 11.183594 27.347656 11.203125 28.589844 11.21875 C 29.433594 11.234375 30.28125 11.246094 31.125 11.257812 C 33.191406 11.289062 35.257812 11.320312 37.324219 11.351562 C 37.324219 11.449219 37.324219 11.546875 37.324219 11.648438 C 35.246094 11.929688 33.21875 12 31.105469 12.007812 C 30.59375 12.011719 30.59375 12.011719 30.066406 12.015625 C 29.34375 12.015625 28.625 12.019531 27.902344 12.019531 C 26.808594 12.023438 25.714844 12.03125 24.625 12.042969 C 17.191406 12.074219 17.191406 12.074219 14.320312 11.050781 C 14.179688 10.855469 14.035156 10.65625 13.886719 10.453125 Z M 13.886719 10.453125 "/>
<path style=" stroke:none;fill-rule:nonzero;fill:rgb(64.705884%,51.764709%,40.000001%);fill-opacity:1;" d="M 141.917969 12.546875 C 142.203125 12.644531 142.492188 12.742188 142.785156 12.84375 C 142.785156 13.4375 142.785156 14.027344 142.785156 14.636719 C 143.933594 14.636719 145.078125 14.636719 146.257812 14.636719 C 146.402344 14.832031 146.542969 15.03125 146.691406 15.234375 C 143.898438 15.382812 143.898438 15.382812 141.050781 15.53125 C 141.050781 18.195312 141.050781 20.855469 141.050781 23.597656 C 140.90625 23.597656 140.761719 23.597656 140.617188 23.597656 C 140.617188 20.835938 140.617188 18.078125 140.617188 15.234375 C 140.042969 15.234375 139.46875 15.234375 138.878906 15.234375 C 139.554688 14.09375 140.632812 13.382812 141.917969 12.546875 Z M 141.917969 12.546875 "/>
<path style=" stroke:none;fill-rule:nonzero;fill:rgb(78.039217%,72.549021%,68.627453%);fill-opacity:1;" d="M 14.757812 28.972656 C 15.011719 29.015625 15.265625 29.058594 15.523438 29.101562 C 20.460938 29.804688 25.472656 29.636719 30.488281 29.609375 C 31.449219 29.605469 32.40625 29.601562 33.367188 29.601562 C 35.699219 29.59375 38.03125 29.585938 40.363281 29.570312 C 40.363281 29.671875 40.363281 29.769531 40.363281 29.871094 C 34.558594 30.46875 28.863281 30.558594 23.003906 30.46875 C 22.640625 30.464844 22.277344 30.460938 21.902344 30.453125 C 20.929688 30.441406 19.957031 30.417969 18.988281 30.394531 C 18.179688 30.371094 18.179688 30.371094 17.351562 30.351562 C 15.796875 30.132812 15.609375 29.851562 14.757812 28.972656 Z M 14.757812 28.972656 "/>
<path style=" stroke:none;fill-rule:nonzero;fill:rgb(57.254905%,39.607844%,23.921569%);fill-opacity:1;" d="M 127.597656 14.039062 C 128.027344 14.039062 128.457031 14.039062 128.898438 14.039062 C 128.898438 16.996094 128.898438 19.953125 128.898438 23 C 128.613281 23 128.324219 23 128.03125 23 C 127.886719 23.394531 127.742188 23.789062 127.597656 24.195312 C 127.597656 20.84375 127.597656 17.492188 127.597656 14.039062 Z M 127.597656 14.039062 "/>
<path style=" stroke:none;fill-rule:nonzero;fill:rgb(66.274512%,53.725493%,41.568628%);fill-opacity:1;" d="M 160.144531 20.609375 C 160.574219 20.609375 161.003906 20.609375 161.449219 20.609375 C 161.5 20.800781 161.554688 20.992188 161.605469 21.1875 C 161.679688 21.433594 161.753906 21.679688 161.828125 21.9375 C 161.898438 22.183594 161.96875 22.429688 162.042969 22.679688 C 162.132812 22.886719 162.222656 23.089844 162.316406 23.296875 C 162.601562 23.398438 162.890625 23.496094 163.183594 23.597656 C 163.183594 23.792969 163.183594 23.992188 163.183594 24.195312 C 163.898438 24.195312 164.617188 24.195312 165.355469 24.195312 C 165.355469 24.492188 165.355469 24.785156 165.355469 25.089844 C 163.195312 25.179688 161.863281 25.140625 160.144531 24.195312 C 159.191406 23.359375 159.28125 22.980469 159.414062 21.898438 C 159.710938 20.910156 159.710938 20.910156 160.144531 20.609375 Z M 160.144531 20.609375 "/>
<path style=" stroke:none;fill-rule:nonzero;fill:rgb(76.078433%,69.411767%,63.921571%);fill-opacity:1;" d="M 41.882812 31.941406 C 42.253906 31.945312 42.625 31.949219 43.007812 31.949219 C 43.28125 31.953125 43.550781 31.957031 43.835938 31.960938 C 40.746094 33.820312 35.140625 33.183594 31.246094 33.191406 C 30.59375 33.195312 30.59375 33.195312 29.929688 33.199219 C 29.511719 33.195312 29.097656 33.195312 28.671875 33.195312 C 28.113281 33.195312 28.113281 33.195312 27.546875 33.195312 C 26.429688 33.152344 25.394531 33.027344 24.304688 32.855469 C 24.304688 32.757812 24.304688 32.660156 24.304688 32.558594 C 24.640625 32.550781 24.976562 32.542969 25.324219 32.535156 C 26.863281 32.5 28.40625 32.464844 29.945312 32.429688 C 30.742188 32.410156 30.742188 32.410156 31.550781 32.390625 C 34.996094 32.308594 38.445312 31.910156 41.882812 31.941406 Z M 41.882812 31.941406 "/>
<path style=" stroke:none;fill-rule:nonzero;fill:rgb(68.627453%,56.470591%,45.882353%);fill-opacity:1;" d="M 158.410156 15.234375 C 158.125 15.628906 157.835938 16.023438 157.542969 16.429688 C 157.25 16.410156 156.957031 16.394531 156.652344 16.375 C 155.46875 16.335938 154.378906 16.320312 153.203125 16.429688 C 152.039062 17.113281 152.039062 17.113281 151.464844 17.921875 C 151.269531 17.320312 151.070312 16.714844 150.871094 16.113281 C 150.640625 15.46875 150.640625 15.46875 149.730469 14.933594 C 150.304688 14.933594 150.875 14.933594 151.464844 14.933594 C 151.609375 15.328125 151.753906 15.722656 151.898438 16.128906 C 152.140625 15.9375 152.382812 15.746094 152.632812 15.550781 C 154.597656 14.34375 156.070312 14.597656 158.410156 15.234375 Z M 158.410156 15.234375 "/>
<path style=" stroke:none;fill-rule:nonzero;fill:rgb(57.254905%,39.215687%,22.352941%);fill-opacity:1;" d="M 72.042969 19.414062 C 72.1875 19.613281 72.332031 19.808594 72.476562 20.011719 C 72.765625 20.011719 73.050781 20.011719 73.347656 20.011719 C 73.347656 21.394531 73.347656 22.773438 73.347656 24.195312 C 72.773438 24.292969 72.199219 24.390625 71.609375 24.492188 C 71.175781 24.195312 71.175781 24.195312 71.132812 23.382812 C 71.136719 23.050781 71.144531 22.722656 71.148438 22.382812 C 71.152344 22.054688 71.15625 21.722656 71.160156 21.382812 C 71.164062 21.128906 71.171875 20.875 71.175781 20.609375 C 70.746094 20.511719 70.316406 20.414062 69.875 20.3125 C 70.160156 20.3125 70.445312 20.3125 70.742188 20.3125 C 70.886719 20.113281 71.027344 19.917969 71.175781 19.714844 C 71.460938 19.8125 71.75 19.910156 72.042969 20.011719 C 72.042969 19.816406 72.042969 19.617188 72.042969 19.414062 Z M 72.042969 19.414062 "/>
<path style=" stroke:none;fill-rule:nonzero;fill:rgb(70.588237%,60.000002%,50.588238%);fill-opacity:1;" d="M 56.855469 31.960938 C 56.996094 31.960938 57.140625 31.960938 57.289062 31.960938 C 57.613281 36.46875 57.613281 36.46875 55.550781 38.234375 C 54.359375 38.960938 54.359375 38.960938 53.382812 39.429688 C 53.09375 39.328125 52.808594 39.230469 52.515625 39.128906 C 52.800781 38.734375 53.085938 38.339844 53.382812 37.933594 C 53.667969 38.035156 53.953125 38.132812 54.25 38.234375 C 54.105469 37.742188 53.964844 37.25 53.816406 36.742188 C 54.101562 36.640625 54.390625 36.542969 54.683594 36.441406 C 54.398438 36.34375 54.109375 36.246094 53.816406 36.144531 C 54.683594 35.546875 55.550781 34.949219 56.421875 34.351562 C 56.519531 33.949219 56.597656 33.542969 56.664062 33.136719 C 56.726562 32.75 56.789062 32.359375 56.855469 31.960938 Z M 56.855469 31.960938 "/>
<path style=" stroke:none;fill-rule:nonzero;fill:rgb(67.843139%,56.470591%,45.490196%);fill-opacity:1;" d="M 117.179688 16.128906 C 118.605469 16.964844 119.355469 17.992188 120.21875 19.117188 C 120.21875 19.3125 120.21875 19.511719 120.21875 19.714844 C 120.503906 19.714844 120.789062 19.714844 121.085938 19.714844 C 120.800781 20.207031 120.511719 20.699219 120.21875 21.207031 C 118.574219 20.832031 118.386719 20.445312 117.53125 19.433594 C 117.300781 19.167969 117.074219 18.898438 116.835938 18.625 C 116.3125 17.921875 116.3125 17.921875 116.3125 17.324219 C 116.597656 17.128906 116.886719 16.929688 117.179688 16.726562 C 117.179688 16.53125 117.179688 16.332031 117.179688 16.128906 Z M 117.179688 16.128906 "/>
<path style=" stroke:none;fill-rule:nonzero;fill:rgb(81.568629%,76.078433%,71.372551%);fill-opacity:1;" d="M 127.160156 11.949219 C 127.304688 11.949219 127.449219 11.949219 127.597656 11.949219 C 127.597656 12.636719 127.597656 13.328125 127.597656 14.039062 C 127.308594 14.039062 127.023438 14.039062 126.726562 14.039062 C 126.109375 14.609375 126.109375 14.609375 125.503906 15.347656 C 125.273438 15.617188 125.039062 15.886719 124.800781 16.164062 C 124.4375 16.589844 124.4375 16.589844 124.070312 17.027344 C 123.703125 17.453125 123.703125 17.453125 123.328125 17.890625 C 122.722656 18.597656 122.121094 19.304688 121.519531 20.011719 C 121.089844 19.816406 120.660156 19.617188 120.21875 19.414062 C 121.070312 18.492188 121.921875 17.570312 122.773438 16.652344 C 123.289062 16.09375 123.800781 15.539062 124.3125 14.980469 C 124.664062 14.597656 125.019531 14.214844 125.371094 13.832031 C 125.542969 13.648438 125.714844 13.460938 125.890625 13.269531 C 126.300781 12.824219 126.730469 12.386719 127.160156 11.949219 Z M 127.160156 11.949219 "/>
<path style=" stroke:none;fill-rule:nonzero;fill:rgb(85.882354%,81.960785%,78.039217%);fill-opacity:1;" d="M 169.695312 17.324219 C 169.835938 17.324219 169.980469 17.324219 170.128906 17.324219 C 170.128906 18.308594 170.128906 19.296875 170.128906 20.3125 C 169.984375 20.3125 169.839844 20.3125 169.695312 20.3125 C 169.695312 19.820312 169.695312 19.324219 169.695312 18.816406 C 168.5625 19.09375 167.433594 19.375 166.304688 19.660156 C 165.984375 19.734375 165.664062 19.8125 165.332031 19.894531 C 165.023438 19.972656 164.714844 20.050781 164.394531 20.128906 C 164.113281 20.203125 163.828125 20.273438 163.535156 20.34375 C 162.652344 20.644531 162.105469 21.003906 161.449219 21.507812 C 161.449219 21.210938 161.449219 20.914062 161.449219 20.609375 C 161.160156 20.511719 160.875 20.414062 160.578125 20.3125 C 162.054688 19.421875 163.503906 19.117188 165.382812 18.761719 C 166.179688 18.609375 166.179688 18.609375 166.996094 18.449219 C 168.390625 18.222656 168.390625 18.222656 169.695312 18.222656 C 169.695312 17.925781 169.695312 17.628906 169.695312 17.324219 Z M 169.695312 17.324219 "/>
<path style=" stroke:none;fill-rule:nonzero;fill:rgb(61.960787%,47.843137%,33.725491%);fill-opacity:1;" d="M 64.230469 16.128906 C 64.664062 17.027344 64.664062 17.027344 64.664062 17.625 C 64.238281 17.625 63.808594 17.625 63.363281 17.625 C 63.523438 18 63.6875 18.375 63.851562 18.761719 C 64.125 19.402344 64.125 19.402344 64.230469 20.011719 C 63.800781 20.457031 63.800781 20.457031 63.363281 20.910156 C 62.792969 20.710938 62.21875 20.515625 61.628906 20.3125 C 61.433594 17.6875 61.433594 17.6875 62.929688 16.429688 C 63.359375 16.328125 63.789062 16.230469 64.230469 16.128906 Z M 64.230469 16.128906 "/>
<path style=" stroke:none;fill-rule:nonzero;fill:rgb(68.627453%,56.862748%,46.27451%);fill-opacity:1;" d="M 87.234375 21.507812 C 87.722656 21.785156 88.210938 22.066406 88.699219 22.347656 C 88.96875 22.503906 89.242188 22.660156 89.523438 22.820312 C 90.273438 23.296875 90.273438 23.296875 91.140625 24.195312 C 90.710938 24.492188 90.28125 24.785156 89.839844 25.089844 C 87.664062 24.664062 86.824219 23.902344 85.496094 22.703125 C 86.070312 22.601562 86.644531 22.503906 87.234375 22.402344 C 87.234375 22.105469 87.234375 21.8125 87.234375 21.507812 Z M 87.234375 21.507812 "/>
<path style=" stroke:none;fill-rule:nonzero;fill:rgb(90.196079%,85.882354%,82.352942%);fill-opacity:1;" d="M 21.699219 3.285156 C 21.699219 3.484375 21.699219 3.679688 21.699219 3.882812 C 21.410156 3.941406 21.125 4 20.828125 4.058594 C 18.90625 4.449219 17.042969 4.859375 15.191406 5.375 C 14.902344 5.375 14.617188 5.375 14.320312 5.375 C 14.464844 4.882812 14.609375 4.390625 14.757812 3.882812 C 17.097656 3.203125 19.210938 3.226562 21.699219 3.285156 Z M 21.699219 3.285156 "/>
<path style=" stroke:none;fill-rule:nonzero;fill:rgb(68.235296%,57.254905%,47.450981%);fill-opacity:1;" d="M 142.351562 22.703125 C 142.636719 22.996094 142.925781 23.292969 143.21875 23.597656 C 145.042969 23.738281 146.34375 23.535156 147.992188 23 C 147.941406 23.542969 147.941406 23.542969 147.558594 24.195312 C 145.816406 24.976562 144.425781 25.28125 142.351562 25.089844 C 141.539062 24.679688 141.539062 24.679688 141.050781 24.195312 C 141.050781 23.597656 141.050781 23.597656 141.699219 23.113281 C 141.914062 22.976562 142.128906 22.839844 142.351562 22.703125 Z M 142.351562 22.703125 "/>
<path style=" stroke:none;fill-rule:nonzero;fill:rgb(73.333335%,64.313728%,56.862748%);fill-opacity:1;" d="M 168.066406 14.917969 C 168.648438 15.003906 168.648438 15.003906 169.238281 15.09375 C 169.53125 15.140625 169.824219 15.1875 170.128906 15.234375 C 169.261719 15.832031 169.261719 15.832031 167.957031 16.128906 C 167.625 16.074219 167.296875 16.019531 166.953125 15.960938 C 165.445312 15.792969 164.582031 16.019531 163.183594 16.429688 C 162.597656 16.71875 162.015625 17.015625 161.449219 17.324219 C 161.160156 17.324219 160.875 17.324219 160.578125 17.324219 C 161.234375 16.0625 162.410156 15.589844 164.050781 14.933594 C 165.515625 14.574219 166.5625 14.683594 168.066406 14.917969 Z M 168.066406 14.917969 "/>
<path style=" stroke:none;fill-rule:nonzero;fill:rgb(81.176472%,74.117649%,67.450982%);fill-opacity:1;" d="M 127.160156 16.429688 C 127.304688 16.429688 127.449219 16.429688 127.597656 16.429688 C 127.738281 18.597656 127.882812 20.765625 128.03125 23 C 128.316406 23 128.601562 23 128.898438 23 C 129.5 23.585938 130.082031 24.183594 130.632812 24.792969 C 129.300781 25.0625 128.117188 25.117188 126.726562 25.089844 C 126.726562 24.195312 126.773438 23.304688 126.824219 22.410156 C 126.84375 22.0625 126.863281 21.714844 126.882812 21.355469 C 126.902344 20.992188 126.921875 20.628906 126.945312 20.253906 C 126.964844 19.890625 126.988281 19.523438 127.007812 19.144531 C 127.058594 18.238281 127.109375 17.335938 127.160156 16.429688 Z M 127.160156 16.429688 "/>
<path style=" stroke:none;fill-rule:nonzero;fill:rgb(62.7451%,48.627451%,34.509805%);fill-opacity:1;" d="M 45.136719 39.726562 C 45.136719 40.226562 45.136719 40.722656 45.136719 41.222656 C 45.421875 41.320312 45.707031 41.417969 46.003906 41.519531 C 46.003906 41.324219 46.003906 41.125 46.003906 40.921875 C 46.433594 40.921875 46.863281 40.921875 47.304688 40.921875 C 47.304688 41.121094 47.304688 41.316406 47.304688 41.519531 C 46.757812 41.679688 46.203125 41.832031 45.652344 41.984375 C 45.34375 42.074219 45.035156 42.160156 44.71875 42.25 C 43.835938 42.414062 43.835938 42.414062 42.53125 42.117188 C 42.820312 42.117188 43.105469 42.117188 43.398438 42.117188 C 43.398438 41.917969 43.398438 41.722656 43.398438 41.519531 C 43.113281 41.519531 42.828125 41.519531 42.53125 41.519531 C 42.390625 41.027344 42.246094 40.535156 42.097656 40.027344 C 41.667969 39.925781 41.238281 39.828125 40.796875 39.726562 C 42.386719 39.503906 43.582031 39.359375 45.136719 39.726562 Z M 45.136719 39.726562 "/>
<path style=" stroke:none;fill-rule:nonzero;fill:rgb(74.901962%,65.882355%,58.431375%);fill-opacity:1;" d="M 75.082031 16.726562 C 78.210938 16.582031 78.210938 16.582031 79.828125 17.269531 C 81.128906 18.21875 81.210938 18.964844 81.183594 20.21875 C 81.179688 20.460938 81.175781 20.703125 81.171875 20.949219 C 81.167969 21.132812 81.164062 21.316406 81.15625 21.507812 C 81.015625 21.507812 80.871094 21.507812 80.722656 21.507812 C 80.582031 20.71875 80.4375 19.929688 80.289062 19.117188 C 79.859375 19.019531 79.429688 18.917969 78.988281 18.816406 C 78.558594 19.261719 78.558594 19.261719 78.121094 19.714844 C 77.976562 19.417969 77.832031 19.121094 77.6875 18.816406 C 76.398438 18.671875 76.398438 18.671875 75.082031 18.519531 C 75.082031 18.324219 75.082031 18.125 75.082031 17.921875 C 76.226562 17.921875 77.375 17.921875 78.554688 17.921875 C 77.441406 17.15625 76.609375 17.164062 75.082031 17.027344 C 75.082031 16.925781 75.082031 16.828125 75.082031 16.726562 Z M 75.082031 16.726562 "/>
<path style=" stroke:none;fill-rule:nonzero;fill:rgb(57.254905%,40.392157%,23.529412%);fill-opacity:1;" d="M 170.128906 17.027344 C 170.558594 17.125 170.988281 17.222656 171.429688 17.324219 C 171.429688 19.097656 171.429688 20.875 171.429688 22.703125 C 171 22.601562 170.570312 22.503906 170.128906 22.402344 C 169.59375 20.5625 169.8125 18.882812 170.128906 17.027344 Z M 170.128906 17.027344 "/>
<path style=" stroke:none;fill-rule:nonzero;fill:rgb(57.254905%,40.392157%,22.745098%);fill-opacity:1;" d="M 79.855469 18.222656 C 81.019531 19.421875 80.792969 20.085938 80.722656 21.507812 C 80.292969 21.507812 79.863281 21.507812 79.421875 21.507812 C 79.421875 21.800781 79.421875 22.097656 79.421875 22.402344 C 79.136719 22.402344 78.847656 22.402344 78.554688 22.402344 C 78.519531 21.816406 78.492188 21.234375 78.472656 20.648438 C 78.457031 20.320312 78.441406 19.996094 78.425781 19.660156 C 78.46875 19.382812 78.511719 19.105469 78.554688 18.816406 C 78.984375 18.621094 79.414062 18.425781 79.855469 18.222656 Z M 79.855469 18.222656 "/>
<path style=" stroke:none;fill-rule:nonzero;fill:rgb(74.901962%,66.274512%,58.431375%);fill-opacity:1;" d="M 169.261719 20.910156 C 169.546875 20.910156 169.832031 20.910156 170.128906 20.910156 C 170.128906 21.597656 170.128906 22.289062 170.128906 23 C 169.886719 23.074219 169.644531 23.148438 169.394531 23.222656 C 168.324219 23.59375 168.324219 23.59375 167.253906 24.230469 C 166.222656 24.792969 166.222656 24.792969 165.355469 24.792969 C 165.355469 24.59375 165.355469 24.398438 165.355469 24.195312 C 164.636719 24.195312 163.921875 24.195312 163.183594 24.195312 C 163.183594 24.097656 163.183594 23.996094 163.183594 23.894531 C 163.710938 23.835938 164.242188 23.773438 164.785156 23.710938 C 166.886719 23.355469 167.617188 22.714844 168.824219 21.507812 C 168.96875 21.308594 169.113281 21.113281 169.261719 20.910156 Z M 169.261719 20.910156 "/>
<path style=" stroke:none;fill-rule:nonzero;fill:rgb(57.254905%,39.607844%,22.745098%);fill-opacity:1;" d="M 54.683594 36.144531 C 54.683594 36.925781 54.546875 37.488281 54.25 38.234375 C 53.964844 38.234375 53.675781 38.234375 53.382812 38.234375 C 53.09375 38.628906 52.808594 39.023438 52.515625 39.429688 C 52.085938 39.328125 51.65625 39.230469 51.210938 39.128906 C 51.070312 38.636719 50.925781 38.144531 50.777344 37.636719 C 53.21875 36.480469 53.21875 36.480469 54.683594 36.144531 Z M 54.683594 36.144531 "/>
<path style=" stroke:none;fill-rule:nonzero;fill:rgb(90.980393%,82.745099%,75.294119%);fill-opacity:1;" d="M 27.046875 34.34375 C 27.695312 34.367188 27.695312 34.367188 28.359375 34.386719 C 28.828125 34.402344 29.296875 34.414062 29.78125 34.429688 C 30.273438 34.449219 30.765625 34.464844 31.273438 34.480469 C 32.015625 34.503906 32.015625 34.503906 32.773438 34.527344 C 34 34.566406 35.230469 34.609375 36.457031 34.648438 C 35.210938 35.132812 34.3125 35.324219 32.886719 35.324219 C 32.546875 35.328125 32.207031 35.328125 31.855469 35.328125 C 31.324219 35.324219 31.324219 35.324219 30.785156 35.320312 C 30.433594 35.324219 30.078125 35.324219 29.714844 35.328125 C 29.375 35.328125 29.035156 35.328125 28.683594 35.324219 C 28.375 35.324219 28.0625 35.324219 27.746094 35.324219 C 26.90625 35.246094 26.90625 35.246094 25.605469 34.648438 C 26.039062 34.351562 26.039062 34.351562 27.046875 34.34375 Z M 27.046875 34.34375 "/>
<path style=" stroke:none;fill-rule:nonzero;fill:rgb(80.392158%,74.901962%,70.19608%);fill-opacity:1;" d="M 151.03125 17.921875 C 151.175781 17.921875 151.320312 17.921875 151.464844 17.921875 C 151.472656 18.097656 151.484375 18.273438 151.492188 18.457031 C 151.535156 19.253906 151.582031 20.054688 151.628906 20.851562 C 151.640625 21.128906 151.65625 21.40625 151.667969 21.695312 C 151.6875 21.960938 151.703125 22.226562 151.71875 22.5 C 151.734375 22.746094 151.746094 22.992188 151.761719 23.246094 C 151.847656 23.984375 151.847656 23.984375 152.769531 24.792969 C 152.335938 25.089844 152.335938 25.089844 151.53125 25.121094 C 150.640625 25.109375 149.753906 25.101562 148.863281 25.089844 C 148.863281 24.164062 149.097656 23.789062 149.730469 23 C 149.730469 23.492188 149.730469 23.984375 149.730469 24.492188 C 150.160156 24.59375 150.589844 24.691406 151.03125 24.792969 C 151.03125 22.523438 151.03125 20.257812 151.03125 17.921875 Z M 151.03125 17.921875 "/>
<path style=" stroke:none;fill-rule:nonzero;fill:rgb(57.647061%,39.215687%,22.352941%);fill-opacity:1;" d="M 8.679688 37.933594 C 9.394531 37.933594 10.113281 37.933594 10.851562 37.933594 C 10.851562 38.132812 10.851562 38.328125 10.851562 38.53125 C 11.136719 38.632812 11.421875 38.730469 11.71875 38.832031 C 11.285156 39.726562 11.285156 39.726562 9.980469 40.324219 C 9.550781 40.324219 9.121094 40.324219 8.679688 40.324219 C 8.679688 40.027344 8.679688 39.734375 8.679688 39.429688 C 8.394531 39.328125 8.105469 39.230469 7.8125 39.128906 C 8.097656 38.734375 8.386719 38.339844 8.679688 37.933594 Z M 8.679688 37.933594 "/>
<path style=" stroke:none;fill-rule:nonzero;fill:rgb(75.686276%,66.274512%,58.039218%);fill-opacity:1;" d="M 85.933594 16.429688 C 86.636719 16.414062 87.34375 16.402344 88.046875 16.390625 C 88.441406 16.382812 88.832031 16.378906 89.238281 16.371094 C 90.273438 16.429688 90.273438 16.429688 91.140625 17.027344 C 91.003906 17.53125 91.003906 17.53125 90.707031 18.222656 C 90.554688 18.917969 90.410156 19.613281 90.273438 20.3125 C 89.839844 19.414062 89.839844 19.414062 89.839844 18.519531 C 88.835938 18.421875 87.832031 18.324219 86.800781 18.222656 C 87.667969 17.625 87.667969 17.625 88.96875 17.027344 C 88.828125 17.125 88.683594 17.222656 88.535156 17.324219 C 87.675781 17.128906 86.816406 16.929688 85.933594 16.726562 C 85.933594 16.628906 85.933594 16.53125 85.933594 16.429688 Z M 85.933594 16.429688 "/>
<path style=" stroke:none;fill-rule:nonzero;fill:rgb(56.470591%,42.352942%,29.411766%);fill-opacity:1;" d="M 23.4375 34.351562 C 23.925781 34.449219 24.417969 34.546875 24.925781 34.644531 C 26.925781 34.988281 28.8125 35.027344 30.867188 35.003906 C 31.371094 35.003906 31.371094 35.003906 31.882812 35.003906 C 33.742188 34.992188 35.496094 34.902344 37.324219 34.648438 C 37.179688 34.847656 37.039062 35.042969 36.890625 35.246094 C 34.984375 35.683594 33.132812 35.601562 31.140625 35.601562 C 30.734375 35.605469 30.332031 35.609375 29.917969 35.613281 C 27.582031 35.617188 25.644531 35.480469 23.4375 34.949219 C 23.4375 34.75 23.4375 34.554688 23.4375 34.351562 Z M 23.4375 34.351562 "/>
<path style=" stroke:none;fill-rule:nonzero;fill:rgb(87.058824%,83.529413%,80.392158%);fill-opacity:1;" d="M 73.347656 19.714844 C 73.488281 19.714844 73.632812 19.714844 73.78125 19.714844 C 73.792969 20.554688 73.800781 21.394531 73.808594 22.234375 C 73.8125 22.472656 73.8125 22.714844 73.816406 22.960938 C 73.820312 23.570312 73.800781 24.183594 73.78125 24.792969 C 73.347656 25.089844 73.347656 25.089844 72.261719 25.128906 C 71.175781 25.089844 71.175781 25.089844 70.742188 24.792969 C 70.640625 24.238281 70.5625 23.6875 70.496094 23.128906 C 70.441406 22.675781 70.441406 22.675781 70.386719 22.214844 C 70.363281 21.980469 70.335938 21.746094 70.308594 21.507812 C 70.59375 21.507812 70.882812 21.507812 71.175781 21.507812 C 71.320312 22.394531 71.460938 23.28125 71.609375 24.195312 C 72.039062 24.195312 72.46875 24.195312 72.910156 24.195312 C 73.054688 22.714844 73.199219 21.238281 73.347656 19.714844 Z M 73.347656 19.714844 "/>
<path style=" stroke:none;fill-rule:nonzero;fill:rgb(64.313728%,49.803922%,36.470589%);fill-opacity:1;" d="M 148.863281 15.234375 C 149.578125 15.332031 150.292969 15.429688 151.03125 15.53125 C 151.175781 16.320312 151.320312 17.109375 151.464844 17.921875 C 151.035156 18.070312 151.035156 18.070312 150.597656 18.222656 C 149.945312 17.847656 149.945312 17.847656 149.296875 17.324219 C 149.296875 16.929688 149.296875 16.535156 149.296875 16.128906 C 149.007812 16.128906 148.722656 16.128906 148.429688 16.128906 C 148.570312 15.835938 148.714844 15.539062 148.863281 15.234375 Z M 148.863281 15.234375 "/>
<path style=" stroke:none;fill-rule:nonzero;fill:rgb(76.862746%,69.803923%,62.7451%);fill-opacity:1;" d="M 139.746094 14.039062 C 140.390625 14.363281 140.390625 14.363281 141.050781 14.933594 C 141.199219 15.832031 141.199219 15.832031 141.175781 16.917969 C 141.171875 17.304688 141.167969 17.691406 141.164062 18.09375 C 141.152344 18.503906 141.140625 18.914062 141.132812 19.320312 C 141.125 19.734375 141.117188 20.148438 141.113281 20.5625 C 141.097656 21.574219 141.078125 22.585938 141.050781 23.597656 C 140.90625 23.597656 140.761719 23.597656 140.617188 23.597656 C 140.617188 20.835938 140.617188 18.078125 140.617188 15.234375 C 140.042969 15.234375 139.46875 15.234375 138.878906 15.234375 C 139.167969 14.839844 139.453125 14.445312 139.746094 14.039062 Z M 139.746094 14.039062 "/>
<path style=" stroke:none;fill-rule:nonzero;fill:rgb(61.176473%,45.490196%,30.980393%);fill-opacity:1;" d="M 113.273438 11.050781 C 113.558594 11.9375 113.847656 12.828125 114.140625 13.742188 C 113.710938 13.742188 113.28125 13.742188 112.839844 13.742188 C 112.554688 13.542969 112.265625 13.347656 111.972656 13.144531 C 111.828125 13.144531 111.6875 13.144531 111.539062 13.144531 C 111.394531 12.550781 111.25 11.960938 111.105469 11.351562 C 111.972656 11.050781 111.972656 11.050781 113.273438 11.050781 Z M 113.273438 11.050781 "/>
<path style=" stroke:none;fill-rule:nonzero;fill:rgb(57.647061%,39.215687%,22.745098%);fill-opacity:1;" d="M 65.101562 15.832031 C 66.675781 15.832031 68.25 15.832031 69.875 15.832031 C 69.875 16.226562 69.875 16.621094 69.875 17.027344 C 68.296875 16.925781 66.722656 16.828125 65.101562 16.726562 C 65.101562 16.429688 65.101562 16.136719 65.101562 15.832031 Z M 65.101562 15.832031 "/>
<path style=" stroke:none;fill-rule:nonzero;fill:rgb(64.313728%,51.764709%,40.392157%);fill-opacity:1;" d="M 170.128906 22.402344 C 170.558594 22.5 170.988281 22.601562 171.429688 22.703125 C 171.429688 22.996094 171.429688 23.292969 171.429688 23.597656 C 171.714844 23.597656 172.003906 23.597656 172.296875 23.597656 C 172.585938 23.992188 172.871094 24.386719 173.164062 24.792969 C 171.105469 25.128906 171.105469 25.128906 170.128906 24.792969 C 170.128906 24.003906 170.128906 23.214844 170.128906 22.402344 Z M 170.128906 22.402344 "/>
<path style=" stroke:none;fill-rule:nonzero;fill:rgb(61.176473%,44.705883%,30.19608%);fill-opacity:1;" d="M 85.0625 20.3125 C 85.492188 20.3125 85.921875 20.3125 86.367188 20.3125 C 86.796875 21 87.226562 21.691406 87.667969 22.402344 C 87.238281 22.601562 86.808594 22.796875 86.367188 23 C 85.714844 22.664062 85.714844 22.664062 85.0625 22.105469 C 84.984375 21.152344 84.984375 21.152344 85.0625 20.3125 Z M 85.0625 20.3125 "/>
<path style=" stroke:none;fill-rule:nonzero;fill:rgb(58.039218%,40.392157%,23.529412%);fill-opacity:1;" d="M 65.535156 20.910156 C 68.464844 20.871094 68.464844 20.871094 69.441406 21.207031 C 69.441406 21.503906 69.441406 21.800781 69.441406 22.105469 C 68.007812 22.105469 66.574219 22.105469 65.101562 22.105469 C 65.242188 21.710938 65.386719 21.316406 65.535156 20.910156 Z M 65.535156 20.910156 "/>
<path style=" stroke:none;fill-rule:nonzero;fill:rgb(67.058825%,56.470591%,46.666667%);fill-opacity:1;" d="M 51.210938 29.273438 C 52.566406 29.421875 52.566406 29.421875 53.382812 29.570312 C 53.382812 29.671875 53.382812 29.769531 53.382812 29.871094 C 52.378906 29.96875 51.375 30.066406 50.34375 30.167969 C 50.34375 29.972656 50.34375 29.773438 50.34375 29.570312 C 48.566406 30.066406 47.050781 30.507812 45.570312 31.363281 C 45.285156 31.265625 44.996094 31.167969 44.703125 31.066406 C 46.488281 29.097656 47.957031 29.011719 51.210938 29.273438 Z M 51.210938 29.273438 "/>
<path style=" stroke:none;fill-rule:nonzero;fill:rgb(58.431375%,39.215687%,22.745098%);fill-opacity:1;" d="M 87.015625 16.707031 C 87.554688 16.71875 87.554688 16.71875 88.101562 16.726562 C 88.246094 16.726562 88.386719 16.726562 88.535156 16.726562 C 88.964844 16.824219 89.394531 16.925781 89.839844 17.027344 C 89.402344 17.625 89.402344 17.625 88.183594 17.960938 C 86.800781 18.222656 86.800781 18.222656 85.0625 18.222656 C 85.550781 16.734375 85.550781 16.734375 87.015625 16.707031 Z M 87.015625 16.707031 "/>
<path style=" stroke:none;fill-rule:nonzero;fill:rgb(72.941178%,62.352943%,52.156866%);fill-opacity:1;" d="M 70.308594 19.714844 C 71.175781 20.609375 71.175781 20.609375 71.175781 21.507812 C 70.890625 21.507812 70.601562 21.507812 70.308594 21.507812 C 70.308594 21.703125 70.308594 21.902344 70.308594 22.105469 C 70.023438 22.105469 69.734375 22.105469 69.441406 22.105469 C 69.441406 21.808594 69.441406 21.511719 69.441406 21.207031 C 68.152344 21.109375 66.863281 21.011719 65.535156 20.910156 C 65.535156 20.808594 65.535156 20.710938 65.535156 20.609375 C 66.828125 20.523438 66.828125 20.523438 68.121094 20.433594 C 69.136719 20.332031 69.136719 20.332031 70.308594 19.714844 Z M 70.308594 19.714844 "/>
<path style=" stroke:none;fill-rule:nonzero;fill:rgb(63.921571%,49.019608%,34.901962%);fill-opacity:1;" d="M 49.910156 37.636719 C 50.339844 37.734375 50.769531 37.832031 51.210938 37.933594 C 51.210938 38.328125 51.210938 38.722656 51.210938 39.128906 C 51.640625 39.226562 52.070312 39.328125 52.515625 39.429688 C 51.796875 39.824219 51.082031 40.21875 50.34375 40.625 C 50.058594 40.523438 49.769531 40.425781 49.476562 40.324219 C 49.621094 39.4375 49.761719 38.550781 49.910156 37.636719 Z M 49.910156 37.636719 "/>
<path style=" stroke:none;fill-rule:nonzero;fill:rgb(67.450982%,55.29412%,43.529412%);fill-opacity:1;" d="M 53.816406 36.742188 C 55.105469 36.886719 55.105469 36.886719 56.421875 37.039062 C 55.328125 38.320312 54.628906 39.023438 52.515625 39.429688 C 52.65625 38.9375 52.800781 38.441406 52.949219 37.933594 C 53.378906 38.035156 53.808594 38.132812 54.25 38.234375 C 54.105469 37.742188 53.964844 37.25 53.816406 36.742188 Z M 53.816406 36.742188 "/>
<path style=" stroke:none;fill-rule:nonzero;fill:rgb(68.235296%,57.647061%,46.27451%);fill-opacity:1;" d="M 83.328125 18.222656 C 83.472656 18.222656 83.613281 18.222656 83.761719 18.222656 C 83.761719 18.714844 83.761719 19.207031 83.761719 19.714844 C 84.191406 19.8125 84.621094 19.910156 85.0625 20.011719 C 85.207031 20.898438 85.351562 21.789062 85.496094 22.703125 C 83.351562 21.273438 83.351562 21.273438 83.285156 20.261719 C 83.289062 20.019531 83.296875 19.777344 83.300781 19.527344 C 83.304688 19.285156 83.308594 19.039062 83.3125 18.789062 C 83.316406 18.601562 83.324219 18.414062 83.328125 18.222656 Z M 83.328125 18.222656 "/>
<path style=" stroke:none;fill-rule:nonzero;fill:rgb(69.803923%,60.000002%,51.372552%);fill-opacity:1;" d="M 136.277344 11.648438 C 136.277344 12.140625 136.277344 12.636719 136.277344 13.144531 C 135.558594 13.144531 134.84375 13.144531 134.105469 13.144531 C 133.960938 12.648438 133.820312 12.15625 133.671875 11.648438 C 134.753906 11.277344 135.152344 11.417969 136.277344 11.648438 Z M 136.277344 11.648438 "/>
<path style=" stroke:none;fill-rule:nonzero;fill:rgb(67.843139%,58.823532%,50.588238%);fill-opacity:1;" d="M 111.539062 22.402344 C 112.839844 23.523438 112.839844 23.523438 112.839844 24.195312 C 113.269531 24.195312 113.699219 24.195312 114.140625 24.195312 C 114.140625 24.390625 114.140625 24.589844 114.140625 24.792969 C 112.632812 25.136719 111.773438 25.003906 110.234375 24.792969 C 110.664062 24.003906 111.09375 23.214844 111.539062 22.402344 Z M 111.539062 22.402344 "/>
<path style=" stroke:none;fill-rule:nonzero;fill:rgb(58.823532%,39.607844%,21.960784%);fill-opacity:1;" d="M 90.707031 17.027344 C 91.789062 17.714844 91.789062 17.714844 92.875 18.519531 C 92.875 18.816406 92.875 19.109375 92.875 19.414062 C 92.160156 19.515625 91.445312 19.613281 90.707031 19.714844 C 90.417969 18.925781 90.132812 18.136719 89.839844 17.324219 C 90.125 17.226562 90.410156 17.128906 90.707031 17.027344 Z M 90.707031 17.027344 "/>
<path style=" stroke:none;fill-rule:nonzero;fill:rgb(82.745099%,77.64706%,72.941178%);fill-opacity:1;" d="M 68.464844 15.347656 C 68.808594 15.378906 69.15625 15.410156 69.515625 15.445312 C 69.90625 15.488281 69.90625 15.488281 70.308594 15.53125 C 70.308594 16.125 70.308594 16.714844 70.308594 17.324219 C 69.019531 17.324219 67.730469 17.324219 66.402344 17.324219 C 66.402344 17.226562 66.402344 17.128906 66.402344 17.027344 C 67.546875 17.027344 68.695312 17.027344 69.875 17.027344 C 69.875 16.632812 69.875 16.238281 69.875 15.832031 C 69.5 15.886719 69.121094 15.941406 68.734375 16 C 67.246094 16.132812 66.125 16.046875 64.664062 15.832031 C 66.042969 15.261719 66.882812 15.1875 68.464844 15.347656 Z M 68.464844 15.347656 "/>
<path style=" stroke:none;fill-rule:nonzero;fill:rgb(58.039218%,43.529412%,30.19608%);fill-opacity:1;" d="M 44.269531 31.363281 C 44.410156 31.5625 44.554688 31.757812 44.703125 31.960938 C 43.109375 33.15625 41.632812 33.953125 39.492188 34.648438 C 38.53125 34.53125 38.53125 34.53125 37.757812 34.351562 C 37.988281 34.273438 38.21875 34.199219 38.457031 34.121094 C 40.085938 33.574219 41.527344 33.023438 42.964844 32.257812 C 43.253906 32.257812 43.539062 32.257812 43.835938 32.257812 C 43.976562 31.964844 44.121094 31.667969 44.269531 31.363281 Z M 44.269531 31.363281 "/>
<path style=" stroke:none;fill-rule:nonzero;fill:rgb(92.941177%,90.588236%,89.019608%);fill-opacity:1;" d="M 48.609375 2.089844 C 50.289062 2.652344 50.289062 2.652344 50.777344 2.988281 C 50.808594 3.492188 50.8125 3.996094 50.804688 4.5 C 50.800781 4.773438 50.796875 5.046875 50.792969 5.332031 C 50.789062 5.542969 50.78125 5.753906 50.777344 5.972656 C 50.636719 5.972656 50.492188 5.972656 50.34375 5.972656 C 50.210938 5.648438 50.074219 5.320312 49.9375 4.984375 C 49.65625 4.316406 49.363281 3.648438 49.042969 2.988281 C 48.753906 2.988281 48.46875 2.988281 48.175781 2.988281 C 48.316406 2.691406 48.460938 2.394531 48.609375 2.089844 Z M 48.609375 2.089844 "/>
<path style=" stroke:none;fill-rule:nonzero;fill:rgb(74.117649%,69.411767%,64.705884%);fill-opacity:1;" d="M 7.378906 20.609375 C 12.378906 21.1875 12.378906 21.1875 14.757812 21.804688 C 14.757812 21.902344 14.757812 22.003906 14.757812 22.105469 C 11.953125 22.273438 9.914062 21.695312 7.378906 20.910156 C 7.378906 20.808594 7.378906 20.710938 7.378906 20.609375 Z M 7.378906 20.609375 "/>
<path style=" stroke:none;fill-rule:nonzero;fill:rgb(83.529413%,78.431374%,74.117649%);fill-opacity:1;" d="M 149.730469 14.933594 C 150.304688 14.933594 150.875 14.933594 151.464844 14.933594 C 151.609375 15.328125 151.753906 15.722656 151.898438 16.128906 C 152.328125 15.933594 152.757812 15.734375 153.203125 15.53125 C 153.488281 15.730469 153.773438 15.925781 154.070312 16.128906 C 153.800781 16.257812 153.53125 16.386719 153.257812 16.523438 C 152.238281 17.023438 152.238281 17.023438 151.464844 17.921875 C 151.269531 17.320312 151.070312 16.714844 150.871094 16.113281 C 150.640625 15.46875 150.640625 15.46875 149.730469 14.933594 Z M 149.730469 14.933594 "/>
<path style=" stroke:none;fill-rule:nonzero;fill:rgb(69.01961%,56.862748%,45.882353%);fill-opacity:1;" d="M 8.246094 38.234375 C 8.390625 38.921875 8.53125 39.613281 8.679688 40.324219 C 6.648438 39.882812 6.648438 39.882812 5.941406 39.09375 C 5.84375 38.90625 5.742188 38.722656 5.640625 38.53125 C 6.542969 38.367188 7.308594 38.234375 8.246094 38.234375 Z M 8.246094 38.234375 "/>
<path style=" stroke:none;fill-rule:nonzero;fill:rgb(64.313728%,52.156866%,40.784314%);fill-opacity:1;" d="M 161.882812 23.894531 C 163.050781 23.949219 164.195312 24.082031 165.355469 24.195312 C 165.355469 24.492188 165.355469 24.785156 165.355469 25.089844 C 163.890625 25.148438 163.890625 25.148438 162.316406 25.089844 C 162.03125 24.796875 161.742188 24.5 161.449219 24.195312 C 161.589844 24.097656 161.734375 23.996094 161.882812 23.894531 Z M 161.882812 23.894531 "/>
<path style=" stroke:none;fill-rule:nonzero;fill:rgb(83.529413%,78.431374%,74.117649%);fill-opacity:1;" d="M 147.992188 23 C 147.941406 23.558594 147.941406 23.558594 147.558594 24.195312 C 146.230469 24.566406 146.230469 24.566406 144.957031 24.792969 C 144.527344 24.496094 144.097656 24.199219 143.652344 23.894531 C 144.066406 23.804688 144.476562 23.710938 144.902344 23.617188 C 147.535156 23 147.535156 23 147.992188 23 Z M 147.992188 23 "/>
<path style=" stroke:none;fill-rule:nonzero;fill:rgb(77.254903%,71.372551%,65.882355%);fill-opacity:1;" d="M 14.757812 28.972656 C 17.046875 29.269531 19.339844 29.566406 21.699219 29.871094 C 21.699219 29.96875 21.699219 30.066406 21.699219 30.167969 C 20.789062 30.199219 19.875 30.222656 18.960938 30.242188 C 18.199219 30.265625 18.199219 30.265625 17.417969 30.285156 C 16.746094 30.226562 16.746094 30.226562 16.058594 30.167969 C 15.628906 29.773438 15.199219 29.378906 14.757812 28.972656 Z M 14.757812 28.972656 "/>
<path style=" stroke:none;fill-rule:nonzero;fill:rgb(90.588236%,82.352942%,74.509805%);fill-opacity:1;" d="M 39.929688 32.558594 C 41.066406 32.503906 41.066406 32.503906 42.097656 32.558594 C 40.613281 33.703125 39.492188 34.269531 37.324219 34.648438 C 37.179688 34.453125 37.039062 34.253906 36.890625 34.050781 C 37.230469 33.972656 37.570312 33.890625 37.921875 33.808594 C 39.183594 33.5 39.183594 33.5 39.929688 32.558594 Z M 39.929688 32.558594 "/>
<path style=" stroke:none;fill-rule:nonzero;fill:rgb(88.627452%,80.784315%,74.509805%);fill-opacity:1;" d="M 16.925781 30.167969 C 18.929688 30.605469 18.929688 30.605469 19.691406 31.34375 C 19.964844 31.960938 19.964844 31.960938 19.53125 32.855469 C 18.527344 32.167969 17.523438 31.476562 16.492188 30.765625 C 16.636719 30.570312 16.777344 30.371094 16.925781 30.167969 Z M 16.925781 30.167969 "/>
<path style=" stroke:none;fill-rule:nonzero;fill:rgb(72.156864%,62.352943%,52.941179%);fill-opacity:1;" d="M 160.144531 20.609375 C 160.574219 20.609375 161.003906 20.609375 161.449219 20.609375 C 161.3125 20.875 161.179688 21.140625 161.042969 21.414062 C 160.652344 22.242188 160.367188 23.039062 160.144531 23.894531 C 159.277344 23 159.277344 23 159.414062 21.917969 C 159.710938 20.910156 159.710938 20.910156 160.144531 20.609375 Z M 160.144531 20.609375 "/>
<path style=" stroke:none;fill-rule:nonzero;fill:rgb(80.000001%,73.725492%,68.235296%);fill-opacity:1;" d="M 133.671875 23.894531 C 134.53125 24.09375 135.390625 24.289062 136.277344 24.492188 C 136.417969 24.296875 136.5625 24.097656 136.710938 23.894531 C 136.851562 24.289062 136.996094 24.683594 137.144531 25.089844 C 136 25.089844 134.851562 25.089844 133.671875 25.089844 C 133.671875 24.695312 133.671875 24.300781 133.671875 23.894531 Z M 133.671875 23.894531 "/>
<path style=" stroke:none;fill-rule:nonzero;fill:rgb(60.000002%,41.960785%,26.666668%);fill-opacity:1;" d="M 93.308594 16.726562 C 94.3125 16.824219 95.316406 16.925781 96.347656 17.027344 C 96.203125 17.320312 96.0625 17.617188 95.914062 17.921875 C 94.910156 17.824219 93.910156 17.726562 92.875 17.625 C 93.019531 17.328125 93.164062 17.03125 93.308594 16.726562 Z M 93.308594 16.726562 "/>
<path style=" stroke:none;fill-rule:nonzero;fill:rgb(85.490197%,81.176472%,78.039217%);fill-opacity:1;" d="M 169.261719 20.910156 C 169.546875 20.910156 169.832031 20.910156 170.128906 20.910156 C 170.128906 21.597656 170.128906 22.289062 170.128906 23 C 169.554688 23.097656 168.980469 23.195312 168.390625 23.296875 C 167.957031 22.402344 167.957031 22.402344 168.527344 21.601562 C 168.769531 21.371094 169.011719 21.144531 169.261719 20.910156 Z M 169.261719 20.910156 "/>
<path style=" stroke:none;fill-rule:nonzero;fill:rgb(83.92157%,78.823531%,74.509805%);fill-opacity:1;" d="M 142.351562 14.636719 C 143.640625 14.636719 144.929688 14.636719 146.257812 14.636719 C 146.402344 14.832031 146.542969 15.03125 146.691406 15.234375 C 145.261719 15.332031 143.828125 15.429688 142.351562 15.53125 C 142.351562 15.238281 142.351562 14.941406 142.351562 14.636719 Z M 142.351562 14.636719 "/>
<path style=" stroke:none;fill-rule:nonzero;fill:rgb(84.705883%,80.392158%,76.47059%);fill-opacity:1;" d="M 110.234375 10.753906 C 111.09375 10.753906 111.953125 10.753906 112.839844 10.753906 C 112.625 10.859375 112.410156 10.960938 112.1875 11.070312 C 111.222656 11.929688 111.453125 12.6875 111.539062 13.742188 C 111.394531 13.742188 111.25 13.742188 111.105469 13.742188 C 110.234375 11.761719 110.234375 11.761719 110.234375 10.753906 Z M 110.234375 10.753906 "/>
<path style=" stroke:none;fill-rule:nonzero;fill:rgb(87.058824%,81.960785%,78.039217%);fill-opacity:1;" d="M 31.683594 2.6875 C 31.96875 2.886719 32.253906 3.082031 32.550781 3.285156 C 30.972656 3.285156 29.398438 3.285156 27.777344 3.285156 C 29.078125 2.390625 29.996094 2.277344 31.683594 2.6875 Z M 31.683594 2.6875 "/>
<path style=" stroke:none;fill-rule:nonzero;fill:rgb(90.980393%,88.235295%,85.882354%);fill-opacity:1;" d="M 7.378906 20.910156 C 8.238281 21.105469 9.097656 21.304688 9.980469 21.507812 C 9.980469 21.800781 9.980469 22.097656 9.980469 22.402344 C 9.695312 22.402344 9.410156 22.402344 9.113281 22.402344 C 8.972656 22.601562 8.828125 22.796875 8.679688 23 C 8.25 22.308594 7.820312 21.621094 7.378906 20.910156 Z M 7.378906 20.910156 "/>
<path style=" stroke:none;fill-rule:nonzero;fill:rgb(71.372551%,60.392159%,50.980395%);fill-opacity:1;" d="M 64.230469 19.414062 C 64.660156 19.808594 65.089844 20.203125 65.535156 20.609375 C 64.960938 20.707031 64.386719 20.808594 63.796875 20.910156 C 63.941406 20.417969 64.085938 19.921875 64.230469 19.414062 Z M 62.0625 20.3125 C 62.921875 20.605469 62.921875 20.605469 63.796875 20.910156 C 63.511719 21.105469 63.226562 21.304688 62.929688 21.507812 C 62.644531 21.113281 62.355469 20.71875 62.0625 20.3125 Z M 62.0625 20.3125 "/>
<path style=" stroke:none;fill-rule:nonzero;fill:rgb(62.352943%,46.666667%,30.980393%);fill-opacity:1;" d="M 115.445312 15.832031 C 116.285156 15.925781 116.285156 15.925781 117.179688 16.128906 C 117.324219 16.425781 117.464844 16.722656 117.613281 17.027344 C 117.042969 17.125 116.46875 17.222656 115.878906 17.324219 C 115.734375 16.832031 115.589844 16.339844 115.445312 15.832031 Z M 115.445312 15.832031 "/>
<path style=" stroke:none;fill-rule:nonzero;fill:rgb(68.627453%,59.215689%,48.235294%);fill-opacity:1;" d="M 134.539062 14.933594 C 134.828125 15.035156 135.113281 15.132812 135.40625 15.234375 C 135.40625 15.628906 135.40625 16.023438 135.40625 16.429688 C 134.691406 16.328125 133.976562 16.230469 133.238281 16.128906 C 133.238281 15.835938 133.238281 15.539062 133.238281 15.234375 C 133.667969 15.136719 134.097656 15.035156 134.539062 14.933594 Z M 134.539062 14.933594 "/>
<path style=" stroke:none;fill-rule:nonzero;fill:rgb(90.588236%,87.843138%,85.490197%);fill-opacity:1;" d="M 9.113281 11.648438 C 9.402344 12.042969 9.6875 12.4375 9.980469 12.84375 C 9.550781 13.140625 9.121094 13.4375 8.679688 13.742188 C 8.25 13.445312 7.820312 13.148438 7.378906 12.84375 C 7.949219 12.449219 8.523438 12.054688 9.113281 11.648438 Z M 9.113281 11.648438 "/>
<path style=" stroke:none;fill-rule:nonzero;fill:rgb(88.627452%,79.215688%,71.372551%);fill-opacity:1;" d="M 26.039062 34.351562 C 26.777344 34.425781 27.507812 34.523438 28.238281 34.628906 C 28.636719 34.6875 29.035156 34.746094 29.445312 34.808594 C 29.910156 34.875 29.910156 34.875 30.378906 34.949219 C 30.378906 35.046875 30.378906 35.144531 30.378906 35.246094 C 29.832031 35.257812 29.289062 35.269531 28.726562 35.285156 C 28.417969 35.292969 28.109375 35.296875 27.792969 35.304688 C 26.90625 35.246094 26.90625 35.246094 25.605469 34.648438 C 25.75 34.550781 25.890625 34.453125 26.039062 34.351562 Z M 26.039062 34.351562 "/>
<path style=" stroke:none;fill-rule:nonzero;fill:rgb(80.784315%,73.725492%,67.450982%);fill-opacity:1;" d="M 161.449219 19.714844 C 162.371094 19.828125 162.371094 19.828125 163.183594 20.011719 C 162.539062 20.753906 162.539062 20.753906 161.882812 21.507812 C 161.738281 21.210938 161.59375 20.914062 161.449219 20.609375 C 161.160156 20.511719 160.875 20.414062 160.578125 20.3125 C 160.867188 20.113281 161.152344 19.917969 161.449219 19.714844 Z M 161.449219 19.714844 "/>
<path style=" stroke:none;fill-rule:nonzero;fill:rgb(83.92157%,79.215688%,75.294119%);fill-opacity:1;" d="M 121.953125 17.625 C 122.242188 17.917969 122.527344 18.214844 122.820312 18.519531 C 122.25 19.011719 121.675781 19.503906 121.085938 20.011719 C 120.800781 19.816406 120.511719 19.617188 120.21875 19.414062 C 120.789062 18.824219 121.363281 18.234375 121.953125 17.625 Z M 121.953125 17.625 "/>
<path style=" stroke:none;fill-rule:nonzero;fill:rgb(66.666669%,54.11765%,42.352942%);fill-opacity:1;" d="M 74.214844 17.027344 C 74.5 17.125 74.785156 17.222656 75.082031 17.324219 C 75.191406 18.015625 75.191406 18.015625 75.082031 18.816406 C 74.214844 19.359375 74.214844 19.359375 73.347656 19.714844 C 73.257812 18.632812 73.40625 17.960938 74.214844 17.027344 Z M 74.214844 17.027344 "/>
<path style=" stroke:none;fill-rule:nonzero;fill:rgb(82.745099%,78.431374%,74.901962%);fill-opacity:1;" d="M 162.316406 15.53125 C 162.746094 15.632812 163.175781 15.730469 163.617188 15.832031 C 162.914062 16.339844 162.1875 16.839844 161.449219 17.324219 C 161.160156 17.324219 160.875 17.324219 160.578125 17.324219 C 161.078125 16.585938 161.46875 16.117188 162.316406 15.53125 Z M 162.316406 15.53125 "/>
<path style=" stroke:none;fill-rule:nonzero;fill:rgb(79.215688%,73.333335%,67.843139%);fill-opacity:1;" d="M 128.464844 10.753906 C 129.179688 10.753906 129.894531 10.753906 130.632812 10.753906 C 130.632812 11.050781 130.632812 11.34375 130.632812 11.648438 C 130.203125 11.796875 130.203125 11.796875 129.765625 11.949219 C 129.765625 11.75 129.765625 11.554688 129.765625 11.351562 C 129.050781 11.546875 128.332031 11.746094 127.597656 11.949219 C 127.882812 11.554688 128.167969 11.160156 128.464844 10.753906 Z M 128.464844 10.753906 "/>
<path style=" stroke:none;fill-rule:nonzero;fill:rgb(94.901961%,93.333334%,92.156863%);fill-opacity:1;" d="M 25.171875 2.6875 C 25.171875 2.785156 25.171875 2.886719 25.171875 2.988281 C 22.933594 3.4375 21.414062 3.683594 19.097656 3.285156 C 19.097656 3.1875 19.097656 3.089844 19.097656 2.988281 C 21.164062 2.703125 23.074219 2.664062 25.171875 2.6875 Z M 25.171875 2.6875 "/>
</g>
</svg>
