<?xml version="1.0" encoding="UTF-8"?>
<svg version="1.1" xmlns="http://www.w3.org/2000/svg" width="500" height="154">
<path d="M0 0 C2 2 2 2 2.23046875 4.171875 C2.12908 10.25519987 1.40720816 15.89609118 0.25 21.875 C0.12904822 23.96962107 0.12904822 23.96962107 1 26 C3.61712532 28.31665669 6.31725393 30.12789586 9.30078125 31.9453125 C12.51459735 34.39171955 13.60744704 36.22618147 15 40 C17.53853887 59.09621585 6.56342825 74.23467474 -4 89 C-2.97519531 89.17015625 -1.95039062 89.3403125 -0.89453125 89.515625 C0.46628646 89.75963369 1.82695608 90.00446928 3.1875 90.25 C3.86103516 90.35957031 4.53457031 90.46914062 5.22851562 90.58203125 C9.81063622 91.43139994 12.70184792 92.69563671 16 96 C18.04055671 102.12167012 18.51841157 111.00125185 15.625 116.9375 C7.57790284 128.05814122 -9.00111077 133.31044359 -21.86328125 135.53125 C-43.74493993 138.33210231 -81.42029866 138.35770789 -100 125 C-102.71046628 122.4909873 -103.21074619 120.44719028 -103.43359375 116.8828125 C-103.45080242 115.29696783 -103.45159098 113.71087543 -103.4375 112.125 C-103.45748047 111.33480469 -103.47746094 110.54460937 -103.49804688 109.73046875 C-103.49262613 103.21472737 -101.51401308 99.59019529 -96.9375 94.875 C-92.59523035 92.10333852 -87.87435971 90.60486799 -83 89 C-84.65442275 85.48857213 -86.67675603 82.27861837 -88.75 79 C-96.32900233 66.82304651 -102.27300518 55.72168898 -101 41 C-99.09889332 34.96119056 -94.29521768 30.74860063 -88.76953125 27.81640625 C-86.59976934 25.98976474 -86.59976934 25.98976474 -86.8203125 22.3828125 C-86.94434707 20.24221591 -87.12599745 18.11466797 -87.33203125 15.98046875 C-87.4453125 13.8828125 -87.4453125 13.8828125 -87 10 C-73.48788534 -4.88759938 -17.22067784 -7.99531471 0 0 Z " fill="#E4D9D0" transform="translate(115,8)"/>
<path d="M0 0 C2.484375 2.1953125 2.484375 2.1953125 4.75 5.125 C10.87624753 12.38124135 19.25109607 18.13420605 28.96875 19.2199707 C42.2658652 19.9429709 53.26916185 18.39804725 64 10 C64.66 10 65.32 10 66 10 C66.226875 9.46375 66.45375 8.9275 66.6875 8.375 C70.19338605 2.03101571 70.19338605 2.03101571 73 0 C79.59036068 -1.46322395 86.92598653 0.29177014 93 3 C95.42573618 4.99669441 95.97637079 5.92911237 97 9 C98.11130121 23.50156986 98.11130121 23.50156986 94.5 28.4921875 C81.42183376 41.63846918 62.22314649 46.20694735 44.25 46.375 C-8.07293851 46.0405907 -8.07293851 46.0405907 -21.734375 33.39453125 C-23.67789718 29.71743527 -23.47389615 26.22122172 -23.4375 22.125 C-23.45748047 21.33480469 -23.47746094 20.54460937 -23.49804688 19.73046875 C-23.49355775 14.33454088 -22.53941599 11.29039909 -19 7 C-13.5343111 1.82975374 -7.55971268 -0.84364408 0 0 Z " fill="#94673C" transform="translate(35,98)"/>
<path d="M0 0 C1.23750708 0.00138269 1.23750708 0.00138269 2.50001431 0.00279331 C3.44377422 0.00141865 4.38753414 0.00004398 5.35989285 -0.00137234 C6.40358028 0.00222294 7.44726772 0.00581821 8.52258205 0.00952244 C9.61512798 0.00937641 10.70767391 0.00923038 11.83332729 0.00907993 C15.46405899 0.00977961 19.09474012 0.01757454 22.72546291 0.02539158 C25.2351011 0.02725557 27.74473964 0.02867956 30.25437832 0.0296793 C36.1971526 0.03311435 42.1399105 0.0410051 48.08267635 0.05102879 C55.50982591 0.0632853 62.93697771 0.06866991 70.36413479 0.0742197 C83.6187014 0.08495972 96.87325287 0.101847 110.12780666 0.12304783 C111.12780666 3.12304783 111.12780666 3.12304783 110.12780666 6.12304783 C108.14780666 6.12304783 106.16780666 6.12304783 104.12780666 6.12304783 C104.1382803 7.1728281 104.14875393 8.22260838 104.15954494 9.30420017 C104.19569119 13.19169816 104.21868744 17.07918124 104.23766994 20.96679783 C104.24773983 22.65074249 104.26139654 24.33466962 104.27868557 26.01855564 C104.30289092 28.43624283 104.31427963 30.85369926 104.32311916 33.27148533 C104.33344173 34.02674503 104.34376431 34.78200474 104.35439968 35.5601511 C104.35479985 37.41598763 104.25003382 39.27124063 104.12780666 41.12304783 C103.13780666 42.11304783 103.13780666 42.11304783 102.12780666 43.12304783 C100.47780666 42.79304783 98.82780666 42.46304783 97.12780666 42.12304783 C97.12780666 30.24304783 97.12780666 18.36304783 97.12780666 6.12304783 C93.82780666 6.45304783 90.52780666 6.78304783 87.12780666 7.12304783 C86.79780666 18.67304783 86.46780666 30.22304783 86.12780666 42.12304783 C84.47780666 42.45304783 82.82780666 42.78304783 81.12780666 43.12304783 C80.12780666 42.12304783 80.12780666 42.12304783 80.01428127 39.98999119 C80.0221365 38.61532688 80.0221365 38.61532688 80.03015041 37.21289158 C80.0349844 35.72885838 80.0349844 35.72885838 80.03991604 34.2148447 C80.0524844 32.65346775 80.0524844 32.65346775 80.06530666 31.06054783 C80.06981838 30.01576267 80.0743301 28.97097752 80.07897854 27.8945322 C80.09080754 25.30398123 80.10728977 22.71354224 80.12780666 20.12304783 C76.43907791 21.48576291 74.6060618 22.16653755 72.81530666 25.74804783 C72.25843166 26.86179783 71.70155666 27.97554783 71.12780666 29.12304783 C69.14780666 28.46304783 67.16780666 27.80304783 65.12780666 27.12304783 C65.12780666 25.14304783 65.12780666 23.16304783 65.12780666 21.12304783 C62.79485891 21.0806306 60.46078099 21.08211845 58.12780666 21.12304783 C57.63280666 21.61804783 57.63280666 21.61804783 57.12780666 22.12304783 C57.28844586 26.3981233 57.72061375 28.61144647 60.41296291 31.99414158 C61.32948635 32.84105564 62.24600979 33.6879697 63.19030666 34.56054783 C64.10940823 35.42550877 65.02850979 36.2904697 65.97546291 37.18164158 C66.68573635 37.82230564 67.39600979 38.4629697 68.12780666 39.12304783 C67.13780666 40.44304783 66.14780666 41.76304783 65.12780666 43.12304783 C58.90658548 41.42635114 55.12387062 36.56983591 51.19030666 31.74804783 C49.61392864 27.85346682 49.43064661 24.26103007 50.12780666 20.12304783 C51.92174334 17.25274914 53.11043943 15.63173145 56.12780666 14.12304783 C64.71718096 13.46934324 64.71718096 13.46934324 68.69030666 15.31054783 C72.74665102 16.66266261 76.2934309 14.67684716 80.12780666 13.12304783 C80.12780666 10.81304783 80.12780666 8.50304783 80.12780666 6.12304783 C62.96780666 6.12304783 45.80780666 6.12304783 28.12780666 6.12304783 C28.45780666 9.42304783 28.78780666 12.72304783 29.12780666 16.12304783 C29.78780666 15.79304783 30.44780666 15.46304783 31.12780666 15.12304783 C38.18968291 14.54420551 38.18968291 14.54420551 42.06530666 16.93554783 C45.42768883 20.50171074 45.4515892 23.95769251 45.42858791 28.62695408 C44.92067582 32.84196479 43.09701993 36.40439956 41.12780666 40.12304783 C39.47780666 39.46304783 37.82780666 38.80304783 36.12780666 38.12304783 C36.12780666 34.14736917 36.80567024 31.0513282 37.78796291 27.24414158 C38.32440435 24.94229062 38.32440435 24.94229062 37.12780666 22.12304783 C34.21128492 21.95623674 34.21128492 21.95623674 31.12780666 22.12304783 C28.77451537 24.47633912 28.85761188 25.02193022 28.74890041 28.22070408 C28.71474026 29.02185642 28.6805801 29.82300877 28.64538479 30.64843845 C28.61895901 31.48568455 28.59253323 32.32293064 28.56530666 33.18554783 C28.2477391 42.0031154 28.2477391 42.0031154 27.12780666 43.12304783 C24.62780666 43.24804783 24.62780666 43.24804783 22.12780666 43.12304783 C20.54508066 41.54032182 20.7804492 39.7427078 20.56530666 37.56054783 C20.4815176 36.73425877 20.39772854 35.9079697 20.31140041 35.05664158 C20.25081448 34.41855564 20.19022854 33.7804697 20.12780666 33.12304783 C19.13780666 33.61804783 19.13780666 33.61804783 18.12780666 34.12304783 C9.11935832 35.15342591 9.11935832 35.15342591 5.10436916 33.07617283 C2.98176902 31.31596783 1.36536325 29.598161 0.12780666 27.12304783 C-0.22236639 21.78290873 -0.34049558 18.45842564 3.12780666 14.12304783 C6.52582211 10.59917996 10.42367323 10.24414433 15.12780666 10.12304783 C18.12780666 10.56054783 18.12780666 10.56054783 20.12780666 11.12304783 C20.12780666 13.10304783 20.12780666 15.08304783 20.12780666 17.12304783 C16.49780666 17.45304783 12.86780666 17.78304783 9.12780666 18.12304783 C7.93185129 20.96019933 7.93185129 20.96019933 7.12780666 24.12304783 C7.78780666 25.11304783 8.44780666 26.10304783 9.12780666 27.12304783 C15.01270124 27.67710452 15.01270124 27.67710452 20.12780666 25.12304783 C20.63402179 23.10028102 20.63402179 23.10028102 20.63952541 20.77148533 C20.67263821 20.00497654 20.705751 19.23846775 20.73986721 18.44873142 C20.76476223 17.47500584 20.78965725 16.50128025 20.81530666 15.49804783 C20.91843166 12.40429783 21.02155666 9.31054783 21.12780666 6.12304783 C13.20780666 6.12304783 5.28780666 6.12304783 -2.87219334 6.12304783 C-2.87219334 0.18877172 -2.87219334 0.18877172 0 0 Z " fill="#9B714B" transform="translate(141.87219333648682,40.876952171325684)"/>
<path d="M0 0 C0.33 0 0.66 0 1 0 C1.74906747 15.00215676 1.74906747 15.00215676 -1.5 19.4921875 C-14.57816624 32.63846918 -33.77685351 37.20694735 -51.75 37.375 C-103.78516391 37.04242995 -103.78516391 37.04242995 -117.75 24.41796875 C-119.70666337 20.63304805 -119.31512015 16.93855887 -119.1875 12.75 C-119.17396484 11.90953125 -119.16042969 11.0690625 -119.14648438 10.203125 C-119.11123464 8.13514062 -119.0574302 6.06748729 -119 4 C-118.67 4 -118.34 4 -118 4 C-117.79375 5.051875 -117.5875 6.10375 -117.375 7.1875 C-116.14365261 11.42025666 -113.72351718 13.75489969 -110 16 C-103.26199727 18.97242178 -96.57360515 20.07510047 -89.3125 21.125 C-88.21744141 21.29386719 -87.12238281 21.46273437 -85.99414062 21.63671875 C-74.16496549 23.40517695 -62.39323208 24.19010904 -50.4375 24.25 C-49.40431641 24.270625 -48.37113281 24.29125 -47.30664062 24.3125 C-36.84043464 24.36486376 -27.28507764 22.00148701 -17.75 17.75 C-17.07251709 17.45279053 -16.39503418 17.15558105 -15.69702148 16.84936523 C-10.89939653 14.64711049 -7.04134773 12.04134773 -3.28515625 8.28515625 C-2.64900391 7.64900391 -2.64900391 7.64900391 -2 7 C-1.67 7 -1.34 7 -1 7 C-0.67 4.69 -0.34 2.38 0 0 Z " fill="#9A714A" transform="translate(131,107)"/>
<path d="M0 0 C0.77947998 -0.00531738 1.55895996 -0.01063477 2.36206055 -0.01611328 C7.56122511 0.05095753 11.4418666 0.5668666 15.1875 4.3125 C15.1875 6.625 15.1875 6.625 14.1875 9.3125 C8.76260903 14.61683784 5.33668782 15.43237608 -2.01806641 15.45776367 C-3.27261627 15.46414352 -4.52716614 15.47052338 -5.81973267 15.47709656 C-7.18450888 15.47862477 -8.54928562 15.47973898 -9.9140625 15.48046875 C-11.31603021 15.48368267 -12.71799759 15.48704684 -14.1199646 15.49055481 C-17.05361713 15.49653438 -19.98724024 15.49839575 -22.92089844 15.49780273 C-26.68499156 15.49770081 -30.44889733 15.51138903 -34.21294594 15.52857494 C-37.10565056 15.53967271 -39.99830943 15.54172268 -42.89103317 15.54119301 C-44.27934799 15.5423751 -45.66766391 15.54680967 -47.05595779 15.55452538 C-48.99252151 15.5642862 -50.92914023 15.56019314 -52.86572266 15.55541992 C-54.51974594 15.55755745 -54.51974594 15.55755745 -56.20718384 15.55973816 C-58.8125 15.3125 -58.8125 15.3125 -60.8125 13.3125 C-60.8125 11.9925 -60.8125 10.6725 -60.8125 9.3125 C-59.62929424 8.67940809 -58.44062152 8.05653282 -57.25 7.4375 C-56.58871094 7.08945313 -55.92742188 6.74140625 -55.24609375 6.3828125 C-49.77867827 3.9782028 -44.31178033 3.00179184 -38.39453125 2.4609375 C-37.70314056 2.39695267 -37.01174988 2.33296783 -36.29940796 2.26704407 C-34.07528223 2.06504192 -31.85039667 1.8749488 -29.625 1.6875 C-28.8680484 1.62213043 -28.1110968 1.55676086 -27.33120728 1.4894104 C-18.22743684 0.71052007 -9.14260465 0.03001918 0 0 Z " fill="#BAA694" transform="translate(95.8125,8.6875)"/>
<path d="M0 0 C36.96 0 73.92 0 112 0 C113 3 113 3 112 6 C110.02 6 108.04 6 106 6 C106.01047363 7.04978027 106.02094727 8.09956055 106.03173828 9.18115234 C106.06788453 13.06865033 106.09088078 16.95613341 106.10986328 20.84375 C106.11993317 22.52769466 106.13358988 24.21162179 106.15087891 25.89550781 C106.17508426 28.31319501 106.18647296 30.73065143 106.1953125 33.1484375 C106.20563507 33.9036972 106.21595764 34.65895691 106.22659302 35.43710327 C106.22699318 37.2929398 106.12222716 39.1481928 106 41 C105.01 41.99 105.01 41.99 104 43 C102.35 42.67 100.7 42.34 99 42 C99 30.12 99 18.24 99 6 C95.7 6.33 92.4 6.66 89 7 C88.67 18.55 88.34 30.1 88 42 C86.35 42.33 84.7 42.66 83 43 C82 42 82 42 81.88647461 39.86694336 C81.89432983 38.49227905 81.89432983 38.49227905 81.90234375 37.08984375 C81.90717773 35.60581055 81.90717773 35.60581055 81.91210938 34.09179688 C81.92467773 32.53041992 81.92467773 32.53041992 81.9375 30.9375 C81.94201172 29.89271484 81.94652344 28.84792969 81.95117188 27.77148438 C81.96300087 25.1809334 81.97948311 22.59049441 82 20 C78.31127125 21.36271508 76.47825514 22.04348972 74.6875 25.625 C74.130625 26.73875 73.57375 27.8525 73 29 C71.02 28.34 69.04 27.68 67 27 C67 25.02 67 23.04 67 21 C64.66705225 20.95758277 62.33297433 20.95907063 60 21 C59.505 21.495 59.505 21.495 59 22 C59.1606392 26.27507547 59.59280709 28.48839865 62.28515625 31.87109375 C63.65994141 33.14146484 63.65994141 33.14146484 65.0625 34.4375 C65.98160156 35.30246094 66.90070313 36.16742188 67.84765625 37.05859375 C68.55792969 37.69925781 69.26820313 38.33992188 70 39 C69.01 40.32 68.02 41.64 67 43 C60.77877881 41.30330331 56.99606396 36.44678808 53.0625 31.625 C51.48612197 27.73041899 51.30283995 24.13798224 52 20 C53.79393668 17.12970131 54.98263276 15.50868362 58 14 C63.29638405 13.59691236 68.20866235 13.45460187 73 16 C73.66 16.33 74.32 16.66 75 17 C75.33 17.33 75.66 17.66 76 18 C78.31 18.33 80.62 18.66 83 19 C83 26.26 83 33.52 83 41 C83.99 40.67 84.98 40.34 86 40 C86.03758423 38.46291382 86.03758423 38.46291382 86.07592773 36.89477539 C86.16984484 33.10590324 86.27010317 29.31722119 86.37231445 25.52856445 C86.41572297 23.88635697 86.45739358 22.24410261 86.49731445 20.60180664 C86.5548744 18.24611255 86.61860892 15.89065572 86.68359375 13.53515625 C86.70030624 12.79660904 86.71701874 12.05806183 86.73423767 11.2971344 C86.88612829 6.11387171 86.88612829 6.11387171 88 5 C92.00220653 4.85644883 95.99441683 4.95783597 100 5 C100.495 12.425 100.495 12.425 101 20 C101.33 15.05 101.66 10.1 102 5 C105.83619425 4.04095144 107.32431536 4.08107884 111 5 C111 3.68 111 2.36 111 1 C74.37 1 37.74 1 0 1 C0 0.67 0 0.34 0 0 Z " fill="#A1805F" transform="translate(140,41)"/>
<path d="M0 0 C2.74902344 -0.35107422 2.74902344 -0.35107422 6 0 C8.11816406 2.35498047 8.11816406 2.35498047 10.015625 5.6171875 C10.35752869 6.18954132 10.69943237 6.76189514 11.05169678 7.35159302 C12.13896986 9.18118518 13.19481811 11.0267484 14.25 12.875 C15.32579735 14.71173891 16.40765642 16.54477628 17.4911499 18.37698364 C18.47067127 20.04082776 19.43541302 21.71334633 20.39941406 23.38623047 C21.88497839 26.04081314 21.88497839 26.04081314 24 28 C24.29656494 27.50709473 24.59312988 27.01418945 24.89868164 26.50634766 C28.22961882 20.98164635 31.60025664 15.48260897 35 10 C35.5580835 9.09217773 35.5580835 9.09217773 36.12744141 8.16601562 C37.02329448 6.72306654 37.94764307 5.29790686 38.875 3.875 C39.36742187 3.10929687 39.85984375 2.34359375 40.3671875 1.5546875 C42 0 42 0 44.6953125 -0.2421875 C45.45585937 -0.16226563 46.21640625 -0.08234375 47 0 C47 3 47 3 45 6 C44.80381266 8.86655609 44.71998278 11.63358508 44.734375 14.5 C44.73246155 15.33208984 44.7305481 16.16417969 44.72857666 17.02148438 C44.72721626 18.77995099 44.73090262 20.5384277 44.73925781 22.296875 C44.74995952 24.98981262 44.73935779 27.68208314 44.7265625 30.375 C44.72788412 32.08333481 44.73044657 33.7916692 44.734375 35.5 C44.73032654 36.30630859 44.72627808 37.11261719 44.72210693 37.94335938 C44.7546108 41.81474692 44.80310951 43.70466426 47 47 C43.92677456 47.91058531 41.19902639 48.08886184 38 48 C38 44.42046839 38.11129192 40.84703936 38.21875 37.26953125 C38.24094604 36.51911057 38.26314209 35.76868988 38.28601074 34.99552917 C38.35692645 32.60117362 38.42845559 30.20683684 38.5 27.8125 C38.54821751 26.18815224 38.59639508 24.5638033 38.64453125 22.93945312 C38.76255744 18.95962151 38.88113374 14.97980661 39 11 C36.501547 14.02894189 34.28594403 17.01448206 32.34375 20.42578125 C31.87839844 21.22177734 31.41304688 22.01777344 30.93359375 22.83789062 C29.96938043 24.5022752 29.01377536 26.17167352 28.06640625 27.84570312 C27.36837891 29.0300293 27.36837891 29.0300293 26.65625 30.23828125 C26.24181641 30.96055908 25.82738281 31.68283691 25.40039062 32.42700195 C24.93826172 32.94609131 24.47613281 33.46518066 24 34 C22.68 34 21.36 34 20 34 C18.26074219 31.88867188 18.26074219 31.88867188 16.546875 28.96875 C15.70914551 27.56786133 15.70914551 27.56786133 14.85449219 26.13867188 C14.16000977 24.93791016 13.46552734 23.73714844 12.75 22.5 C10.5225 18.705 8.295 14.91 6 11 C6 22.22 6 33.44 6 45 C6.99 45 7.98 45 9 45 C9 45.66 9 46.32 9 47 C5.52176885 48.15941038 3.54104422 47.70820884 0 47 C0.48678223 46.23780151 0.48678223 46.23780151 0.98339844 45.46020508 C2.36883101 42.10741832 2.25941801 39.26049267 2.265625 35.63671875 C2.26753845 34.92651077 2.2694519 34.2163028 2.27142334 33.48457336 C2.2727816 31.98425949 2.26911022 30.48393373 2.26074219 28.98364258 C2.25008476 26.70561782 2.26062452 24.42839019 2.2734375 22.15039062 C2.27211491 20.68749828 2.26955047 19.22460643 2.265625 17.76171875 C2.27169769 16.7519825 2.27169769 16.7519825 2.27789307 15.72184753 C2.23357473 11.17181981 1.33013718 7.33153163 0 3 C0 2.01 0 1.02 0 0 Z " fill="#AF9276" transform="translate(254,36)"/>
<path d="M0 0 C0.33 0 0.66 0 1 0 C1.74621703 14.94506883 1.74621703 14.94506883 -1.46875 19.48046875 C-6.26029494 24.2353437 -12.658441 28.69397854 -19 31 C-22.375 30.6875 -22.375 30.6875 -25 30 C-25 30.66 -25 31.32 -25 32 C-26.32 31.67 -27.64 31.34 -29 31 C-28.34 31 -27.68 31 -27 31 C-27.99 29.02 -27.99 29.02 -29 27 C-28.505 26.505 -28.505 26.505 -28 26 C-29.25425781 26.15726563 -30.50851563 26.31453125 -31.80078125 26.4765625 C-48.97495096 28.35399556 -65.94522482 26.95492485 -83 24.75 C-83.82092133 24.64757996 -84.64184265 24.54515991 -85.48764038 24.43963623 C-97.27050102 22.94549219 -108.05530899 21.4739178 -117 13 C-117.33 15.97 -117.66 18.94 -118 22 C-118.33 22 -118.66 22 -119 22 C-119 16.06 -119 10.12 -119 4 C-118.67 4 -118.34 4 -118 4 C-117.79375 5.051875 -117.5875 6.10375 -117.375 7.1875 C-116.14365261 11.42025666 -113.72351718 13.75489969 -110 16 C-103.26199727 18.97242178 -96.57360515 20.07510047 -89.3125 21.125 C-88.21744141 21.29386719 -87.12238281 21.46273437 -85.99414062 21.63671875 C-74.16496549 23.40517695 -62.39323208 24.19010904 -50.4375 24.25 C-49.40431641 24.270625 -48.37113281 24.29125 -47.30664062 24.3125 C-36.84043464 24.36486376 -27.28507764 22.00148701 -17.75 17.75 C-17.07251709 17.45279053 -16.39503418 17.15558105 -15.69702148 16.84936523 C-10.89939653 14.64711049 -7.04134773 12.04134773 -3.28515625 8.28515625 C-2.64900391 7.64900391 -2.64900391 7.64900391 -2 7 C-1.67 7 -1.34 7 -1 7 C-0.67 4.69 -0.34 2.38 0 0 Z " fill="#966B43" transform="translate(131,107)"/>
<path d="M0 0 C0.845625 0.12503906 1.69125 0.25007813 2.5625 0.37890625 C6.2918442 1.99854131 7.2472982 3.77744625 9 7.4375 C9.55477779 11.14657538 9.60531077 14.81662322 9.625 18.5625 C9.65056797 20.52356304 9.6841101 22.4845423 9.7265625 24.4453125 C9.73550537 25.73912842 9.73550537 25.73912842 9.74462891 27.05908203 C10.01768404 29.60220161 10.72147008 31.24183287 12 33.4375 C7.25 34.5625 7.25 34.5625 5 33.4375 C4.375 30.375 4.375 30.375 4 27.4375 C3.44570313 27.85902344 2.89140625 28.28054687 2.3203125 28.71484375 C1.59585937 29.26269531 0.87140625 29.81054688 0.125 30.375 C-0.59429687 30.92027344 -1.31359375 31.46554688 -2.0546875 32.02734375 C-5.78985164 34.73496273 -8.39131551 34.74995319 -13 34.4375 C-15.82689795 33.18110091 -17.47004961 32.11198232 -19.375 29.6875 C-20.34245816 26.20465062 -19.97469149 23.90983843 -19 20.4375 C-14.04027214 14.34412005 -6.4128551 13.0858243 1 11.4375 C1.99 11.4375 2.98 11.4375 4 11.4375 C3.34 9.1275 2.68 6.8175 2 4.4375 C-3.03371117 3.43075777 -6.28124901 3.34027734 -11 5.4375 C-12.35113205 6.41331759 -13.68946944 7.40779741 -15 8.4375 C-15.66 8.4375 -16.32 8.4375 -17 8.4375 C-15.49235345 4.21608966 -12.78707131 2.63400136 -9 0.4375 C-5.79737708 -0.66547802 -3.3261771 -0.5628135 0 0 Z M-13.3125 19.8125 C-15.28727747 22.36427241 -15.28727747 22.36427241 -15 25.625 C-14.21262767 28.72773828 -14.21262767 28.72773828 -11 30.4375 C-7.83530694 31.01289874 -5.87124586 30.99654943 -3.125 29.234375 C0.06487714 26.60272636 2.45381025 24.34050324 4 20.4375 C4.0777346 18.10546188 4.08967728 15.76910941 4 13.4375 C-1.64991934 13.4375 -9.04978455 16.07051399 -13.3125 19.8125 Z " fill="#BAA189" transform="translate(387,49.5625)"/>
<path d="M0 0 C2 2 2 2 2.1953125 4.3828125 C2.17210938 5.28773437 2.14890625 6.19265625 2.125 7.125 C2.10695313 8.03507812 2.08890625 8.94515625 2.0703125 9.8828125 C2.04710938 10.58148438 2.02390625 11.28015625 2 12 C1.67 12 1.34 12 1 12 C0.690625 10.906875 0.38125 9.81375 0.0625 8.6875 C-0.58337897 6.44592006 -1.2623117 4.2130649 -2 2 C-17.81871232 1.64519796 -33.42689444 1.94691563 -49.1875 3.3125 C-49.9066156 3.3714444 -50.6257312 3.43038879 -51.36663818 3.49111938 C-61.44850553 4.33283774 -70.67476655 5.95906551 -80 10 C-80.33 12.31 -80.66 14.62 -81 17 C-81.99 17.33 -82.98 17.66 -84 18 C-84.33 20.64 -84.66 23.28 -85 26 C-85.33 26 -85.66 26 -86 26 C-86.33127062 23.43717006 -86.6155144 20.8827496 -86.875 18.3125 C-86.97296875 17.59126953 -87.0709375 16.87003906 -87.171875 16.12695312 C-87.37103939 13.94610303 -87.42515817 12.15060552 -87 10 C-73.59494646 -4.91917856 -17.14872141 -7.96190637 0 0 Z " fill="#EAE1DA" transform="translate(115,8)"/>
<path d="M0 0 C1.19882813 0.15275391 1.19882813 0.15275391 2.421875 0.30859375 C3.02515625 0.39238281 3.6284375 0.47617187 4.25 0.5625 C4.25 2.5425 4.25 4.5225 4.25 6.5625 C0.62 6.8925 -3.01 7.2225 -6.75 7.5625 C-7.94595537 10.3996515 -7.94595537 10.3996515 -8.75 13.5625 C-7.76 15.0475 -7.76 15.0475 -6.75 16.5625 C-2.18771074 16.93042655 1.32242087 17.18088609 5.25 14.5625 C6.3041518 17.72495541 6.56275672 20.43198218 6.8125 23.75 C6.93818359 25.38001953 6.93818359 25.38001953 7.06640625 27.04296875 C7.12699219 27.87441406 7.18757813 28.70585938 7.25 29.5625 C8.24 29.5625 9.23 29.5625 10.25 29.5625 C10.58 24.6125 10.91 19.6625 11.25 14.5625 C11.58 14.5625 11.91 14.5625 12.25 14.5625 C12.27684312 17.37506281 12.29676188 20.18737241 12.3125 23 C12.32087891 23.80244141 12.32925781 24.60488281 12.33789062 25.43164062 C12.3465143 27.47545221 12.3022815 29.51933902 12.25 31.5625 C11.25 32.5625 11.25 32.5625 8.75 32.6875 C6.25 32.5625 6.25 32.5625 5.25 31.5625 C5.01807135 30.04780552 4.83784762 28.52495438 4.6875 27 C4.56181641 25.76056641 4.56181641 25.76056641 4.43359375 24.49609375 C4.37300781 23.85800781 4.31242187 23.21992187 4.25 22.5625 C3.59 22.8925 2.93 23.2225 2.25 23.5625 C-6.75844834 24.59287808 -6.75844834 24.59287808 -10.7734375 22.515625 C-12.89603764 20.75542001 -14.51244341 19.03761318 -15.75 16.5625 C-16.10017306 11.2223609 -16.21830225 7.89787781 -12.75 3.5625 C-8.70347139 -0.09242906 -5.31850947 -0.70392037 0 0 Z " fill="#AA8D6F" transform="translate(157.75,51.4375)"/>
<path d="M0 0 C1.2065625 0.0309375 1.2065625 0.0309375 2.4375 0.0625 C2.4375 3.0625 2.4375 3.0625 0.4375 6.0625 C0.24131266 8.92905609 0.15748278 11.69608508 0.171875 14.5625 C0.16996155 15.39458984 0.1680481 16.22667969 0.16607666 17.08398438 C0.16471626 18.84245099 0.16840262 20.6009277 0.17675781 22.359375 C0.18745952 25.05231262 0.17685779 27.74458314 0.1640625 30.4375 C0.16538412 32.14583481 0.16794657 33.8541692 0.171875 35.5625 C0.16782654 36.36880859 0.16377808 37.17511719 0.15960693 38.00585938 C0.1921108 41.87724692 0.24060951 43.76716426 2.4375 47.0625 C-0.63572544 47.97308531 -3.36347361 48.15136184 -6.5625 48.0625 C-6.5625 44.48296839 -6.45120808 40.90953936 -6.34375 37.33203125 C-6.32155396 36.58161057 -6.29935791 35.83118988 -6.27648926 35.05802917 C-6.20557355 32.66367362 -6.13404441 30.26933684 -6.0625 27.875 C-6.01428249 26.25065224 -5.96610492 24.6263033 -5.91796875 23.00195312 C-5.79994256 19.02212151 -5.68136626 15.04230661 -5.5625 11.0625 C-7.87961245 13.89476383 -10.05878361 16.68121493 -11.921875 19.83203125 C-12.51162109 20.82299805 -12.51162109 20.82299805 -13.11328125 21.83398438 C-13.50902344 22.50751953 -13.90476562 23.18105469 -14.3125 23.875 C-14.72371094 24.56787109 -15.13492187 25.26074219 -15.55859375 25.97460938 C-16.5632858 27.6685669 -17.56336825 29.36525696 -18.5625 31.0625 C-19.5525 30.4025 -20.5425 29.7425 -21.5625 29.0625 C-17.30380162 22.33288446 -13.00595522 15.62888757 -8.6875 8.9375 C-8.19918701 8.17896729 -7.71087402 7.42043457 -7.20776367 6.63891602 C-6.52097534 5.5762854 -6.52097534 5.5762854 -5.8203125 4.4921875 C-5.20373779 3.53675049 -5.20373779 3.53675049 -4.57470703 2.56201172 C-2.89291554 0.07055892 -2.89291554 0.07055892 0 0 Z " fill="#A38360" transform="translate(298.5625,35.9375)"/>
<path d="M0 0 C36.96 0 73.92 0 112 0 C113 3 113 3 112 6 C110.02 6 108.04 6 106 6 C106.01047363 7.04978027 106.02094727 8.09956055 106.03173828 9.18115234 C106.06788453 13.06865033 106.09088078 16.95613341 106.10986328 20.84375 C106.11993317 22.52769466 106.13358988 24.21162179 106.15087891 25.89550781 C106.17508426 28.31319501 106.18647296 30.73065143 106.1953125 33.1484375 C106.20563507 33.9036972 106.21595764 34.65895691 106.22659302 35.43710327 C106.22699318 37.2929398 106.12222716 39.1481928 106 41 C105.01 41.99 105.01 41.99 104 43 C102.68 43 101.36 43 100 43 C99.85818323 34.36099524 100.27949608 25.85710092 101 17.25 C101.09539062 16.0640625 101.19078125 14.878125 101.2890625 13.65625 C101.52178758 10.77045904 101.75882709 7.88509508 102 5 C105.38317487 4.02408417 107.5657338 4.14143345 111 5 C111 3.68 111 2.36 111 1 C74.37 1 37.74 1 0 1 C0 0.67 0 0.34 0 0 Z " fill="#C4AD97" transform="translate(140,41)"/>
<path d="M0 0 C0.33 0 0.66 0 1 0 C1.20625 1.051875 1.4125 2.10375 1.625 3.1875 C2.85634739 7.42025666 5.27648282 9.75489969 9 12 C15.73800273 14.97242178 22.42639485 16.07510047 29.6875 17.125 C30.78255859 17.29386719 31.87761719 17.46273437 33.00585938 17.63671875 C44.83503451 19.40517695 56.60676792 20.19010904 68.5625 20.25 C69.59568359 20.270625 70.62886719 20.29125 71.69335938 20.3125 C82.15930042 20.36486243 91.71526481 18.0018777 101.25 13.75 C101.92675781 13.45279053 102.60351562 13.15558105 103.30078125 12.84936523 C108.64892384 10.39233682 112.98416653 7.34608294 117 3 C117 6 117 6 115.0625 8.375 C109.44590732 13.58707354 102.31606131 16.39660195 95.3125 19.25 C94.36818115 19.6375647 94.36818115 19.6375647 93.40478516 20.03295898 C75.8797001 26.95852921 54.22890224 23.1095363 36 20.75 C35.17935059 20.64757996 34.35870117 20.54515991 33.51318359 20.43963623 C21.73000647 18.94550814 10.94495543 17.47416831 2 9 C1.67 11.97 1.34 14.94 1 18 C0.67 18 0.34 18 0 18 C0 12.06 0 6.12 0 0 Z " fill="#E0C5AD" transform="translate(12,111)"/>
<path d="M0 0 C0.66 0.33 1.32 0.66 2 1 C2 2.98 2 4.96 2 7 C4.64 7 7.28 7 10 7 C10.33 7.66 10.66 8.32 11 9 C8.03 9.66 5.06 10.32 2 11 C1.97100401 14.77081722 1.95320271 18.54160583 1.9375 22.3125 C1.92912109 23.38435547 1.92074219 24.45621094 1.91210938 25.56054688 C1.90888672 26.58857422 1.90566406 27.61660156 1.90234375 28.67578125 C1.89710693 29.62364502 1.89187012 30.57150879 1.88647461 31.5480957 C1.89501146 34.13838681 1.89501146 34.13838681 3 37 C7.21878192 37.19622241 10.17010894 36.80230168 14 35 C13.875 36.8125 13.875 36.8125 13 39 C8.98075756 41.61718112 5.77887728 42.63718364 1 42 C-1.03667615 40.45493534 -1.86073078 39.27853844 -3 37 C-3.08543895 34.89471067 -3.10714725 32.78668843 -3.09765625 30.6796875 C-3.09443359 29.42285156 -3.09121094 28.16601562 -3.08789062 26.87109375 C-3.07951172 25.55238281 -3.07113281 24.23367187 -3.0625 22.875 C-3.05748489 21.53515789 -3.05292201 20.195314 -3.04882812 18.85546875 C-3.03701086 15.57026794 -3.02053617 12.28515603 -3 9 C-4.32 9 -5.64 9 -7 9 C-5.44499019 5.18315774 -2.96404505 2.80804268 0 0 Z " fill="#946A43" transform="translate(327,42)"/>
<path d="M0 0 C-0.66 1.32 -1.32 2.64 -2 4 C-3.03060547 3.91298828 -3.03060547 3.91298828 -4.08203125 3.82421875 C-4.98308594 3.77910156 -5.88414062 3.73398437 -6.8125 3.6875 C-8.15248047 3.60048828 -8.15248047 3.60048828 -9.51953125 3.51171875 C-12.13570691 3.77956365 -12.13570691 3.77956365 -13.8046875 5.88671875 C-15.51151387 10.33227631 -15.39712931 14.40606954 -15.3125 19.125 C-15.31733398 20.48431641 -15.31733398 20.48431641 -15.32226562 21.87109375 C-15.37425901 27.24803341 -15.37425901 27.24803341 -13 32 C-14 33 -14 33 -15.84765625 33.09765625 C-17.8984375 33.06510417 -19.94921875 33.03255208 -22 33 C-22 30 -22 30 -21.50610352 28.15136719 C-20.89863031 25.56909323 -20.88760845 23.23047874 -20.90234375 20.578125 C-20.90556641 19.55332031 -20.90878906 18.52851562 -20.91210938 17.47265625 C-20.92048828 16.40917969 -20.92886719 15.34570312 -20.9375 14.25 C-20.94426758 12.63158203 -20.94426758 12.63158203 -20.95117188 10.98046875 C-20.96294273 8.32025617 -20.97938601 5.66015635 -21 3 C-21.66 3 -22.32 3 -23 3 C-22.67 2.01 -22.34 1.02 -22 0 C-20.02 -0.33 -18.04 -0.66 -16 -1 C-15.67 0.32 -15.34 1.64 -15 3 C-14.443125 2.360625 -13.88625 1.72125 -13.3125 1.0625 C-8.78409597 -2.97634684 -5.39076766 -2.13123373 0 0 Z " fill="#8F6842" transform="translate(365,51)"/>
<path d="M0 0 C0.8559375 0.00902344 1.711875 0.01804687 2.59375 0.02734375 C3.2228125 0.03894531 3.851875 0.05054687 4.5 0.0625 C-5.37736746 8.19680261 -13.22407478 11.30928448 -25.9375 11.375 C-26.73124023 11.38047852 -27.52498047 11.38595703 -28.34277344 11.39160156 C-32.2264201 11.34332649 -34.20172564 11.26134957 -37.5 9.0625 C-34.34493858 8.12630187 -31.53413498 7.9567877 -28.25 8 C-27.35796875 8.00902344 -26.4659375 8.01804687 -25.546875 8.02734375 C-24.87140625 8.03894531 -24.1959375 8.05054687 -23.5 8.0625 C-23.83 7.0725 -24.16 6.0825 -24.5 5.0625 C-25.60408203 4.97162109 -25.60408203 4.97162109 -26.73046875 4.87890625 C-27.70628906 4.79511719 -28.68210937 4.71132812 -29.6875 4.625 C-31.13189453 4.50318359 -31.13189453 4.50318359 -32.60546875 4.37890625 C-35.28649602 4.08583849 -37.8662986 3.63546246 -40.5 3.0625 C-40.5 2.7325 -40.5 2.4025 -40.5 2.0625 C-39.72398438 2.03744385 -38.94796875 2.0123877 -38.1484375 1.98657227 C-34.59882269 1.86982255 -31.04942232 1.7474569 -27.5 1.625 C-25.66888672 1.56602539 -25.66888672 1.56602539 -23.80078125 1.50585938 C-15.866264 1.22707904 -7.91265358 -0.10989797 0 0 Z " fill="#E5D9D0" transform="translate(96.5,106.9375)"/>
<path d="M0 0 C-9.12954521 9.12954521 -33.58626581 9.32551172 -45.82974243 9.32875061 C-47.40712646 9.31792349 -48.98448414 9.30209587 -50.56176758 9.28125 C-52.96125808 9.24968749 -55.36008634 9.24021186 -57.75976562 9.234375 C-80.87849055 9.12150945 -80.87849055 9.12150945 -84 6 C-83.04262939 6.02618408 -82.08525879 6.05236816 -81.09887695 6.0793457 C-56.36793283 6.69242153 -30.89216438 6.49066196 -6.72509766 0.42944336 C-4.46059863 -0.13427781 -2.3227144 -0.06451984 0 0 Z " fill="#BBAB9B" transform="translate(122,58)"/>
<path d="M0 0 C0.02505615 0.8878418 0.0501123 1.77568359 0.07592773 2.69042969 C0.17121797 5.99296037 0.27044207 9.29532459 0.37231445 12.59765625 C0.41555318 14.02534388 0.45723585 15.45307954 0.49731445 16.88085938 C0.55528602 18.93634496 0.61890175 20.99159128 0.68359375 23.046875 C0.72025146 24.28276367 0.75690918 25.51865234 0.79467773 26.79199219 C0.95979819 29.37187658 1.2464387 31.54355106 2 34 C-0.64 34 -3.28 34 -6 34 C-6 30.76008601 -5.9854446 27.52106025 -5.96484375 24.28125 C-5.95554709 22.02083407 -5.9464395 19.76041737 -5.9375 17.5 C-5.92912109 16.35917969 -5.92074219 15.21835938 -5.91210938 14.04296875 C-5.90888672 12.94597656 -5.90566406 11.84898438 -5.90234375 10.71875 C-5.89710693 9.71779297 -5.89187012 8.71683594 -5.88647461 7.68554688 C-5.98784465 5.28754601 -6.31174467 3.28896781 -7 1 C-4 0 -4 0 0 0 Z " fill="#B19176" transform="translate(314,50)"/>
<path d="M0 0 C7.20800421 -0.48867825 7.20800421 -0.48867825 10.9375 1.8125 C14.29988217 5.37866291 14.32378254 8.83464468 14.30078125 13.50390625 C13.79286916 17.71891696 11.96921327 21.28135173 10 25 C7.525 24.01 7.525 24.01 5 23 C5 19.02432134 5.67786358 15.92828038 6.66015625 12.12109375 C7.19659769 9.8192428 7.19659769 9.8192428 6 7 C3.03 6.505 3.03 6.505 0 6 C0 5.34 0 4.68 0 4 C2.64 4 5.28 4 8 4 C5.4345406 1.4345406 3.52313332 1.45953913 0 1 C0 0.67 0 0.34 0 0 Z " fill="#B2967C" transform="translate(173,56)"/>
<path d="M0 0 C0.33 0.495 0.66 0.99 1 1.5 C4.07696877 3.80772658 7.3378441 3.4494799 11 3 C13.40557853 2.13734032 13.40557853 2.13734032 15 1 C16.0541518 4.16245541 16.31275672 6.86948218 16.5625 10.1875 C16.68818359 11.81751953 16.68818359 11.81751953 16.81640625 13.48046875 C16.87699219 14.31191406 16.93757813 15.14335938 17 16 C17.99 16 18.98 16 20 16 C20.33 11.05 20.66 6.1 21 1 C21.33 1 21.66 1 22 1 C22.02684312 3.81256281 22.04676188 6.62487241 22.0625 9.4375 C22.07087891 10.23994141 22.07925781 11.04238281 22.08789062 11.86914062 C22.0965143 13.91295221 22.0522815 15.95683902 22 18 C21 19 21 19 18.5 19.125 C16 19 16 19 15 18 C14.76807135 16.48530552 14.58784762 14.96245438 14.4375 13.4375 C14.31181641 12.19806641 14.31181641 12.19806641 14.18359375 10.93359375 C14.12300781 10.29550781 14.06242187 9.65742187 14 9 C13.01 9.495 13.01 9.495 12 10 C2.91480828 11.03915592 2.91480828 11.03915592 -1.05859375 8.8828125 C-2.6875 7.5 -2.6875 7.5 -5 5 C-4.67 4.34 -4.34 3.68 -4 3 C-3.34 3.33 -2.68 3.66 -2 4 C-1.34 2.68 -0.68 1.36 0 0 Z " fill="#AE9074" transform="translate(148,65)"/>
<path d="M0 0 C1.98 0 3.96 0 6 0 C4.515 1.485 4.515 1.485 3 3 C3.309375 3.598125 3.61875 4.19625 3.9375 4.8125 C6.09057254 9.24529641 6.13082943 13.12810418 6.09765625 17.94921875 C6.0962413 18.72183548 6.09482635 19.49445221 6.09336853 20.29048157 C6.08777466 22.75619389 6.07522333 25.22181515 6.0625 27.6875 C6.05748421 29.36002473 6.05292144 31.03255088 6.04882812 32.70507812 C6.03780724 36.80342046 6.02054684 40.90169479 6 45 C6.99 45 7.98 45 9 45 C9 45.66 9 46.32 9 47 C5.52176885 48.15941038 3.54104422 47.70820884 0 47 C0.48678223 46.23780151 0.48678223 46.23780151 0.98339844 45.46020508 C2.36883101 42.10741832 2.25941801 39.26049267 2.265625 35.63671875 C2.26753845 34.92651077 2.2694519 34.2163028 2.27142334 33.48457336 C2.2727816 31.98425949 2.26911022 30.48393373 2.26074219 28.98364258 C2.25008476 26.70561782 2.26062452 24.42839019 2.2734375 22.15039062 C2.27211491 20.68749828 2.26955047 19.22460643 2.265625 17.76171875 C2.27169769 16.7519825 2.27169769 16.7519825 2.27789307 15.72184753 C2.23357473 11.17181981 1.33013718 7.33153163 0 3 C0 2.01 0 1.02 0 0 Z " fill="#CFBFB1" transform="translate(254,36)"/>
<path d="M0 0 C1.79232337 0.30871122 3.58384321 0.62209064 5.375 0.9375 C6.87160156 1.19853516 6.87160156 1.19853516 8.3984375 1.46484375 C11 2 11 2 13 3 C32.16512733 5.74707312 51.67804737 5.62116838 71 6 C71 6.33 71 6.66 71 7 C54.61368183 9.514732 37.21662583 8.72746937 20.8125 6.75 C19.86503906 6.64075195 18.91757812 6.53150391 17.94140625 6.41894531 C11.50782264 5.5435184 5.9130189 3.66137768 0 1 C0 0.67 0 0.34 0 0 Z " fill="#C2B2A3" transform="translate(17,69)"/>
<path d="M0 0 C8.91 0 17.82 0 27 0 C27 1.32 27 2.64 27 4 C24.36 4 21.72 4 19 4 C18.34 12.58 17.68 21.16 17 30 C16.67 30 16.34 30 16 30 C15.67 21.42 15.34 12.84 15 4 C10.05 3.67 5.1 3.34 0 3 C0 2.01 0 1.02 0 0 Z " fill="#93643A" transform="translate(224,42)"/>
<path d="M0 0 C3.96 0 7.92 0 12 0 C12 12.21 12 24.42 12 37 C11.67 37 11.34 37 11 37 C11 25.12 11 13.24 11 1 C7.7 1.33 4.4 1.66 1 2 C0.67 13.55 0.34 25.1 0 37 C-2.475 37.495 -2.475 37.495 -5 38 C-6 37 -6 37 -6.11352539 34.86694336 C-6.10828857 33.95050049 -6.10305176 33.03405762 -6.09765625 32.08984375 C-6.09443359 31.10048828 -6.09121094 30.11113281 -6.08789062 29.09179688 C-6.07951172 28.05087891 -6.07113281 27.00996094 -6.0625 25.9375 C-6.05798828 24.89271484 -6.05347656 23.84792969 -6.04882812 22.77148438 C-6.03699913 20.1809334 -6.02051689 17.59049441 -6 15 C-7.98 15.66 -9.96 16.32 -12 17 C-12 16.01 -12 15.02 -12 14 C-9.69 14 -7.38 14 -5 14 C-5 21.26 -5 28.52 -5 36 C-3.515 35.505 -3.515 35.505 -2 35 C-1.97494385 33.97527588 -1.9498877 32.95055176 -1.92407227 31.89477539 C-1.83015516 28.10590324 -1.72989683 24.31722119 -1.62768555 20.52856445 C-1.58427703 18.88635697 -1.54260642 17.24410261 -1.50268555 15.60180664 C-1.4451256 13.24611255 -1.38139108 10.89065572 -1.31640625 8.53515625 C-1.29133751 7.42733543 -1.29133751 7.42733543 -1.26576233 6.2971344 C-1.11387171 1.11387171 -1.11387171 1.11387171 0 0 Z " fill="#BBA795" transform="translate(228,46)"/>
<path d="M0 0 C10.54174258 -0.36844926 10.54174258 -0.36844926 15 2 C15.66 2.33 16.32 2.66 17 3 C17.33 3.33 17.66 3.66 18 4 C17.61577388 8.07279689 17.12055529 11.46574118 15 15 C13.02 14.34 11.04 13.68 9 13 C9 11.02 9 9.04 9 7 C6.69 6.67 4.38 6.34 2 6 C4 4 4 4 7 2 C6.67 2.33 6.34 2.66 6 3 C4.02 2.34 2.04 1.68 0 1 C0 0.67 0 0.34 0 0 Z " fill="#A8896E" transform="translate(198,55)"/>
<path d="M0 0 C0 0.66 0 1.32 0 2 C-4.67453587 3.19473249 -9.35314567 4.36976099 -14.03955078 5.51708984 C-15.56909405 5.89385654 -17.09571295 6.28250125 -18.62109375 6.67578125 C-33.0048768 10.03456125 -51.57301927 10.750075 -66 8 C-66 7.67 -66 7.34 -66 7 C-65.27224365 6.98541748 -64.5444873 6.97083496 -63.79467773 6.95581055 C-43.71940233 6.50997339 -23.75771199 5.58091656 -4.23046875 0.55078125 C-2 0 -2 0 0 0 Z " fill="#BFB0A4" transform="translate(114,83)"/>
<path d="M0 0 C6.63536618 0.92895127 6.63536618 0.92895127 9.64501953 1.51538086 C13.95595372 2.1380853 18.20426231 2.23243576 22.5546875 2.31640625 C23.90700974 2.3475779 23.90700974 2.3475779 25.28665161 2.37937927 C28.1493614 2.4444458 31.01215819 2.50355914 33.875 2.5625 C35.82292544 2.60572607 37.77084229 2.64934164 39.71875 2.69335938 C44.47907889 2.80008289 49.23949476 2.90146964 54 3 C54 3.33 54 3.66 54 4 C49.2104286 4.94131395 44.53752247 5.17544275 39.671875 5.203125 C38.48830414 5.21167511 38.48830414 5.21167511 37.28082275 5.22039795 C35.61675337 5.22980597 33.9526657 5.23636514 32.28857422 5.24023438 C29.77147079 5.2499174 27.25519277 5.28097087 24.73828125 5.3125 C7.60887484 5.4255009 7.60887484 5.4255009 1 2 C0.67 1.34 0.34 0.68 0 0 Z " fill="#BBAEA2" transform="translate(32,35)"/>
<path d="M0 0 C0.66 0.33 1.32 0.66 2 1 C2 2.98 2 4.96 2 7 C4.64 7 7.28 7 10 7 C10.33 7.66 10.66 8.32 11 9 C4.565 9.495 4.565 9.495 -2 10 C-2 18.91 -2 27.82 -2 37 C-2.33 37 -2.66 37 -3 37 C-3 27.76 -3 18.52 -3 9 C-4.32 9 -5.64 9 -7 9 C-5.44499019 5.18315774 -2.96404505 2.80804268 0 0 Z " fill="#A58466" transform="translate(327,42)"/>
<path d="M0 0 C0.58491211 0.1429248 1.16982422 0.28584961 1.77246094 0.43310547 C13.14820609 2.7783032 24.69379303 2.21661989 36.25 2.125 C38.45963137 2.1149518 40.66926715 2.1058292 42.87890625 2.09765625 C48.25270162 2.07578478 53.62632986 2.04245259 59 2 C59 2.33 59 2.66 59 3 C45.62790175 5.01030202 32.50637005 5.3070179 19 5 C18.16291504 4.98598145 17.32583008 4.97196289 16.46337891 4.95751953 C14.22391374 4.91297819 11.98808862 4.83898079 9.75 4.75 C7.88601562 4.68039063 7.88601562 4.68039063 5.984375 4.609375 C2.3956908 3.87660702 1.96482922 2.93482669 0 0 Z " fill="#C7B9AF" transform="translate(34,97)"/>
<path d="M0 0 C0.99 0 1.98 0 3 0 C3 9.9 3 19.8 3 30 C2.34 30 1.68 30 1 30 C0.67 31.32 0.34 32.64 0 34 C0 22.78 0 11.56 0 0 Z " fill="#92653D" transform="translate(294,47)"/>
<path d="M0 0 C0.99 0 1.98 0 3 0 C3.12117188 0.63808594 3.24234375 1.27617188 3.3671875 1.93359375 C3.53476562 2.75988281 3.70234375 3.58617188 3.875 4.4375 C4.03742188 5.26121094 4.19984375 6.08492188 4.3671875 6.93359375 C4.57601563 7.61550781 4.78484375 8.29742187 5 9 C5.66 9.33 6.32 9.66 7 10 C7 10.66 7 11.32 7 12 C8.65 12 10.3 12 12 12 C12 12.99 12 13.98 12 15 C7.02666392 15.29254918 3.9563029 15.16504232 0 12 C-2.19569297 9.20548168 -1.99481869 7.93886052 -1.6875 4.3125 C-1 1 -1 1 0 0 Z " fill="#A9896A" transform="translate(369,69)"/>
<path d="M0 0 C0.8559375 0.00902344 1.711875 0.01804687 2.59375 0.02734375 C3.2228125 0.03894531 3.851875 0.05054687 4.5 0.0625 C-2.61826701 6.28056463 -15.52878775 4.15161234 -24.5 4.1875 C-26.00494019 4.19463013 -26.00494019 4.19463013 -27.5402832 4.2019043 C-28.49636475 4.199729 -29.45244629 4.19755371 -30.4375 4.1953125 C-31.71947266 4.19362061 -31.71947266 4.19362061 -33.02734375 4.19189453 C-35.6013139 4.05719823 -37.98836871 3.62806635 -40.5 3.0625 C-40.5 2.7325 -40.5 2.4025 -40.5 2.0625 C-39.72398438 2.03744385 -38.94796875 2.0123877 -38.1484375 1.98657227 C-34.59882269 1.86982255 -31.04942232 1.7474569 -27.5 1.625 C-25.66888672 1.56602539 -25.66888672 1.56602539 -23.80078125 1.50585938 C-15.866264 1.22707904 -7.91265358 -0.10989797 0 0 Z " fill="#C2B1A3" transform="translate(96.5,106.9375)"/>
<path d="M0 0 C-0.66 1.32 -1.32 2.64 -2 4 C-2.67546875 3.94199219 -3.3509375 3.88398437 -4.046875 3.82421875 C-6.77510498 3.68623024 -9.28988734 3.63893483 -12 4 C-14.67818983 6.29857106 -14.67818983 6.29857106 -16 9 C-16.45572917 6.98177083 -16.91145833 4.96354167 -17.3671875 2.9453125 C-17.90474428 0.79280036 -17.90474428 0.79280036 -20 -1 C-18.68 -1 -17.36 -1 -16 -1 C-15.67 0.32 -15.34 1.64 -15 3 C-14.443125 2.360625 -13.88625 1.72125 -13.3125 1.0625 C-8.78409597 -2.97634684 -5.39076766 -2.13123373 0 0 Z " fill="#AF9075" transform="translate(365,51)"/>
<path d="M0 0 C0.33 0.66 0.66 1.32 1 2 C1.66 2 2.32 2 3 2 C3 6.62 3 11.24 3 16 C1.68 16.33 0.36 16.66 -1 17 C-2 16 -2 16 -2.09765625 13.27734375 C-2.08605469 12.17519531 -2.07445312 11.07304688 -2.0625 9.9375 C-2.05347656 8.83277344 -2.04445312 7.72804688 -2.03515625 6.58984375 C-2.02355469 5.73519531 -2.01195312 4.88054687 -2 4 C-2.99 3.67 -3.98 3.34 -5 3 C-4.34 3 -3.68 3 -3 3 C-2.67 2.34 -2.34 1.68 -2 1 C-1.34 1.33 -0.68 1.66 0 2 C0 1.34 0 0.68 0 0 Z " fill="#926439" transform="translate(166,65)"/>
<path d="M0 0 C0.33 0 0.66 0 1 0 C1.75346769 15.09028342 1.75346769 15.09028342 -3 21 C-5.75 23.4375 -5.75 23.4375 -8 25 C-8.66 24.67 -9.32 24.34 -10 24 C-9.34 22.68 -8.68 21.36 -8 20 C-7.34 20.33 -6.68 20.66 -6 21 C-6.33 19.35 -6.66 17.7 -7 16 C-6.34 15.67 -5.68 15.34 -5 15 C-5.66 14.67 -6.32 14.34 -7 14 C-5 12 -3 10 -1 8 C-0.76924918 6.65252916 -0.58846937 5.29622435 -0.4375 3.9375 C-0.293125 2.638125 -0.14875 1.33875 0 0 Z " fill="#B49981" transform="translate(131,107)"/>
<path d="M0 0 C3.28465896 2.79196011 5.01321958 6.23196817 7 10 C7 10.66 7 11.32 7 12 C7.66 12 8.32 12 9 12 C8.34 13.65 7.68 15.3 7 17 C3.21429586 15.73809862 2.78168429 14.45144185 0.8125 11.0625 C0.28269531 10.16660156 -0.24710937 9.27070312 -0.79296875 8.34765625 C-2 6 -2 6 -2 4 C-1.34 3.34 -0.68 2.68 0 2 C0 1.34 0 0.68 0 0 Z " fill="#AD9074" transform="translate(270,54)"/>
<path d="M0 0 C0.33 0 0.66 0 1 0 C1 2.31 1 4.62 1 7 C0.34 7 -0.32 7 -1 7 C-2.42502528 8.907885 -2.42502528 8.907885 -3.8203125 11.375 C-4.35527344 12.27734375 -4.89023437 13.1796875 -5.44140625 14.109375 C-6.27478516 15.54023437 -6.27478516 15.54023437 -7.125 17 C-7.96998047 18.43085937 -7.96998047 18.43085937 -8.83203125 19.890625 C-10.22797259 22.25662727 -11.61691272 24.6264682 -13 27 C-13.99 26.34 -14.98 25.68 -16 25 C-14.03998109 21.91186731 -12.07555345 18.82657854 -10.10888672 15.74267578 C-8.92455574 13.88143524 -7.74555029 12.016874 -6.56640625 10.15234375 C-5.75275771 8.87229822 -4.93895771 7.59234895 -4.125 6.3125 C-3.7319165 5.68843262 -3.33883301 5.06436523 -2.93383789 4.42138672 C-1.98261083 2.93020639 -0.99487385 1.46242187 0 0 Z " fill="#D0C2B6" transform="translate(293,40)"/>
<path d="M0 0 C0.33 0 0.66 0 1 0 C1 3.3 1 6.6 1 10 C0.67 10 0.34 10 0 10 C0 8.35 0 6.7 0 5 C-2.60816462 5.92741412 -5.2111389 6.86634717 -7.8125 7.8125 C-8.55048828 8.07353516 -9.28847656 8.33457031 -10.04882812 8.60351562 C-10.76103516 8.86455078 -11.47324219 9.12558594 -12.20703125 9.39453125 C-12.8616333 9.63018799 -13.51623535 9.86584473 -14.19067383 10.10864258 C-16.22835318 11.1124973 -17.48653345 12.32269404 -19 14 C-19 13.01 -19 12.02 -19 11 C-19.66 10.67 -20.32 10.34 -21 10 C-17.6006807 7.02666056 -14.26049615 5.99893743 -9.9375 4.8125 C-8.09478516 4.29623047 -8.09478516 4.29623047 -6.21484375 3.76953125 C-3 3 -3 3 0 3 C0 2.01 0 1.02 0 0 Z " fill="#DBD1C7" transform="translate(391,58)"/>
<path d="M0 0 C1 3 1 3 1 5 C0.01 5 -0.98 5 -2 5 C-1.62875 6.258125 -1.2575 7.51625 -0.875 8.8125 C-0.2421875 10.95703125 -0.2421875 10.95703125 0 13 C-0.99 14.485 -0.99 14.485 -2 16 C-3.32 15.34 -4.64 14.68 -6 14 C-6.44680851 5.21276596 -6.44680851 5.21276596 -3 1 C-2.01 0.67 -1.02 0.34 0 0 Z " fill="#9E7A56" transform="translate(148,54)"/>
<path d="M0 0 C1.12894876 0.93274109 2.25300876 1.87140122 3.375 2.8125 C4.00148437 3.33457031 4.62796875 3.85664062 5.2734375 4.39453125 C7 6 7 6 9 9 C8.01 9.99 7.02 10.98 6 12 C0.98886765 10.5682479 -0.94469549 8.01554307 -4 4 C-2.68 3.67 -1.36 3.34 0 3 C0 2.01 0 1.02 0 0 Z " fill="#AF9176" transform="translate(201,72)"/>
<path d="M0 0 C0 0.66 0 1.32 0 2 C-0.66386719 2.19335938 -1.32773437 2.38671875 -2.01171875 2.5859375 C-6.43375192 3.88995312 -10.72628729 5.26380421 -15 7 C-15.66 7 -16.32 7 -17 7 C-16.67 5.35 -16.34 3.7 -16 2 C-10.60539047 -0.27141454 -5.73842251 -0.20413361 0 0 Z " fill="#E6DBD2" transform="translate(50,11)"/>
<path d="M0 0 C0.66 0.99 1.32 1.98 2 3 C6.20417542 3.4671306 9.19788277 2.78923164 13 1 C12.875 2.8125 12.875 2.8125 12 5 C7.98075756 7.61718112 4.77887728 8.63718364 0 8 C-1.875 6.625 -1.875 6.625 -3 5 C-3 3 -3 3 -1.5 1.375 C-1.005 0.92125 -0.51 0.4675 0 0 Z " fill="#AE9279" transform="translate(328,76)"/>
<path d="M0 0 C1.33804687 0.29197266 1.33804687 0.29197266 2.703125 0.58984375 C3.37859375 0.74582031 4.0540625 0.90179688 4.75 1.0625 C2.75 3.0625 2.75 3.0625 -0.25 4.0625 C-1.013125 3.876875 -1.77625 3.69125 -2.5625 3.5 C-6.04123062 2.93369502 -8.02967383 3.69214844 -11.25 5.0625 C-12.60113205 6.03831759 -13.93946944 7.03279741 -15.25 8.0625 C-15.91 8.0625 -16.57 8.0625 -17.25 8.0625 C-15.74235345 3.84108966 -13.03707131 2.25900136 -9.25 0.0625 C-5.87542037 -1.15178388 -3.4682465 -0.77579198 0 0 Z " fill="#BBA491" transform="translate(387.25,49.9375)"/>
<path d="M0 0 C0.33 0 0.66 0 1 0 C1.33 7.26 1.66 14.52 2 22 C2.66 22 3.32 22 4 22 C5.38938077 23.96147874 6.7260411 25.96166576 8 28 C4.92677456 28.91058531 2.19902639 29.08886184 -1 29 C-1 25.99923768 -0.89826284 23.0179853 -0.78125 20.01953125 C-0.73613281 18.85615234 -0.69101562 17.69277344 -0.64453125 16.49414062 C-0.59683594 15.27919922 -0.54914063 14.06425781 -0.5 12.8125 C-0.45230469 11.58595703 -0.40460938 10.35941406 -0.35546875 9.09570312 C-0.23749515 6.06378159 -0.1189842 3.03188202 0 0 Z " fill="#CFBDAC" transform="translate(293,55)"/>
<path d="M0 0 C0 1.66666667 0 3.33333333 0 5 C0.66 5.33 1.32 5.66 2 6 C2 5.34 2 4.68 2 4 C2.99 4 3.98 4 5 4 C5 4.66 5 5.32 5 6 C3.73392393 6.53229326 2.46189588 7.05044544 1.1875 7.5625 C0.47980469 7.85253906 -0.22789063 8.14257812 -0.95703125 8.44140625 C-3 9 -3 9 -6 8 C-5.34 8 -4.68 8 -4 8 C-4 7.34 -4 6.68 -4 6 C-4.66 6 -5.32 6 -6 6 C-6.33 4.35 -6.66 2.7 -7 1 C-7.99 0.67 -8.98 0.34 -10 0 C-6.33694766 -0.74926071 -3.57644848 -1.2380014 0 0 Z " fill="#A07C58" transform="translate(104,133)"/>
<path d="M0 0 C7.20800421 -0.48867825 7.20800421 -0.48867825 10.9375 1.8125 C13.93366457 4.9902503 14.12325865 7.49515326 14.0625 11.6875 C14.05347656 12.49574219 14.04445312 13.30398437 14.03515625 14.13671875 C14.02355469 14.75160156 14.01195312 15.36648437 14 16 C13.67 16 13.34 16 13 16 C12.67 13.36 12.34 10.72 12 8 C11.01 7.67 10.02 7.34 9 7 C8.01 8.485 8.01 8.485 7 10 C6.67 9.01 6.34 8.02 6 7 C3.03 6.505 3.03 6.505 0 6 C0 5.34 0 4.68 0 4 C2.64 4 5.28 4 8 4 C5.4345406 1.4345406 3.52313332 1.45953913 0 1 C0 0.67 0 0.34 0 0 Z " fill="#BFA895" transform="translate(173,56)"/>
<path d="M0 0 C0.99 0.33 1.98 0.66 3 1 C3 6.94 3 12.88 3 19 C2.01 18.67 1.02 18.34 0 18 C-1.23180249 11.84098757 -0.73030908 6.21324498 0 0 Z " fill="#92673C" transform="translate(392,57)"/>
<path d="M0 0 C2.67927341 4.01891012 2.15601248 6.24161923 2 11 C1.01 11 0.02 11 -1 11 C-1 11.99 -1 12.98 -1 14 C-1.66 14 -2.32 14 -3 14 C-3.08082094 12.04233719 -3.13910778 10.08373272 -3.1875 8.125 C-3.22230469 7.03445312 -3.25710937 5.94390625 -3.29296875 4.8203125 C-3.19628906 3.88960938 -3.09960938 2.95890625 -3 2 C-2.01 1.34 -1.02 0.68 0 0 Z " fill="#92673A" transform="translate(184,61)"/>
<path d="M0 0 C0.66 0 1.32 0 2 0 C2 2.31 2 4.62 2 7 C1.443125 7.2475 0.88625 7.495 0.3125 7.75 C-2.15464798 8.99199765 -2.15464798 8.99199765 -4.625 11.125 C-7 13 -7 13 -9 13 C-9 12.34 -9 11.68 -9 11 C-10.65 11 -12.3 11 -14 11 C-14 10.67 -14 10.34 -14 10 C-12.783125 9.79375 -11.56625 9.5875 -10.3125 9.375 C-5.46802484 8.1896497 -3.78205541 6.04662605 -1 2 C-0.67 1.34 -0.34 0.68 0 0 Z " fill="#BFA995" transform="translate(390,70)"/>
<path d="M0 0 C0 2.62113708 -0.31292445 4.50935112 -1 7 C-1.66 7 -2.32 7 -3 7 C-3.66 8.32 -4.32 9.64 -5 11 C-5.99 10.67 -6.98 10.34 -8 10 C-8.33 8.35 -8.66 6.7 -9 5 C-3.375 1.125 -3.375 1.125 0 0 Z " fill="#92653A" transform="translate(126,121)"/>
<path d="M0 0 C1.5003479 0.07069702 1.5003479 0.07069702 3.03100586 0.14282227 C4.1105957 0.19116211 5.19018555 0.23950195 6.30249023 0.28930664 C7.43879883 0.34538086 8.57510742 0.40145508 9.74584961 0.45922852 C11.45611328 0.53753906 11.45611328 0.53753906 13.20092773 0.61743164 C16.02864984 0.74757785 18.85605961 0.8825573 21.68334961 1.02172852 C18.8176049 2.64501915 16.74829158 3.27696733 13.46069336 3.28735352 C12.67500977 3.28993164 11.88932617 3.29250977 11.07983398 3.29516602 C9.86263672 3.28356445 9.86263672 3.28356445 8.62084961 3.27172852 C7.80551758 3.27946289 6.99018555 3.28719727 6.15014648 3.29516602 C5.36575195 3.29258789 4.58135742 3.29000977 3.77319336 3.28735352 C3.06026123 3.28509766 2.3473291 3.2828418 1.61279297 3.28051758 C-0.31665039 3.02172852 -0.31665039 3.02172852 -3.31665039 1.02172852 C-2.31665039 0.02172852 -2.31665039 0.02172852 0 0 Z " fill="#E8D3C0" transform="translate(62.316650390625,114.978271484375)"/>
<path d="M0 0 C0.33 0 0.66 0 1 0 C1.01981934 0.59014893 1.03963867 1.18029785 1.06005859 1.78833008 C1.15534659 4.46350096 1.26500939 7.13789498 1.375 9.8125 C1.4059375 10.74126953 1.436875 11.67003906 1.46875 12.62695312 C1.50742187 13.51962891 1.54609375 14.41230469 1.5859375 15.33203125 C1.6173584 16.15421143 1.6487793 16.9763916 1.68115234 17.82348633 C1.88373622 20.28952937 1.88373622 20.28952937 4 23 C3 24 3 24 1.15234375 24.09765625 C-0.8984375 24.06510417 -2.94921875 24.03255208 -5 24 C-5 20.89448334 -4.4606285 19.64738916 -3 17 C-3 18.65 -3 20.3 -3 22 C-2.01 22.33 -1.02 22.66 0 23 C0 15.41 0 7.82 0 0 Z " fill="#CDBFB3" transform="translate(348,60)"/>
<path d="M0 0 C1.65 0 3.3 0 5 0 C5 0.66 5 1.32 5 2 C5.66 2.33 6.32 2.66 7 3 C6 6 6 6 3 8 C2.01 8 1.02 8 0 8 C0 7.01 0 6.02 0 5 C-0.66 4.67 -1.32 4.34 -2 4 C-1.34 2.68 -0.68 1.36 0 0 Z " fill="#936439" transform="translate(20,127)"/>
<path d="M0 0 C1.62463842 -0.05395478 3.24978541 -0.09277195 4.875 -0.125 C5.77992188 -0.14820313 6.68484375 -0.17140625 7.6171875 -0.1953125 C10 0 10 0 12 2 C11.6875 3.6875 11.6875 3.6875 11 6 C10.6503582 8.33094534 10.31445513 10.66404762 10 13 C9 10 9 10 9 7 C6.69 6.67 4.38 6.34 2 6 C4 4 4 4 7 2 C6.67 2.33 6.34 2.66 6 3 C4.02 2.34 2.04 1.68 0 1 C0 0.67 0 0.34 0 0 Z " fill="#C1A994" transform="translate(198,55)"/>
<path d="M0 0 C1.13179687 0.32613281 2.26359375 0.65226562 3.4296875 0.98828125 C8.04273261 2.13900342 12.39147176 2.26333224 17.125 2.1875 C18.28322266 2.1865332 18.28322266 2.1865332 19.46484375 2.18554688 C23.74657696 2.15272269 27.78473393 1.84170648 32 1 C31.67 1.66 31.34 2.32 31 3 C26.61140137 4.46286621 22.34698167 4.18436427 17.75 4.1875 C16.82058594 4.19974609 15.89117187 4.21199219 14.93359375 4.22460938 C9.55069067 4.23602996 5.08841673 3.77813458 0 2 C0 1.34 0 0.68 0 0 Z " fill="#906C4B" transform="translate(54,115)"/>
<path d="M0 0 C0.33 0 0.66 0 1 0 C1.02684312 2.81256281 1.04676188 5.62487241 1.0625 8.4375 C1.07087891 9.23994141 1.07925781 10.04238281 1.08789062 10.86914062 C1.0965143 12.91295221 1.0522815 14.95683902 1 17 C0 18 0 18 -2.5 18.125 C-5 18 -5 18 -6 17 C-6.23363881 15.15108054 -6.41303635 13.29511969 -6.5625 11.4375 C-6.68818359 9.91962891 -6.68818359 9.91962891 -6.81640625 8.37109375 C-6.87699219 7.58863281 -6.93757812 6.80617188 -7 6 C-6.34 6 -5.68 6 -5 6 C-4.67 8.97 -4.34 11.94 -4 15 C-3.01 15 -2.02 15 -1 15 C-0.67 10.05 -0.34 5.1 0 0 Z " fill="#DED5CD" transform="translate(169,66)"/>
<path d="M0 0 C1.65 0.33 3.3 0.66 5 1 C5.33 3.64 5.66 6.28 6 9 C5.01 9.495 5.01 9.495 4 10 C2.5 8.75 2.5 8.75 1 7 C1 5.68 1 4.36 1 3 C0.34 3 -0.32 3 -1 3 C-0.67 2.01 -0.34 1.02 0 0 Z " fill="#A47F5D" transform="translate(343,51)"/>
<path d="M0 0 C1.48168945 1.08520508 1.48168945 1.08520508 3 3 C3.34057617 6.00268555 3.34057617 6.00268555 3.29296875 9.63671875 C3.28330078 10.93544922 3.27363281 12.23417969 3.26367188 13.57226562 C3.23860585 14.94401639 3.21321101 16.31576118 3.1875 17.6875 C3.1724502 19.07094924 3.1587623 20.45441401 3.14648438 21.83789062 C3.11107223 25.22565207 3.06168054 28.61263139 3 32 C2.67 32 2.34 32 2 32 C2 22.76 2 13.52 2 4 C0.68 4 -0.64 4 -2 4 C-1.34 2.68 -0.68 1.36 0 0 Z " fill="#C4B2A0" transform="translate(322,47)"/>
<path d="M0 0 C0.66 2.97 1.32 5.94 2 9 C1.01 9 0.02 9 -1 9 C-1.66 8.34 -2.32 7.68 -3 7 C-3.33 7 -3.66 7 -4 7 C-4.33 5.02 -4.66 3.04 -5 1 C-3 0 -3 0 0 0 Z " fill="#9C744F" transform="translate(261,37)"/>
<path d="M0 0 C3.63 0 7.26 0 11 0 C11 1.32 11 2.64 11 4 C7.37 3.67 3.74 3.34 0 3 C0 2.01 0 1.02 0 0 Z " fill="#93643A" transform="translate(150,53)"/>
<path d="M0 0 C0.99 0.33 1.98 0.66 3 1 C3 1.99 3 2.98 3 4 C3.66 4 4.32 4 5 4 C5.66 5.32 6.32 6.64 7 8 C2.25 9.125 2.25 9.125 0 8 C0 5.36 0 2.72 0 0 Z " fill="#A48467" transform="translate(392,75)"/>
<path d="M0 0 C0.99 0 1.98 0 3 0 C3.99 2.31 4.98 4.62 6 7 C5.01 7.66 4.02 8.32 3 9 C1.5 7.875 1.5 7.875 0 6 C-0.1875 2.8125 -0.1875 2.8125 0 0 Z " fill="#9C724D" transform="translate(196,68)"/>
<path d="M0 0 C6.75 -0.125 6.75 -0.125 9 1 C9 1.99 9 2.98 9 4 C5.7 4 2.4 4 -1 4 C-0.67 2.68 -0.34 1.36 0 0 Z " fill="#94673C" transform="translate(151,70)"/>
<path d="M0 0 C3.125 0.5 3.125 0.5 5 1 C5 1.33 5 1.66 5 2 C2.69 2.33 0.38 2.66 -2 3 C-2 2.34 -2 1.68 -2 1 C-6.09305456 2.65296434 -9.58983503 4.13546142 -13 7 C-13.66 6.67 -14.32 6.34 -15 6 C-10.88067374 -0.59092202 -7.50088127 -0.87305339 0 0 Z " fill="#AB9077" transform="translate(118,98)"/>
<path d="M0 0 C1.2375 0.0309375 1.2375 0.0309375 2.5 0.0625 C2.83 0.0625 3.16 0.0625 3.5 0.0625 C4.49 0.3925 5.48 0.7225 6.5 1.0625 C5.5 3.0625 5.5 3.0625 2.6875 4.1875 C-0.5 5.0625 -0.5 5.0625 -4.5 5.0625 C-3.37591241 0.08439781 -3.37591241 0.08439781 0 0 Z " fill="#95643A" transform="translate(200.5,55.9375)"/>
<path d="M0 0 C2 3 2 3 2 6 C1.34 6 0.68 6 0 6 C0 6.66 0 7.32 0 8 C-0.66 8 -1.32 8 -2 8 C-2 7.01 -2 6.02 -2 5 C-4.97 4.67 -7.94 4.34 -11 4 C-11 3.67 -11 3.34 -11 3 C-8.02148438 2.70703125 -8.02148438 2.70703125 -5.04296875 2.4140625 C-2.70011858 2.07334609 -2.70011858 2.07334609 0 0 Z " fill="#BA9F85" transform="translate(162,66)"/>
<path d="M0 0 C0.99 0.33 1.98 0.66 3 1 C3 2.32 3 3.64 3 5 C3.99 5.33 4.98 5.66 6 6 C4.35 7.32 2.7 8.64 1 10 C0.34 9.67 -0.32 9.34 -1 9 C-0.67 6.03 -0.34 3.06 0 0 Z " fill="#A37D59" transform="translate(115,126)"/>
<path d="M0 0 C2.97 0.495 2.97 0.495 6 1 C3.48592381 5.28324091 1.87685861 7.64531705 -3 9 C-2.67 7.35 -2.34 5.7 -2 4 C-1.01 4.33 -0.02 4.66 1 5 C0.67 3.35 0.34 1.7 0 0 Z " fill="#AC8D6F" transform="translate(124,123)"/>
<path d="M0 0 C0.33 0 0.66 0 1 0 C1 1.65 1 3.3 1 5 C1.99 5.33 2.98 5.66 4 6 C4.33 8.97 4.66 11.94 5 15 C0.05479786 10.21432051 0.05479786 10.21432051 -0.09765625 6.8359375 C-0.08605469 6.02382812 -0.07445312 5.21171875 -0.0625 4.375 C-0.05347656 3.55773437 -0.04445312 2.74046875 -0.03515625 1.8984375 C-0.02355469 1.27195313 -0.01195312 0.64546875 0 0 Z " fill="#AE9376" transform="translate(192,61)"/>
<path d="M0 0 C0 1.65 0 3.3 0 5 C-1.65 5 -3.3 5 -5 5 C-5.33 3.35 -5.66 1.7 -6 0 C-3.50907189 -1.24546405 -2.58919267 -0.7767578 0 0 Z " fill="#B29983" transform="translate(314,39)"/>
<path d="M0 0 C3 3.75 3 3.75 3 6 C3.99 6 4.98 6 6 6 C6 6.66 6 7.32 6 8 C2.52176885 9.15941038 0.54104422 8.70820884 -3 8 C-2.01 5.36 -1.02 2.72 0 0 Z " fill="#AD9681" transform="translate(257,75)"/>
<path d="M0 0 C2.5 2.3125 2.5 2.3125 5 5 C5 5.99 5 6.98 5 8 C3.35 8.33 1.7 8.66 0 9 C-0.66 6.36 -1.32 3.72 -2 1 C-1.34 0.67 -0.68 0.34 0 0 Z " fill="#966538" transform="translate(209,57)"/>
<path d="M0 0 C0.79921875 0.11085937 1.5984375 0.22171875 2.421875 0.3359375 C3.32679688 0.47902344 3.32679688 0.47902344 4.25 0.625 C4.25 2.605 4.25 4.585 4.25 6.625 C1.28 6.625 -1.69 6.625 -4.75 6.625 C-4.75 6.295 -4.75 5.965 -4.75 5.625 C-2.11 5.625 0.53 5.625 3.25 5.625 C3.25 4.305 3.25 2.985 3.25 1.625 C2.38375 1.810625 1.5175 1.99625 0.625 2.1875 C-2.80152628 2.63167933 -5.39212371 2.34454492 -8.75 1.625 C-5.5750906 -0.2828584 -3.64414789 -0.5359041 0 0 Z " fill="#D3C6BA" transform="translate(157.75,51.375)"/>
<path d="M0 0 C0.33 0.66 0.66 1.32 1 2 C-2.66717359 6.00055301 -6.06746451 8.66825595 -11 11 C-13.21484375 10.6015625 -13.21484375 10.6015625 -15 10 C-14.46890625 9.74605469 -13.9378125 9.49210937 -13.390625 9.23046875 C-9.63882365 7.40249254 -6.31676395 5.55135689 -3 3 C-2.34 3 -1.68 3 -1 3 C-0.67 2.01 -0.34 1.02 0 0 Z " fill="#946F4D" transform="translate(102,105)"/>
<path d="M0 0 C3.875 1.875 3.875 1.875 5 3 C5.07205511 4.68608966 5.08386068 6.37500659 5.0625 8.0625 C5.05347656 8.98160156 5.04445313 9.90070312 5.03515625 10.84765625 C5.02355469 11.55792969 5.01195313 12.26820312 5 13 C4.67 13 4.34 13 4 13 C3.690625 11.906875 3.38125 10.81375 3.0625 9.6875 C2.41662103 7.44592006 1.7376883 5.2130649 1 3 C0.34 3 -0.32 3 -1 3 C-0.67 2.01 -0.34 1.02 0 0 Z " fill="#EDE7E3" transform="translate(112,7)"/>
<path d="M0 0 C11.52164009 1.92710706 11.52164009 1.92710706 17 4 C17 4.33 17 4.66 17 5 C10.54487966 5.56131481 5.84560277 3.63463787 0 1 C0 0.67 0 0.34 0 0 Z " fill="#BDB1A5" transform="translate(17,69)"/>
<path d="M0 0 C1.32 0 2.64 0 4 0 C4.33 1.32 4.66 2.64 5 4 C5.99 3.34 6.98 2.68 8 2 C8.66 2.66 9.32 3.32 10 4 C9.38125 4.433125 8.7625 4.86625 8.125 5.3125 C5.7802755 6.99740483 5.7802755 6.99740483 4 10 C3.54427083 7.98177083 3.08854167 5.96354167 2.6328125 3.9453125 C2.09525572 1.79280036 2.09525572 1.79280036 0 0 Z " fill="#D5C8BD" transform="translate(345,50)"/>
<path d="M0 0 C0.33 2.31 0.66 4.62 1 7 C-3.67692308 5.52307692 -3.67692308 5.52307692 -5.3125 2.875 C-5.539375 2.25625 -5.76625 1.6375 -6 1 C-3.92446352 0.4465236 -2.15634036 0 0 0 Z " fill="#B09175" transform="translate(19,128)"/>
<path d="M0 0 C2.69082872 0.17635452 5.32851446 0.61835921 8 1 C8 1.99 8 2.98 8 4 C4.625 4.1875 4.625 4.1875 1 4 C0.34 3.01 -0.32 2.02 -1 1 C-0.67 0.67 -0.34 0.34 0 0 Z " fill="#A48568" transform="translate(373,80)"/>
<path d="M0 0 C-0.125 1.875 -0.125 1.875 -1 4 C-4.0625 5.25 -4.0625 5.25 -7 6 C-7.99 5.01 -8.98 4.02 -10 3 C-9.05125 2.690625 -8.1025 2.38125 -7.125 2.0625 C-1.05882353 0 -1.05882353 0 0 0 Z " fill="#D5C8BD" transform="translate(341,77)"/>
<path d="M0 0 C5.28 0.99 10.56 1.98 16 3 C16 3.33 16 3.66 16 4 C13.89695523 4.1080023 11.79233091 4.18558987 9.6875 4.25 C7.92986328 4.31960937 7.92986328 4.31960937 6.13671875 4.390625 C4.58404297 4.19726562 4.58404297 4.19726562 3 4 C2.01 2.68 1.02 1.36 0 0 Z " fill="#C5B6A8" transform="translate(34,97)"/>
<path d="M0 0 C2.625 -0.1875 2.625 -0.1875 5 0 C1.57611908 3.82669043 -1.00724943 5.72278474 -6 7 C-6.33 6.34 -6.66 5.68 -7 5 C-6.21625 4.731875 -5.4325 4.46375 -4.625 4.1875 C-1.71885077 3.15185568 -1.71885077 3.15185568 0 0 Z " fill="#E7D2BE" transform="translate(92,109)"/>
<path d="M0 0 C4.61487965 1.45733042 4.61487965 1.45733042 6.375 3.9375 C7 6 7 6 6 9 C3.69 6.69 1.38 4.38 -1 2 C-0.67 1.34 -0.34 0.68 0 0 Z " fill="#E2CEBE" transform="translate(39,101)"/>
<path d="M0 0 C0.99 0 1.98 0 3 0 C2.690625 0.886875 2.38125 1.77375 2.0625 2.6875 C1.1709329 5.46709155 0.50622993 8.13136375 0 11 C-2 8 -2 8 -1.6875 4.375 C-1 1 -1 1 0 0 Z " fill="#B89F87" transform="translate(369,69)"/>
<path d="M0 0 C1.98 0.66 3.96 1.32 6 2 C6.33 1.34 6.66 0.68 7 0 C7.33 1.32 7.66 2.64 8 4 C5.36 4 2.72 4 0 4 C0 2.68 0 1.36 0 0 Z " fill="#CCBCAE" transform="translate(308,80)"/>
<path d="M0 0 C2.31 0.33 4.62 0.66 7 1 C6.67 1.99 6.34 2.98 6 4 C3.69 3.67 1.38 3.34 -1 3 C-0.67 2.01 -0.34 1.02 0 0 Z " fill="#996B44" transform="translate(215,56)"/>
<path d="M0 0 C0.66 0 1.32 0 2 0 C2 2.31 2 4.62 2 7 C0.68 7.33 -0.64 7.66 -2 8 C-3 5 -3 5 -1.6875 2.3125 C-1.130625 1.549375 -0.57375 0.78625 0 0 Z " fill="#DACFC7" transform="translate(390,70)"/>
<path d="M0 0 C2.97 0 5.94 0 9 0 C9.33 0.66 9.66 1.32 10 2 C6.7 2.33 3.4 2.66 0 3 C0 2.01 0 1.02 0 0 Z " fill="#D6C9BE" transform="translate(328,49)"/>
<path d="M0 0 C1.98 0 3.96 0 6 0 C5.505 0.350625 5.01 0.70125 4.5 1.0625 C2.26936034 3.94374289 2.80019379 6.47009026 3 10 C2.67 10 2.34 10 2 10 C0 3.375 0 3.375 0 0 Z " fill="#D8CDC3" transform="translate(254,36)"/>
<path d="M0 0 C0.66 0.66 1.32 1.32 2 2 C-1.63 2 -5.26 2 -9 2 C-6.00298693 -0.99701307 -3.88314867 -1.37789146 0 0 Z " fill="#DED1C7" transform="translate(73,9)"/>
<path d="M0 0 C1.98 0.66 3.96 1.32 6 2 C6 2.99 6 3.98 6 5 C5.34 5 4.68 5 4 5 C3.67 5.66 3.34 6.32 3 7 C2.01 4.69 1.02 2.38 0 0 Z " fill="#E8E1DB" transform="translate(17,70)"/>
<path d="M0 0 C0.99 1.32 1.98 2.64 3 4 C1.68 4.33 0.36 4.66 -1 5 C-0.67 3.35 -0.34 1.7 0 0 Z M-5 3 C-3.02 3.99 -3.02 3.99 -1 5 C-1.66 5.66 -2.32 6.32 -3 7 C-3.66 5.68 -4.32 4.36 -5 3 Z " fill="#B69A82" transform="translate(148,65)"/>
<path d="M0 0 C1.9375 0.3125 1.9375 0.3125 4 1 C4.33 1.99 4.66 2.98 5 4 C3.68 4.33 2.36 4.66 1 5 C0.67 3.35 0.34 1.7 0 0 Z " fill="#9F774F" transform="translate(266,53)"/>
<path d="M0 0 C0.66 0.33 1.32 0.66 2 1 C2 2.32 2 3.64 2 5 C0.35 4.67 -1.3 4.34 -3 4 C-3 3.01 -3 2.02 -3 1 C-2.01 0.67 -1.02 0.34 0 0 Z " fill="#AF977B" transform="translate(310,50)"/>
<path d="M0 0 C0.66 1.32 1.32 2.64 2 4 C1.01 4.99 0.02 5.98 -1 7 C-1.99 6.01 -2.98 5.02 -4 4 C-2.68 2.68 -1.36 1.36 0 0 Z " fill="#E7E0DA" transform="translate(21,39)"/>
<path d="M0 0 C1.69752187 0.25245197 3.38471545 0.57645775 5.0625 0.9375 C5.98160156 1.13214844 6.90070313 1.32679687 7.84765625 1.52734375 C8.91306641 1.76130859 8.91306641 1.76130859 10 2 C10 2.33 10 2.66 10 3 C8.741875 3.04125 7.48375 3.0825 6.1875 3.125 C5.47980469 3.14820312 4.77210937 3.17140625 4.04296875 3.1953125 C2 3 2 3 -1 1 C-0.67 0.67 -0.34 0.34 0 0 Z " fill="#E2CAB6" transform="translate(60,115)"/>
<path d="M0 0 C2.125 0.375 2.125 0.375 4 1 C2.515 3.475 2.515 3.475 1 6 C0.67 5.01 0.34 4.02 0 3 C-0.66 2.67 -1.32 2.34 -2 2 C-1.34 1.34 -0.68 0.68 0 0 Z " fill="#CEBCAC" transform="translate(372,66)"/>
<path d="M0 0 C0.66 0.99 1.32 1.98 2 3 C0.68 4.65 -0.64 6.3 -2 8 C-2.66 7.34 -3.32 6.68 -4 6 C-2.68 4.02 -1.36 2.04 0 0 Z " fill="#D6CAC0" transform="translate(281,59)"/>
<path d="M0 0 C0.66 0.33 1.32 0.66 2 1 C2.25 3.3125 2.25 3.3125 2 6 C0 7.8125 0 7.8125 -2 9 C-2.20140476 5.37471432 -1.85776765 3.13498292 0 0 Z " fill="#AA8A6C" transform="translate(171,57)"/>
<path d="M0 0 C0.99 0.33 1.98 0.66 3 1 C1.37660195 2.70884005 -0.29319053 4.37446717 -2 6 C-2.66 6 -3.32 6 -4 6 C-2.84826645 3.53199953 -1.95216435 1.95216435 0 0 Z " fill="#D3C8BF" transform="translate(374,52)"/>
<path d="M0 0 C1.65 0 3.3 0 5 0 C5 0.99 5 1.98 5 3 C4.01 3.495 4.01 3.495 3 4 C3 3.34 3 2.68 3 2 C1.35 2.66 -0.3 3.32 -2 4 C-1.34 2.68 -0.68 1.36 0 0 Z " fill="#CABBAD" transform="translate(296,36)"/>
<path d="M0 0 C0 0.33 0 0.66 0 1 C-5.16044765 2.512545 -8.65998179 3.33500455 -14 2 C-14 1.67 -14 1.34 -14 1 C-9.23692563 0.04738513 -4.8333472 -0.08333357 0 0 Z " fill="#F2EEEB" transform="translate(58,9)"/>
</svg>
